<?xml version="1.0" standalone="no"?>
<!DOCTYPE svg PUBLIC "-//W3C//DTD SVG 1.1//EN" "http://www.w3.org/Graphics/SVG/1.1/DTD/svg11.dtd" >
<svg>
<metadata>
Created by FontForge 20090914 at Sun Feb  2 06:42:34 2014
 By www-data
Copyright (c) Manfred Klein, 2004. All rights reserved.
</metadata>
<defs>
<font id="Santana" horiz-adv-x="530" >
  <font-face 
    font-family="Santana"
    font-weight="300"
    font-stretch="normal"
    units-per-em="1000"
    panose-1="2 0 4 3 5 0 0 2 0 4"
    ascent="800"
    descent="-200"
    x-height="480"
    cap-height="674"
    bbox="-58.001 -273 1125 825"
    underline-thickness="50"
    underline-position="-75"
    unicode-range="U+0005-U+E010"
  />
<missing-glyph horiz-adv-x="1000" 
 />
    <glyph glyph-name=".notdef" horiz-adv-x="1000" 
 />
    <glyph glyph-name="breve" horiz-adv-x="300" 
d="M271 684l-37.999 0.000976562c-1.33301 -8 -3.66602 -16.667 -6.99902 -26s-8.33301 -17.666 -15 -24.999s-15 -13.5 -25 -18.5s-22 -7.5 -36 -7.5c-22.667 0 -41.167 7.5 -55.5 22.5s-23.5 33.167 -27.5 54.5h-38c0 -12.667 2.16699 -25.834 6.5 -39.501
s11.166 -26.334 20.499 -38.001s21.666 -21.167 36.999 -28.5s34.333 -11 57 -11c34 0 62.5 10.5 85.5 31.5s34.833 49.5 35.5 85.5z" />
    <glyph glyph-name="dotaccent" horiz-adv-x="300" 
d="M189 605c0 11.333 -3.50098 21 -10.501 29s-16.167 12 -27.5 12s-20.666 -4.16699 -27.999 -12.5s-11 -17.833 -11 -28.5s3.5 -20.167 10.5 -28.5s16.167 -12.5 27.5 -12.5c12 0 21.5 4.16699 28.5 12.5s10.5 17.833 10.5 28.5z" />
    <glyph glyph-name="ring" horiz-adv-x="400" 
d="M294 623c0 26 -8.83203 47.832 -26.499 65.499s-39.834 26.5 -66.501 26.5c-27.333 0 -50 -9 -68 -27s-27 -39.667 -27 -65s9 -46.666 27 -63.999s40.667 -26 68 -26c12 0 23.667 2.33301 35 7s21.333 11 30 19s15.5 17.5 20.5 28.5s7.5 22.833 7.5 35.5z
M256.001 623.999c0 -16.667 -5.16895 -30.999 -15.502 -42.999s-23.833 -18 -40.5 -18c-15.333 0 -28.166 6.16699 -38.499 18.5s-15.5 26.166 -15.5 41.499c0 17.333 4.83301 32 14.5 44s22.834 18 39.501 18s30.167 -5.83301 40.5 -17.5s15.5 -26.167 15.5 -43.5z" />
    <glyph glyph-name="hungarumlaut" unicode="&#xa;" horiz-adv-x="300" 
d="M378 681h-69l-91 -127h38zM248 681h-69l-91 -127h38z" />
    <glyph glyph-name="ogonek" horiz-adv-x="300" 
d="M218 -185l-9.00098 31.999c-8 -4 -16.5 -6.5 -25.5 -7.5s-17.167 -1.5 -24.5 -1.5c-12 0 -22.667 4.16699 -32 12.5s-14 20.833 -14 37.5c0 10.667 2.66699 21.167 8 31.5s12.5 20.5 21.5 30.5s19.333 19.167 31 27.5s23.5 15.833 35.5 22.5h-43
c-9.33301 -3.33301 -19.666 -9.16602 -30.999 -17.499s-22 -18 -32 -29s-18.333 -23 -25 -36s-10 -25.833 -10 -38.5c0 -23.333 7.5 -42 22.5 -56s34.167 -21 57.5 -21c26.667 0 50 4.33301 70 13z" />
    <glyph glyph-name="caron" horiz-adv-x="300" 
d="M269 682h-47l-69 -103h-2l-69 103h-51l102 -140h38z" />
    <glyph glyph-name="dotlessi" unicode="&#xd;" horiz-adv-x="225" 
d="M137 0v480h-49v-480h49z" />
    <glyph glyph-name="fraction" horiz-adv-x="428" 
d="M436 662h-41l-403 -674h41z" />
    <glyph glyph-name="fi" horiz-adv-x="520" 
d="M432 0l0.000976562 479.999h-295v28c0 23.333 2.16699 45.833 6.5 67.5s11.666 40.667 21.999 57s24.333 29.5 42 39.5s39.834 15 66.501 15c21.333 0 41.333 -3.16699 60 -9.5s33.667 -14.166 45 -23.499l24 38c-6 4.66699 -13.667 9.33398 -23 14.001
s-19.333 8.5 -30 11.5s-21.834 5.5 -33.501 7.5s-22.834 3 -33.501 3c-33.333 0 -62.166 -5.33301 -86.499 -16s-44.5 -25.667 -60.5 -45s-28 -42.333 -36 -69s-12 -56.334 -12 -89.001v-29h-73v-39h73v-642h49v642h246v-441h49z" />
    <glyph glyph-name="fl" horiz-adv-x="520" 
d="M432 0l0.000976562 700.998c-15.333 8 -34 14.5 -56 19.5s-45.667 7.5 -71 7.5c-34 0 -62.833 -4.16699 -86.5 -12.5s-44.167 -20.166 -61.5 -35.499c-46 -42 -69 -102.667 -69 -182v-18h-73v-39h73v-642h49v642h141v39h-141v26c0 24 2.5 46.833 7.5 68.5
s13.667 40.834 26 57.501s28.666 30 48.999 40s45.5 15 75.5 15c22 0 39.833 -1.5 53.5 -4.5s25.167 -6.83301 34.5 -11.5v-671h49z" />
    <glyph glyph-name="Lslash" horiz-adv-x="490" 
d="M471 0v41h-334v287l147 99v44l-147 -99v302h-49v-333l-94 -64v-44l94 65v-298h383z" />
    <glyph glyph-name="lslash" horiz-adv-x="225" 
d="M209 425v46l-72 -59v304h-49v-341l-72 -59v-45l72 59v-330h49v366z" />
    <glyph glyph-name="Zcaron" horiz-adv-x="605" 
d="M444 825h-50l-75 -78h-2l-77 78h-54l113 -115h36zM570 0v41h-469v3l462 596v34h-488v-41h423v-3l-461 -597v-33h533z" />
    <glyph glyph-name="zcaron" horiz-adv-x="440" 
d="M359 682h-47l-69 -103h-2l-69 103h-51l102 -140h38zM428 0v40h-348v2l29 33l28 33l287 338l1 34h-388v-40h328v-2l-32 -35l-30 -35l-287 -338v-30h412z" />
    <glyph glyph-name="space" unicode=" " horiz-adv-x="240" 
 />
    <glyph glyph-name="exclam" unicode="!" horiz-adv-x="215" 
d="M137 674h-61l10 -494h41zM150 34c0 13.333 -3.83105 24.5 -11.498 33.5s-17.834 13.5 -30.501 13.5s-22.834 -4.5 -30.501 -13.5s-11.834 -20.167 -12.501 -33.5c0 -12 3.83301 -22.667 11.5 -32s17.834 -14 30.501 -14c13.333 0 23.833 4.66699 31.5 14s11.5 20 11.5 32
z" />
    <glyph glyph-name="quotedbl" unicode="&#x22;" horiz-adv-x="302" 
d="M242 695h-60l14 -222h32zM120 695h-60l14 -222h32z" />
    <glyph glyph-name="numbersign" unicode="#" horiz-adv-x="500" 
d="M460 408v39h-91l25 203h-42l-26 -203h-122l25 203h-42l-26 -203h-100v-39h95l-20 -161h-96v-39h91l-26 -208h43l26 208h122l-26 -208h43l26 208h101v39h-96l20 161h96zM321 408l-20 -161h-122l20 161h122z" />
    <glyph glyph-name="dollar" unicode="$" 
d="M430 181c0 22.667 -3.66699 42.8359 -11 60.5029s-17.833 33.667 -31.5 48s-30.334 27.166 -50.001 38.499s-41.834 22.333 -66.501 33c-48 20 -82.333 39.333 -103 58s-31 42.667 -31 72c0 12 2.33301 24.333 7 37s12 24 22 34s23 18.333 39 25s35.667 10 59 10
c32.667 0 59.334 -4.66699 80.001 -14s35.667 -17.333 45 -24l22 38c-14.667 9.33301 -32.167 17.833 -52.5 25.5s-45.5 12.167 -75.5 13.5v107h-42v-107c-46 -6 -82.5 -22.833 -109.5 -50.5s-40.5 -61.167 -40.5 -100.5s13.5 -71.833 40.5 -97.5
s69.167 -50.167 126.5 -73.5c39.333 -16 70 -34.5 92 -55.5s33 -47.833 33 -80.5c0 -16.667 -3.5 -32.334 -10.5 -47.001s-16.667 -27.334 -29 -38.001s-27.333 -19 -45 -25s-37.167 -9 -58.5 -9c-27.333 0 -53 4.33301 -77 13s-44.667 19.667 -62 33l-22 -38
c18.667 -15.333 41.834 -27 69.501 -35s55.167 -12 82.5 -12v-105h42v105c26.667 4 50 11.5 70 22.5s36.333 24 49 39s22.167 31.167 28.5 48.5s9.5 34.333 9.5 51z" />
    <glyph glyph-name="percent" unicode="%" horiz-adv-x="770" 
d="M740 202c0 65.333 -13.001 113.833 -39.001 145.5s-60 47.5 -102 47.5c-18.667 0 -37 -4.16699 -55 -12.5s-34.167 -20.833 -48.5 -37.5s-25.666 -38 -33.999 -64s-12.5 -56.333 -12.5 -91c0 -34 4 -63.167 12 -87.5s18.667 -44.5 32 -60.5s28.5 -27.833 45.5 -35.5
s34.833 -11.5 53.5 -11.5c20.667 0 40 4.33301 58 13s33.667 21.5 47 38.5s23.833 38.5 31.5 64.5s11.5 56.333 11.5 91zM605.999 662h-41l-403 -674h41zM320.999 469c0 65.333 -13.001 113.833 -39.001 145.5s-60 47.5 -102 47.5c-18.667 0 -37 -4.16699 -55 -12.5
s-34.167 -20.833 -48.5 -37.5s-25.666 -38 -33.999 -64s-12.5 -56.333 -12.5 -91c0 -34 4 -63.167 12 -87.5s18.667 -44.5 32 -60.5s28.5 -27.833 45.5 -35.5s34.833 -11.5 53.5 -11.5c20.667 0 40 4.33301 58 13s33.667 21.5 47 38.5s23.833 38.5 31.5 64.5
s11.5 56.333 11.5 91zM697.998 198c0 -52.667 -8.5 -94 -25.5 -124s-42.833 -45 -77.5 -45c-30.667 0 -55.667 14.667 -75 44s-28.333 70 -27 122c0.666992 52 10.5 92.667 29.5 122s43.5 44 73.5 44c36 0 62 -14.833 78 -44.5s24 -69.167 24 -118.5zM278.998 465
c0 -52.667 -8.5 -94 -25.5 -124s-42.833 -45 -77.5 -45c-30.667 0 -55.667 14.667 -75 44s-28.333 70 -27 122c0.666992 52 10.5 92.667 29.5 122s43.5 44 73.5 44c36 0 62 -14.833 78 -44.5s24 -69.167 24 -118.5z" />
    <glyph glyph-name="ampersand" unicode="&#x26;" horiz-adv-x="590" 
d="M599 0l-55.0068 50.998l-61 59c22 23.333 40.5 54.666 55.5 93.999s28.167 89 39.5 149h-46c-5.33301 -30 -10.666 -56.167 -15.999 -78.5s-11.166 -42 -17.499 -59s-13.166 -31.833 -20.499 -44.5s-15 -24.334 -23 -35.001l-40.5 41.5l-51 54l-59 63l-62.5 68.5v3
c0.666992 0.666992 1.33398 1 2.00098 1s1.33398 0.333008 2.00098 1c30.667 15.333 56.5 30.166 77.5 44.499s38.167 28.666 51.5 42.999s23 29.333 29 45s9 32.5 9 50.5c0 19.333 -3.5 37.333 -10.5 54s-16.5 31 -28.5 43s-26.5 21.333 -43.5 28s-35.5 10 -55.5 10
c-26 0 -49.167 -4.66699 -69.5 -14s-37.333 -21.5 -51 -36.5s-24.167 -32.167 -31.5 -51.5s-11 -39.333 -11 -60c0 -44.667 20.667 -93 62 -145v-3c-19.333 -9.33301 -37.666 -20.166 -54.999 -32.499s-32.5 -26.666 -45.5 -42.999s-23.5 -34.666 -31.5 -54.999
s-12 -43.166 -12 -68.499c0 -28 5.33301 -53.5 16 -76.5s25 -42.833 43 -59.5s39.167 -29.667 63.5 -39s50.5 -14 78.5 -14c38.667 0 75.834 6.16699 111.501 18.5s73.167 35.833 112.5 70.5c17.333 -15.333 32 -29.166 44 -41.499s24.333 -24.166 37 -35.499h63z
M367.993 545.998c0 -18 -3.66895 -33.998 -11.002 -47.998s-17.666 -27 -30.999 -39s-29.166 -23.333 -47.499 -34s-38.5 -21.334 -60.5 -32.001c-13.333 17.333 -26.5 37 -39.5 59s-19.5 47.667 -19.5 77c0 15.333 2.33301 30.166 7 44.499s11.667 27 21 38
s20.833 19.833 34.5 26.5s29.5 10 47.5 10c17.333 0 32.333 -3 45 -9s23 -14 31 -24s13.833 -21 17.5 -33s5.5 -24 5.5 -36zM426.991 105c-21.333 -22 -47.499 -40.499 -78.499 -55.499s-66.167 -22.5 -105.5 -22.5c-22.667 0 -44 3.66699 -64 11s-37.5 17.833 -52.5 31.5
s-26.833 30.167 -35.5 49.5s-13 41 -13 65c0 22.667 4.16699 43 12.5 61s18.5 33.667 30.5 47s24.833 24.5 38.5 33.5s26.167 16.167 37.5 21.5l74.5 -81.5l67.5 -71.5l54 -55.5c15.333 -15.667 26.666 -26.834 33.999 -33.501z" />
    <glyph glyph-name="quotesingle" unicode="'" horiz-adv-x="180" 
d="M120 695h-60l14 -222h32z" />
    <glyph glyph-name="parenleft" unicode="(" horiz-adv-x="270" 
d="M265 -124c-22 27.333 -42.3301 55.499 -60.9971 84.499s-34.834 59.833 -48.501 92.5s-24.334 67.834 -32.001 105.501s-11.5 79.167 -11.5 124.5c0 46 3.66699 88.5 11 127.5s17.666 75.333 30.999 109s29.333 65.167 48 94.5s39.667 57.333 63 84h-47
c-19.333 -23.333 -38 -48.666 -56 -75.999s-34.333 -57.833 -49 -91.5s-26.334 -70.834 -35.001 -111.501s-13 -85.667 -13 -135s4.33301 -94 13 -134s20.334 -76.667 35.001 -110s31 -63.5 49 -90.5s36.667 -51.5 56 -73.5h47z" />
    <glyph glyph-name="parenright" unicode=")" horiz-adv-x="270" 
d="M205 287c0 49.333 -4.33203 94.334 -12.999 135.001s-20.334 77.834 -35.001 111.501s-31.167 64 -49.5 91s-36.833 51.5 -55.5 73.5h-47c22.667 -27.333 43.334 -55.5 62.001 -84.5s34.667 -60 48 -93s23.833 -68.667 31.5 -107s11.5 -80.166 11.5 -125.499
c0 -46 -3.83301 -88.167 -11.5 -126.5s-18.334 -74.333 -32.001 -108s-29.834 -65 -48.501 -94s-39 -56.833 -61 -83.5h47c18.667 22.667 37.167 47.667 55.5 75s34.833 57.666 49.5 90.999s26.334 70.166 35.001 110.499s13 85.166 13 134.499z" />
    <glyph glyph-name="asterisk" unicode="*" horiz-adv-x="400" 
d="M370 498v49l-151 -12v2l92 123l-46 26l-64 -133h-2l-66 133l-47 -27l90 -121v-2l-146 11v-49l147 15v-3l-91 -120l40 -27l71 134h2l63 -134l49 27l-91 119v3z" />
    <glyph glyph-name="plus" unicode="+" horiz-adv-x="596" 
d="M556 247v40h-236v245h-44v-245h-236v-40h236v-247h44v247h236z" />
    <glyph glyph-name="comma" unicode="," horiz-adv-x="175" 
d="M143 96l-64 -10.002c-2 -15.333 -5.16699 -33.166 -9.5 -53.499s-9 -40.5 -14 -60.5s-10 -38.667 -15 -56s-9.5 -31.333 -13.5 -42l39 5c4 6.66699 9.33301 18.334 16 35.001l21.5 56c7.66699 20.667 15 42.167 22 64.5s12.833 42.833 17.5 61.5z" />
    <glyph glyph-name="hyphen" unicode="-" horiz-adv-x="300" 
d="M270 261v43h-240v-43h240z" />
    <glyph glyph-name="period" unicode="." horiz-adv-x="175" 
d="M112 34c0 13.333 -3.83203 24.5 -11.499 33.5s-17.834 13.5 -30.501 13.5s-23 -4.5 -31 -13.5s-12 -20.167 -12 -33.5c-0.666992 -12 3 -22.667 11 -32s18.333 -14 31 -14c13.333 0 23.833 4.66699 31.5 14s11.5 20 11.5 32z" />
    <glyph glyph-name="slash" unicode="/" horiz-adv-x="374" 
d="M384 686h-51l-357 -726h48z" />
    <glyph glyph-name="zero" unicode="0" 
d="M489 337c0 54.667 -5.33398 102.5 -16.001 143.5s-25.5 74.833 -44.5 101.5s-41.667 46.667 -68 60s-55.5 20 -87.5 20c-29.333 0 -58 -6.66699 -86 -20s-52.833 -34 -74.5 -62s-39.167 -63.5 -52.5 -106.5s-19.666 -93.833 -18.999 -152.5
c0.666992 -58 7.16699 -108 19.5 -150s28.5 -76.5 48.5 -103.5s42.833 -47 68.5 -60s52.5 -19.5 80.5 -19.5c72 0 128.5 29.167 169.5 87.5s61.5 145.5 61.5 261.5zM436.999 330c0 -45.333 -3.50391 -86.668 -10.5039 -124.001s-17.667 -69.166 -32 -95.499
s-32.666 -46.666 -54.999 -60.999s-48.5 -21.5 -78.5 -21.5c-25.333 0 -48.666 6.83301 -69.999 20.5s-39.5 33.5 -54.5 59.5s-26.5 57.667 -34.5 95s-11.667 79.666 -11 126.999c0.666992 44 5.33398 84 14.001 120s20.5 66.667 35.5 92s33 45 54 59s44.167 21 69.5 21
c30.667 0 56.834 -7 78.501 -21s39.5 -33.833 53.5 -59.5s24.333 -56.5 31 -92.5s10 -75.667 10 -119z" />
    <glyph glyph-name="one" unicode="1" 
d="M298 0v650h-47l-121 -70l12 -39l106 61h2v-602h48z" />
    <glyph glyph-name="two" unicode="2" 
d="M469 0l-0.00292969 41h-350v2l46 41l125.5 115.5c35.667 34.333 65.334 66.833 89.001 97.5s41.334 60.667 53.001 90s17.5 60.333 17.5 93c0 17.333 -3.16699 36.5 -9.5 57.5s-17 40.833 -32 59.5s-35 34.167 -60 46.5s-56.5 18.5 -94.5 18.5
c-35.333 0 -68.333 -6.33301 -99 -19s-58.667 -30.334 -84 -53.001l20 -33c16.667 14.667 38.167 28.667 64.5 42s55.833 20 88.5 20c31.333 0 57 -4.66699 77 -14s35.833 -21.166 47.5 -35.499s19.834 -30.5 24.501 -48.5s7 -36 7 -54
c0 -25.333 -4.83301 -49.833 -14.5 -73.5s-25.667 -49.667 -48 -78s-51.833 -60.5 -88.5 -96.5l-136 -129l-64 -59v-31h420z" />
    <glyph glyph-name="three" unicode="3" 
d="M456 182c0 22 -4 42.5039 -12 61.5039s-19 35.833 -33 50.5s-30.5 27.167 -49.5 37.5s-39.833 17.5 -62.5 21.5v2c42 14.667 73.833 35.5 95.5 62.5s32.5 57.5 32.5 91.5c0 17.333 -3.16699 35.166 -9.5 53.499s-16.666 34.833 -30.999 49.5s-33.166 26.667 -56.499 36
s-52 14 -86 14c-33.333 0 -65 -5.83301 -95 -17.5s-53.667 -24.167 -71 -37.5l20 -36c16 12.667 36.5 24 61.5 34s51.5 15 79.5 15c26 0 47.833 -3.5 65.5 -10.5s31.667 -16.167 42 -27.5s17.833 -23.833 22.5 -37.5s7 -27.5 7 -41.5c0 -22.667 -5.5 -42.334 -16.5 -59.001
s-25 -30.667 -42 -42s-36 -19.833 -57 -25.5s-41.5 -8.5 -61.5 -8.5h-52v-36h49c24.667 0 49.334 -2.66699 74.001 -8s47 -14 67 -26s36.167 -27.667 48.5 -47s18.833 -43 19.5 -71c0 -11.333 -2 -25.5 -6 -42.5s-12.5 -33.5 -25.5 -49.5s-31.167 -29.667 -54.5 -41
s-54.333 -17 -93 -17c-17.333 0 -33.833 1.5 -49.5 4.5s-30.334 6.66699 -44.001 11s-25.834 9.16602 -36.501 14.499s-19.334 10.333 -26.001 15l-20 -39c14.667 -10.667 37 -21.334 67 -32.001s64 -16 102 -16c41.333 0 77 5.66699 107 17s54.667 26.333 74 45
s33.5 39.5 42.5 62.5s13.5 46.167 13.5 69.5z" />
    <glyph glyph-name="four" unicode="4" 
d="M504 190v41h-108v419h-38l-352 -427v-33h343v-190h47v190h108zM351 583c-1.33301 -11.333 -1.99805 -23.333 -1.99805 -36v-37v-279h-284v2l236 287c7.33301 8.66699 14.666 18 21.999 28s15.666 22 24.999 36z" />
    <glyph glyph-name="five" unicode="5" 
d="M446 206c0 24 -3.50293 46 -10.5029 66s-16 37.5 -27 52.5s-23.5 27.833 -37.5 38.5s-28 18.667 -42 24c-19.333 7.33301 -38.5 12.666 -57.5 15.999s-39.833 5 -62.5 5c-17.333 0 -31.166 -0.5 -41.499 -1.5s-19.833 -2.16699 -28.5 -3.5l31 204h267v43h-305l-41 -292
c13.333 2 28.833 3.83301 46.5 5.5s37.167 2.5 58.5 2.5c36 0 66.667 -4.5 92 -13.5s46 -21.167 62 -36.5s27.833 -33.333 35.5 -54s11.5 -42.667 11.5 -66s-4.5 -45 -13.5 -65s-21.5 -37.5 -37.5 -52.5s-34.833 -26.833 -56.5 -35.5s-45.5 -13 -71.5 -13
c-34 0 -64 4.83301 -90 14.5s-46 19.167 -60 28.5l-20 -39c14.667 -10.667 36.334 -21 65.001 -31s62.334 -15 101.001 -15c32 0 62 5.33301 90 16s52.5 25.5 73.5 44.5s37.667 41.833 50 68.5s18.5 56.334 18.5 89.001z" />
    <glyph glyph-name="six" unicode="6" 
d="M491 217c0 30 -4.84082 57.8369 -14.5078 83.5039s-23.667 48 -42 67s-40.666 34 -66.999 45s-56.166 16.5 -89.499 16.5c-22 0 -42.667 -2.83301 -62 -8.5s-36.833 -13 -52.5 -22s-29.5 -19.333 -41.5 -31s-22 -23.834 -30 -36.501h-2
c2.66699 33.333 10.5 65.333 23.5 96s30.167 58.334 51.5 83.001s46.833 45.667 76.5 63s62.834 29.666 99.501 36.999c4 1.33301 7.83301 2.16602 11.5 2.49902s7.5 0.833008 11.5 1.5c10.667 1.33301 21 2.16602 31 2.49902s19 0.5 27 0.5l-1 45
c-9.33301 0 -20.5 -0.5 -33.5 -1.5s-26.5 -3.16699 -40.5 -6.5c-75.333 -14 -138.666 -44.667 -189.999 -92c-33.333 -30 -61.5 -70.167 -84.5 -120.5s-34.5 -109.5 -34.5 -177.5c0 -47.333 6.33301 -88.333 19 -123s29.834 -63.334 51.501 -86.001
s46.334 -39.5 74.001 -50.5s56.5 -16.5 86.5 -16.5c36.667 0 68.834 6.83301 96.501 20.5s50.834 31.5 69.501 53.5s32.667 46.5 42 73.5s14 54.167 14 81.5zM439.992 215.004c0 -25.333 -3.83203 -49.167 -11.499 -71.5s-18.834 -42 -33.501 -59
s-32.334 -30.5 -53.001 -40.5s-44 -15 -70 -15c-30.667 0 -57.5 5.83301 -80.5 17.5s-42.167 27.5 -57.5 47.5s-26.833 43.333 -34.5 70s-11.5 55 -11.5 85c0 7.33301 1.33301 14.5 4 21.5s5.66699 13.833 9 20.5c16 28 39 51 69 69s62 27 96 27
c24.667 0 47.667 -3.83301 69 -11.5s39.833 -18.834 55.5 -33.501s27.834 -32.667 36.501 -54s13 -45.666 13 -72.999z" />
    <glyph glyph-name="seven" unicode="7" 
d="M481 611v39h-410v-41h359v-2l-316 -607h48z" />
    <glyph glyph-name="eight" unicode="8" 
d="M487 176c0 36.667 -11.833 69.6689 -35.5 99.002s-61.167 52.333 -112.5 69v4c24.667 10 45 21.333 61 34s28.667 26 38 40s15.666 28 18.999 42s5 27.333 5 40c0 22.667 -4.5 43.667 -13.5 63s-21.833 36 -38.5 50s-36.667 25 -60 33s-49.333 12 -78 12
c-29.333 0 -56.333 -4.33301 -81 -13s-46 -20.5 -64 -35.5s-32 -32.833 -42 -53.5s-15 -43.334 -15 -68.001c0 -28 8.66699 -55.167 26 -81.5s47.666 -47.833 90.999 -64.5v-4c-48 -18 -84 -42 -108 -72s-36 -65 -36 -105c0 -28 6 -52.833 18 -74.5s28 -40.167 48 -55.5
s43.5 -27 70.5 -35s55.5 -12 85.5 -12c28 0 55.333 4.33301 82 13s50.334 21 71.001 37s37.334 35.667 50.001 59s19 49.666 19 78.999zM414 501.002c0 -38 -12.668 -69.002 -38.001 -93.002s-57 -41 -95 -51c-52 10 -92 26.333 -120 49s-41.667 53.667 -41 93
c0 16 3.16699 31.333 9.5 46s15.833 27.834 28.5 39.501s28.334 21 47.001 28s40.667 10.5 66 10.5c26.667 0 49 -3.83301 67 -11.5s32.667 -17.5 44 -29.5s19.5 -25.167 24.5 -39.5s7.5 -28.166 7.5 -41.499zM437.999 167c0 -18 -3.83301 -35.499 -11.5 -52.499
s-19 -31.833 -34 -44.5s-33.167 -22.834 -54.5 -30.501s-46 -11.5 -74 -11.5c-27.333 0 -51.666 4.16699 -72.999 12.5s-39.333 19.166 -54 32.499s-25.5 28.833 -32.5 46.5s-10.167 35.834 -9.5 54.501c1.33301 37.333 14.666 70 39.999 98s63.333 47.667 114 59
c30 -6.66699 56.833 -14.5 80.5 -23.5s43.5 -20 59.5 -33s28.167 -28.167 36.5 -45.5s12.5 -38 12.5 -62z" />
    <glyph glyph-name="nine" unicode="9" 
d="M492 386c0 47.333 -5.66699 88.335 -17 123.002s-26.666 63.334 -45.999 86.001s-41.833 39.5 -67.5 50.5s-52.5 16.5 -80.5 16.5c-35.333 0 -67.166 -6.66699 -95.499 -20s-52.333 -30.833 -72 -52.5s-34.834 -46.5 -45.501 -74.5s-16 -56.667 -16 -86
c0 -24 4.16699 -48 12.5 -72s21 -45.333 38 -64s38 -33.834 63 -45.501s54.5 -17.5 88.5 -17.5c38 0 72.667 7.66699 104 23s58.666 38 81.999 68l3 1c-6.66699 -46 -17.834 -85.333 -33.501 -118s-34.167 -60.667 -55.5 -84c-22 -23.333 -46.167 -41.833 -72.5 -55.5
s-54.5 -22.5 -84.5 -26.5c-36.667 -5.33301 -64.667 -7 -84 -5v-45c26.667 -1.33301 60 1.66699 100 9c25.333 4.66699 52 13.667 80 27s53 29.666 75 48.999c16 14 31.333 30.667 46 50s27.834 42 39.501 68s21 55.167 28 87.5s10.5 68.166 10.5 107.499zM443 390.002
c0 -6.66699 -1.00098 -12.499 -3.00098 -17.499s-4 -9.16699 -6 -12.5c-15.333 -24.667 -38 -45.5 -68 -62.5s-65 -25.5 -105 -25.5c-24 0 -45.833 4 -65.5 12s-36.5 19.167 -50.5 33.5s-24.833 31.166 -32.5 50.499s-11.5 40.333 -11.5 63c0 24.667 3.83301 48.5 11.5 71.5
s18.834 43.167 33.501 60.5s32.5 31.333 53.5 42s44.5 16 70.5 16c30 0 56 -6 78 -18s40 -28.5 54 -49.5s24.333 -45.5 31 -73.5s10 -58 10 -90z" />
    <glyph glyph-name="colon" unicode=":" horiz-adv-x="175" 
d="M140 399c0 13.333 -3.83105 24.5 -11.498 33.5s-17.834 13.5 -30.501 13.5s-22.834 -4.5 -30.501 -13.5s-11.834 -20.167 -12.501 -33.5c0 -12 3.83301 -22.667 11.5 -32s17.834 -14 30.501 -14c13.333 0 23.833 4.66699 31.5 14s11.5 20 11.5 32zM139.002 34
c0 13.333 -3.83105 24.5 -11.498 33.5s-17.834 13.5 -30.501 13.5s-22.834 -4.5 -30.501 -13.5s-11.834 -20.167 -12.501 -33.5c0 -12 3.83301 -22.667 11.5 -32s17.834 -14 30.501 -14c13.333 0 23.833 4.66699 31.5 14s11.5 20 11.5 32z" />
    <glyph glyph-name="semicolon" unicode=";" horiz-adv-x="175" 
d="M147 399c0 13.333 -3.83105 24.5 -11.498 33.5s-17.834 13.5 -30.501 13.5s-22.834 -4.5 -30.501 -13.5s-11.834 -20.167 -12.501 -33.5c0 -12 3.83301 -22.667 11.5 -32s17.834 -14 30.501 -14c13.333 0 23.833 4.66699 31.5 14s11.5 20 11.5 32zM143.002 96
l-64 -10.002c-2 -15.333 -5.16699 -33.166 -9.5 -53.499s-9 -40.5 -14 -60.5s-10 -38.667 -15 -56s-9.5 -31.333 -13.5 -42l39 5c4 6.66699 9.33301 18.334 16 35.001l21.5 56c7.66699 20.667 15 42.167 22 64.5s12.833 42.833 17.5 61.5z" />
    <glyph glyph-name="less" unicode="&#x3c;" horiz-adv-x="596" 
d="M525 0v47l-407 218v2l407 218v47l-454 -249v-34z" />
    <glyph glyph-name="equal" unicode="=" horiz-adv-x="596" 
d="M556 345v40h-516v-40h516zM556 155v40h-516v-40h516z" />
    <glyph glyph-name="greater" unicode="&#x3e;" horiz-adv-x="596" 
d="M525 249v34l-454 249v-47l407 -218v-2l-407 -218v-47z" />
    <glyph glyph-name="question" unicode="?" horiz-adv-x="410" 
d="M356 539c0 18 -3.16895 35.834 -9.50195 53.501s-16.166 33.334 -29.499 47.001s-30.166 24.834 -50.499 33.501s-44.5 13 -72.5 13c-10.667 0 -22.167 -0.833008 -34.5 -2.5s-24.833 -4.33398 -37.5 -8.00098s-25 -8.33398 -37 -14.001s-23 -12.5 -33 -20.5l20 -35
c14 11.333 31.333 20.166 52 26.499s41 9.5 61 9.5c40.667 0 70.5 -10.167 89.5 -30.5s28.5 -45.5 28.5 -75.5c0 -23.333 -6 -46.666 -18 -69.999s-32.667 -50.666 -62 -81.999c-28 -30.667 -48.167 -60.834 -60.5 -90.501s-16.833 -58.167 -13.5 -85.5l4 -31h45l-2 36
c-1.33301 23.333 3.16699 47.333 13.5 72s29.166 52 56.499 82c30.667 33.333 53.334 63.166 68.001 89.499s22 53.833 22 82.5zM218.998 34.001c0 13.333 -3.83105 24.5 -11.498 33.5s-17.834 13.5 -30.501 13.5s-22.834 -4.5 -30.501 -13.5s-11.834 -20.167 -12.501 -33.5
c0 -12 3.83301 -22.667 11.5 -32s17.834 -14 30.501 -14c13.333 0 23.833 4.66699 31.5 14s11.5 20 11.5 32z" />
    <glyph glyph-name="at" unicode="@" horiz-adv-x="766" 
d="M540 12l0.00585938 0.998047c21.333 0 43.166 6 65.499 18s42.5 28.5 60.5 49.5s32.833 46 44.5 75s17.5 60.5 17.5 94.5c0 43.333 -7.33301 83.833 -22 121.5s-35.667 70.334 -63 98.001s-60.333 49.5 -99 65.5s-82 24 -130 24c-59.333 0 -112.333 -10.333 -159 -31
s-86 -48.334 -118 -83.001s-56.5 -74.667 -73.5 -120s-25.5 -92.666 -25.5 -141.999c0 -47.333 8.5 -90.833 25.5 -130.5s40.167 -73.667 69.5 -102s63.333 -50.333 102 -66s79.667 -23.5 123 -23.5c34 0 66.5 3.5 97.5 10.5s60.5 18.167 88.5 33.5l-16 36
c-21.333 -13.333 -46.333 -23.5 -75 -30.5s-59.334 -10.5 -92.001 -10.5c-38 0 -73.833 7 -107.5 21s-63 33.833 -88 59.5s-44.667 56.167 -59 91.5s-21.5 74 -21.5 116c0 51.333 8.5 97.666 25.5 138.999s40 76.5 69 105.5s63 51.167 102 66.5s80.5 23 124.5 23
c43.333 0 82 -7 116 -21s62.833 -33.333 86.5 -58s41.667 -53.834 54 -87.501s18.5 -70.5 18.5 -110.5c0 -27.333 -2.83301 -51.166 -8.5 -71.499s-14.167 -38 -25.5 -53s-25.333 -28 -42 -39s-35.667 -20.833 -57 -29.5
c-2.66699 -1.33301 -5.33398 -1.66602 -8.00098 -0.999023s-5.33398 1 -8.00098 1c-2 10 -3.66699 20.167 -5 30.5s-2 20.833 -2 31.5v153c0 16.667 -1.66699 35.334 -5 56.001s-10.5 40 -21.5 58s-27 33.167 -48 45.5s-49.5 18.5 -85.5 18.5c-11.333 0 -23.333 -1 -36 -3
l1.5 -7.5c1 -5 2.5 -14.167 4.5 -27.5c4 0.666992 8.33301 1.16699 13 1.5s9.33398 0.5 14.001 0.5c28 0 50 -5.16699 66 -15.5s28 -22.333 36 -36s13 -27.5 15 -41.5s3 -25 3 -33v-10c-99.333 1.33301 -171.833 -12.334 -217.5 -41.001s-68.5 -67 -68.5 -115
c0 -15.333 3.66699 -31.333 11 -48s19 -30.667 35 -42c17.333 -13.333 37.666 -21.333 60.999 -24h2c4 -0.666992 8 -1.16699 12 -1.5s8.33301 -0.5 13 -0.5c19.333 0 37.166 2.33301 53.499 7s31 10.834 44 18.501s24.167 16 33.5 25s16.666 17.5 21.999 25.5h2l16 -67z
M482.006 146.998c0 -8 -1.99805 -16 -5.99805 -24c-4 -9.33301 -9.83301 -19.166 -17.5 -29.499s-17.334 -19.833 -29.001 -28.5s-25.334 -15.667 -41.001 -21s-33.834 -8 -54.501 -8c-25.333 0 -47.166 7.33301 -65.499 22s-27.5 37 -27.5 67
c0 24.667 7.33301 44.5 22 59.5s33.5 26.5 56.5 34.5s48.833 13.167 77.5 15.5s57 3.16602 85 2.49902v-90z" />
    <glyph glyph-name="A" unicode="A" horiz-adv-x="640" 
d="M620 0l-270 674h-48l-272 -674l51 -10l93 247h300l95 -247zM458 278h-267l96 240c8 20 14.833 38 20.5 54s11.167 32.667 16.5 50h2l15.5 -49c5 -16 12.167 -35.333 21.5 -58z" />
    <glyph glyph-name="B" unicode="B" horiz-adv-x="548" 
d="M499 188c0 28.667 -5.33496 52.999 -16.002 72.999s-23.667 36.833 -39 50.5s-31.5 24 -48.5 31s-31.5 11.833 -43.5 14.5v3c16.667 6 32.334 14 47.001 24s27.334 21.5 38.001 34.5s19 27.333 25 43s9 31.834 9 48.501c0 46 -14 83 -42 111
c-20 20 -45.167 34.833 -75.5 44.5s-68.5 14.5 -114.5 14.5c-28 0 -55 -1.33301 -81 -4s-49.333 -6.33398 -70 -11.001v-665c15.333 -1.33301 33.833 -2.66602 55.5 -3.99902s45.5 -2 71.5 -2c54.667 0 101.334 5.33301 140.001 16s69.667 27.667 93 51
c15.333 15.333 27.666 33.333 36.999 54s14 45 14 73zM420.998 507.999c0 -18 -3.66797 -35 -11.001 -51s-18 -30 -32 -42s-31.333 -21.5 -52 -28.5s-44.334 -10.5 -71.001 -10.5h-118v255c8.66699 2 20.667 3.83301 36 5.5s36.333 2.5 63 2.5c24.667 0 48.334 -2 71.001 -6
s42.334 -11 59.001 -21s30 -23.333 40 -40s15 -38 15 -64zM447.997 185.999c0 -30 -6.33203 -54.668 -18.999 -74.001s-29.167 -34.833 -49.5 -46.5s-43.333 -19.667 -69 -24s-51.834 -6.5 -78.501 -6.5c-20 0 -38 0.333008 -54 1s-29.667 2.33398 -41 5.00098v295h101
c28.667 0 55.667 -2.83301 81 -8.5s47.5 -14.5 66.5 -26.5s34.167 -27.5 45.5 -46.5s17 -41.833 17 -68.5z" />
    <glyph glyph-name="C" unicode="C" horiz-adv-x="640" 
d="M605 27l-15.001 39c-23.333 -11.333 -50.5 -20.166 -81.5 -26.499s-63.167 -9.5 -96.5 -9.5c-53.333 0 -100 7.83301 -140 23.5s-73.667 37 -101 64s-47.833 58.833 -61.5 95.5s-20.5 75.667 -20.5 117c0 45.333 7.16699 87.333 21.5 126s35.666 72 63.999 100
s63.333 49.833 105 65.5s89.834 23.5 144.501 23.5c32 0 62.167 -3.16699 90.5 -9.5s52.5 -14.5 72.5 -24.5l16 41c-11.333 5.33301 -31.666 12.333 -60.999 21s-69.666 13 -120.999 13c-63.333 0 -118.833 -10.167 -166.5 -30.5s-87.5 -47 -119.5 -80
s-56.167 -70.5 -72.5 -112.5s-24.5 -85 -24.5 -129c0 -58.667 10 -109.667 30 -153s46.5 -79.333 79.5 -108s71 -50 114 -64s87.167 -21 132.5 -21c48.667 0 91.167 4.16699 127.5 12.5s64.166 17.166 83.499 26.499z" />
    <glyph glyph-name="D" unicode="D" horiz-adv-x="724" 
d="M686 352c0 44 -6.49902 83.999 -19.499 119.999s-33.5 69.333 -61.5 100c-32 34.667 -74.5 61.334 -127.5 80.001s-115.5 28 -187.5 28c-38 0 -73.667 -1.5 -107 -4.5s-65 -6.5 -95 -10.5v-665c29.333 -2.66699 58.166 -4.33398 86.499 -5.00098s57.833 -1 88.5 -1
c76 0 141.833 10 197.5 30s99.834 47.333 132.501 82c35.333 38 59.666 78.833 72.999 122.5s20 84.834 20 123.501zM636.001 350.999c0 -44 -7.16602 -85.168 -21.499 -123.501s-36.166 -71.666 -65.499 -99.999s-67 -50.833 -113 -67.5s-101 -25 -165 -25
c-27.333 0 -52.5 0.333008 -75.5 1s-42.5 2.33398 -58.5 5.00098v585c17.333 3.33301 38.333 6.33301 63 9s53.334 4 86.001 4c61.333 0 114.166 -7.33301 158.499 -22s80.666 -34.834 108.999 -60.501s49.166 -56 62.499 -91s20 -73.167 20 -114.5z" />
    <glyph glyph-name="E" unicode="E" horiz-adv-x="511" 
d="M491 0v41h-354v294h300v41h-300v257h297v41h-346v-674h403z" />
    <glyph glyph-name="F" unicode="F" horiz-adv-x="510" 
d="M477 327v41h-340v265h317v41h-366v-674h49v327h340z" />
    <glyph glyph-name="G" unicode="G" horiz-adv-x="694" 
d="M631 16l-0.00195312 316.995h-223v-40h174v-231c-15.333 -8 -36.666 -14.667 -63.999 -20s-62 -8 -104 -8c-51.333 0 -97.166 7.5 -137.499 22.5s-74.333 36 -102 63s-48.834 58.833 -63.501 95.5s-22 77 -22 121c0 42 7.16699 81.333 21.5 118
s35.833 68.834 64.5 96.501s64 49.5 106 65.5s90.667 24 146 24c36.667 0 68.334 -3.16699 95.001 -9.5s50.334 -14.166 71.001 -23.499l16 40c-14 6.66699 -37 14 -69 22s-69 12 -111 12c-68 0 -126.5 -10.5 -175.5 -31.5s-89.5 -48 -121.5 -81s-55.667 -69.833 -71 -110.5
s-23 -80.667 -23 -120c0 -51.333 8.83301 -98.666 26.5 -141.999s41.5 -79 71.5 -107c38 -35.333 79.333 -60.166 124 -74.499s93 -21.5 145 -21.5c38.667 0 73.334 2.66699 104.001 8s56.667 11.333 78 18c9.33301 2.66699 17.666 2.83398 24.999 0.500977
s13.666 -3.5 18.999 -3.5z" />
    <glyph glyph-name="H" unicode="H" horiz-adv-x="696" 
d="M608 0v674h-49v-295h-422v295h-49v-674h49v338h422v-338h49z" />
    <glyph glyph-name="I" unicode="I" horiz-adv-x="225" 
d="M137 0v674h-49v-674h49z" />
    <glyph glyph-name="J" unicode="J" horiz-adv-x="378" 
d="M270 220l-0.00195312 453.999h-49v-441c0 -40 -3.33301 -73 -10 -99s-16.167 -46.667 -28.5 -62s-27.666 -26.166 -45.999 -32.499s-39.166 -9.5 -62.499 -9.5c-18 0 -34.167 1.66699 -48.5 5s-26.166 7.33301 -35.499 12l-12 -40c9.33301 -4.66699 23.166 -9 41.499 -13
s36.5 -6 54.5 -6c24 0 47.667 3.33301 71 10s44.333 18.5 63 35.5s33.667 40.5 45 70.5s17 68.667 17 116z" />
    <glyph glyph-name="K" unicode="K" horiz-adv-x="540" 
d="M563 0l-314 387l284 287l-47 10l-284 -287l-30 -31.5c-10.667 -11 -21 -23.167 -31 -36.5h-4v345h-49v-674h49v278l78 78l297 -376z" />
    <glyph glyph-name="L" unicode="L" horiz-adv-x="490" 
d="M471 0v109h-39v-68h-295v633h-49v-674h383z" />
    <glyph glyph-name="M" unicode="M" horiz-adv-x="845" 
d="M780 0l-48 674.001h-58l-170 -403c-19.333 -44.667 -35.666 -84.334 -48.999 -119.001s-24.666 -66.334 -33.999 -95.001h-2c-20 60.667 -46.667 132.334 -80 215.001l-162 402h-56l-54 -674l48 -10l24 318c2 28 3.83301 56.333 5.5 85l5 83.5
c1.66699 27 3 52.833 4 77.5s1.83301 46.667 2.5 66h2c11.333 -36 24.666 -74.667 39.999 -116s33.666 -88.333 54.999 -141l146 -363h37l156 368l56.5 137.5l44.5 114.5h2c0 -18 0.5 -39.167 1.5 -63.5s2.33301 -50 4 -77s3.5 -54.5 5.5 -82.5s3.66699 -54.333 5 -79
l21 -328z" />
    <glyph glyph-name="N" unicode="N" horiz-adv-x="706" 
d="M618 0l0.000976562 674h-48v-348c0 -52 0.5 -98.833 1.5 -140.5s3.16699 -82.167 6.5 -121.5l-2 -2c-17.333 30 -36.833 59.833 -58.5 89.5l-78.5 107.5l-305 415h-46v-674h48v360c0 50 -0.333008 94.333 -1 133s-2.33398 77 -5.00098 115l3 2
c18 -30 39.5 -62.5 64.5 -97.5l80.5 -111.5l295 -401h45z" />
    <glyph glyph-name="O" unicode="O" horiz-adv-x="753" 
d="M715 346c0 48.667 -8.16504 93.6699 -24.498 135.003s-39.333 77.166 -69 107.499s-65 54.166 -106 71.499s-86.167 26 -135.5 26c-48 0 -92.833 -8.66699 -134.5 -26s-77.834 -41.833 -108.501 -73.5s-54.834 -69.5 -72.501 -113.5s-26.5 -92.333 -26.5 -145
c0 -49.333 8.5 -94.833 25.5 -136.5s40.5 -77.5 70.5 -107.5s65.5 -53.5 106.5 -70.5s85.5 -25.5 133.5 -25.5c44 0 86.5 7.66699 127.5 23s77.333 38.166 109 68.499s57 67.833 76 112.5s28.5 96 28.5 154zM663.002 342.003c0 -44.667 -6.66992 -86.167 -20.0029 -124.5
s-32.5 -71.5 -57.5 -99.5s-55.5 -50 -91.5 -66s-76.333 -24 -121 -24c-44 0 -83.667 8.33301 -119 25s-65.166 38.834 -89.499 66.501s-43.166 59.667 -56.499 96s-20 74.5 -20 114.5c0 41.333 6 81.166 18 119.499s30.167 72 54.5 101s54.5 52.167 90.5 69.5s78 26 126 26
s89.833 -9 125.5 -27s65.334 -41.5 89.001 -70.5s41.5 -61.5 53.5 -97.5s18 -72.333 18 -109zM417.999 342.003c0 13.333 -3.83105 24.5 -11.498 33.5s-17.834 13.5 -30.501 13.5s-22.834 -4.5 -30.501 -13.5s-11.834 -20.167 -12.501 -33.5c0 -12 3.83301 -22.667 11.5 -32
s17.834 -14 30.501 -14c13.333 0 23.833 4.66699 31.5 14s11.5 20 11.5 32z" />
    <glyph glyph-name="P" unicode="P" horiz-adv-x="548" 
d="M497 489c0 28 -4.66895 52.834 -14.002 74.501s-22.666 40.5 -39.999 56.5c-20 19.333 -46.167 34.166 -78.5 44.499s-71.166 15.5 -116.499 15.5c-31.333 0 -60.5 -1.33301 -87.5 -4s-51.167 -5.66699 -72.5 -9v-667h49v287c14 -4.66699 29.167 -7.5 45.5 -8.5
s33.166 -1.5 50.499 -1.5c44.667 0 85.334 6.16699 122.001 18.5s66.667 30.5 90 54.5c34.667 34.667 52 81 52 139zM447.998 483.001c0 -52 -17.999 -92.502 -53.999 -121.502s-87.667 -43.5 -155 -43.5c-19.333 0 -37.666 0.833008 -54.999 2.5s-33 4.83398 -47 9.50098
v300c10 2 24.5 4 43.5 6s41.167 3 66.5 3c27.333 0 53.166 -2.66699 77.499 -8s45.666 -14.166 63.999 -26.499s32.833 -28.5 43.5 -48.5s16 -44.333 16 -73z" />
    <glyph glyph-name="Q" unicode="Q" horiz-adv-x="753" 
d="M826 -65l-41.999 17.001c-4 -17.333 -10.5 -35.833 -19.5 -55.5s-22.167 -38.167 -39.5 -55.5c-15.333 -14.667 -30.166 -25.5 -44.499 -32.5s-28 -11 -41 -12s-25.167 0.833008 -36.5 5.5s-21.333 11.334 -30 20.001c-19.333 19.333 -27.833 41.166 -25.5 65.499
s12.5 54.166 30.5 89.499c10 19.333 17.333 37.333 22 54s7.33398 32.334 8.00098 47.001c32.667 30 58.667 67.333 78 112s29 96.667 29 156c0 48.667 -8.16699 93.667 -24.5 135s-39.333 77.166 -69 107.499s-65 54.166 -106 71.499s-86.167 26 -135.5 26
c-48 0 -92.833 -8.66699 -134.5 -26s-77.834 -41.833 -108.501 -73.5s-54.834 -69.5 -72.501 -113.5s-26.5 -92.333 -26.5 -145c0 -49.333 8.5 -94.833 25.5 -136.5s40.5 -77.5 70.5 -107.5s65.5 -53.5 106.5 -70.5s85.5 -25.5 133.5 -25.5c64.667 0 124.667 16.333 180 49
c-5.33301 -16 -13.333 -34.333 -24 -55c-20.667 -42 -31 -78 -31 -108c0 -30.667 12.667 -58.667 38 -84c14 -14 29.667 -24.167 47 -30.5s35.5 -8.5 54.5 -6.5s38.5 8 58.5 18s39.667 24.667 59 44c18.667 18 33.667 37.333 45 58s19.666 41.334 24.999 62.001z
M663.001 342.001c0 -41.333 -5.5 -79.665 -16.5 -114.998s-27.167 -66.666 -48.5 -93.999c-5.33301 10.667 -12 20 -20 28c-12 12 -26.167 21.333 -42.5 28s-33.5 9.66699 -51.5 9s-36.667 -5.33398 -56 -14.001s-38 -22.334 -56 -41.001
c-14.667 -14.667 -27.834 -32.167 -39.501 -52.5s-20.167 -38.833 -25.5 -55.5c-34 8 -64.667 21.333 -92 40s-50.333 41.167 -69 67.5s-33 55.5 -43 87.5s-15 65.333 -15 100c0 41.333 6 81.166 18 119.499s30.167 72 54.5 101s54.5 52.167 90.5 69.5s78 26 126 26
s89.833 -9 125.5 -27s65.334 -41.5 89.001 -70.5s41.5 -61.5 53.5 -97.5s18 -72.333 18 -109zM561.001 94.002c-24 -21.333 -51.832 -37.666 -83.499 -48.999s-66.5 -17 -104.5 -17h-11c-3.33301 0 -6.66602 0.333008 -9.99902 1c4.66699 13.333 11.5 28.5 20.5 45.5
s20.5 32.5 34.5 46.5c23.333 22.667 47.166 34.167 71.499 34.5s44.5 -7.83398 60.5 -24.501c11.333 -12 18.666 -24.333 21.999 -37z" />
    <glyph glyph-name="R" unicode="R" horiz-adv-x="549" 
d="M520 0c-8 14.667 -15.999 36.334 -23.999 65.001s-18.333 69.667 -31 123c-8 34 -20.833 63 -38.5 87s-40.5 40.667 -68.5 50v2c41.333 12.667 74.833 33.834 100.5 63.501s38.5 66.834 38.5 111.501c0 23.333 -4.33301 45.5 -13 66.5s-20.334 38.167 -35.001 51.5
c-20.667 20 -46.667 35 -78 45s-71 15 -119 15c-26 0 -54 -1.33301 -84 -4s-56.667 -6.33398 -80 -11.001v-665h49v309h128c46 0 81 -12.333 105 -37s41.667 -61.334 53 -110.001l13.5 -61.5l12 -54c3.66699 -16.333 7.16699 -30.333 10.5 -42s6.33301 -19.834 9 -24.501z
M448.001 494c0 -44 -16.166 -79.165 -48.499 -105.498s-76.5 -39.5 -132.5 -39.5h-130v280c9.33301 2.66699 23.666 5.16699 42.999 7.5s43 3.5 71 3.5c26.667 0 52 -2.5 76 -7.5s45 -13.333 63 -25s32.167 -26.834 42.5 -45.501s15.5 -41.334 15.5 -68.001z" />
    <glyph glyph-name="S" unicode="S" horiz-adv-x="505" 
d="M455 175c0 27.333 -3.99902 50.9951 -11.999 70.9951s-20 37.667 -36 53s-35.833 28.833 -59.5 40.5s-50.834 22.5 -81.501 32.5c-54.667 17.333 -93.667 37.333 -117 60s-35 52 -35 88c0 13.333 2.66699 27.333 8 42s14.166 28.334 26.499 41.001s28.666 23 48.999 31
s45.5 12 75.5 12c33.333 0 61.5 -4.16699 84.5 -12.5s39.167 -15.833 48.5 -22.5l19 41c-13.333 8.66699 -32.666 16.5 -57.999 23.5s-56 10.5 -92 10.5c-31.333 0 -59.666 -4.33301 -84.999 -13s-47.333 -20.834 -66 -36.501s-33 -34 -43 -55s-15 -43.833 -15 -68.5
c0 -44 14.667 -80.667 44 -110s77.666 -54.666 144.999 -75.999c28 -9.33301 51.667 -19 71 -29s35 -21.333 47 -34s20.667 -26.667 26 -42s8 -32.666 8 -51.999c0 -42 -15.5 -76 -46.5 -102s-73.833 -39 -128.5 -39c-32.667 0 -63.167 4.5 -91.5 13.5
s-53.5 21.167 -75.5 36.5l-19 -41c10 -7.33301 22 -14.166 36 -20.499s29 -11.666 45 -15.999s32.5 -7.66602 49.5 -9.99902s33.5 -3.5 49.5 -3.5c40 0 74.5 5.33301 103.5 16s52.833 24.834 71.5 42.501s32.334 37.667 41.001 60s13 45.166 13 68.499z" />
    <glyph glyph-name="T" unicode="T" horiz-adv-x="510" 
d="M531 633v41h-551v-41h251v-633h49v633h251z" />
    <glyph glyph-name="U" unicode="U" horiz-adv-x="691" 
d="M603 289l0.000976562 385.001h-49v-389c0 -44.667 -5.33301 -83 -16 -115s-25.5 -58.5 -44.5 -79.5s-41.5 -36.5 -67.5 -46.5s-54.667 -15 -86 -15c-28 0 -54.333 4.83301 -79 14.5s-46.167 24.667 -64.5 45s-32.833 46.666 -43.5 78.999s-16 71.5 -16 117.5v389h-49
v-390c0 -55.333 6.83301 -101.833 20.5 -139.5s32 -68 55 -91s49.5 -39.667 79.5 -50s61.333 -15.5 94 -15.5c36 0 70 5.5 102 16.5s60.167 28.5 84.5 52.5s43.666 55.167 57.999 93.5s21.5 84.5 21.5 138.5z" />
    <glyph glyph-name="V" unicode="V" horiz-adv-x="545" 
d="M566 674l-52.999 10l-150 -382l-54.5 -136.5c-17 -41 -31.167 -79.5 -42.5 -115.5h-2c-10.667 35.333 -23.334 73.333 -38.001 114l-49 139l-133 381l-52 -10l246 -674h48z" />
    <glyph glyph-name="W" unicode="W" horiz-adv-x="881" 
d="M883 674l-51 10.001l-124 -398l-38.5 -122c-11.667 -36.667 -21.5 -71 -29.5 -103h-2c-5.33301 30 -13.5 65 -24.5 105l-33.5 122l-109 386h-48l-124 -387l-40 -125c-12.667 -39.333 -22 -73 -28 -101h-2c-7.33301 28.667 -16.5 62.667 -27.5 102l-33.5 124l-107 397
l-50 -10l191 -674h48l126 388l42 132c11.333 35.333 20 67.666 26 96.999h2c2.66699 -15.333 5.66699 -31 9 -47s7.33301 -33.167 12 -51.5l16 -60l20 -72.5l109 -386h48z" />
    <glyph glyph-name="X" unicode="X" horiz-adv-x="600" 
d="M568 0l-242 344l242 330h-59l-128 -183l-45 -64.5l-36 -52.5h-2l-34.5 52l-43.5 66l-120 182h-58l226 -333l-236 -341h58l105 158l33.5 50l26 39l20.5 31.5l18 28.5h2l41.5 -60.5l61.5 -87.5l112 -159h58z" />
    <glyph glyph-name="Y" unicode="Y" horiz-adv-x="541" 
d="M548 674l-56.002 10.001l-131 -220l-45.5 -75c-14.333 -22.667 -27.166 -44.667 -38.499 -66h-2c-12.667 23.333 -25.667 45.666 -39 66.999s-27.666 46 -42.999 74l-125 220l-56 -10l236 -386v-288h49v286z" />
    <glyph glyph-name="Z" unicode="Z" horiz-adv-x="605" 
d="M580 41h-181h-298v3l462 596v34h-488l-10 -41h433v-3l-461 -597v-33h533z" />
    <glyph glyph-name="bracketleft" unicode="[" horiz-adv-x="270" 
d="M275 -112v38h-140v722h140v38h-185v-798h185z" />
    <glyph glyph-name="backslash" unicode="\" horiz-adv-x="370" 
d="M394 -40l-354 726h-50l354 -726h50z" />
    <glyph glyph-name="bracketright" unicode="]" horiz-adv-x="270" 
d="M180 -112v798h-185v-38h140v-722h-140v-38h185z" />
    <glyph glyph-name="asciicircum" unicode="^" horiz-adv-x="596" 
d="M526 196l-205 454h-46l-205 -454h47l180 409h2l180 -409h47z" />
    <glyph glyph-name="underscore" unicode="_" horiz-adv-x="500" 
d="M500 -273v50h-500v-50h500z" />
    <glyph glyph-name="grave" unicode="`" horiz-adv-x="300" 
d="M194 542l-91 140h-74l127 -140h38z" />
    <glyph glyph-name="a" unicode="a" horiz-adv-x="496" 
d="M434 0c-3.33301 19.333 -7.16895 38.668 -11.502 58.001s-6.5 38.666 -6.5 57.999v174c0 18.667 -1.83301 39.834 -5.5 63.501s-11.667 45.667 -24 66s-30.5 37.5 -54.5 51.5s-56.333 21 -97 21c-13.333 0 -27 -1 -41 -3l1.5 -8.5c1 -5.66699 2.5 -16.167 4.5 -31.5
c5.33301 0.666992 10.5 1.16699 15.5 1.5s10.167 0.5 15.5 0.5c32 0 57 -5.66699 75 -17s31.5 -24.833 40.5 -40.5s14.667 -31.667 17 -48s3.5 -28.833 3.5 -37.5v-11c-112 1.33301 -194.167 -14.167 -246.5 -46.5s-78.5 -75.833 -78.5 -130.5
c0 -18 4.16699 -36.333 12.5 -55s21.833 -34.667 40.5 -48c9.33301 -6.66699 19.666 -12.334 30.999 -17.001s24 -8 38 -10h2c4.66699 -0.666992 9.33398 -1.16699 14.001 -1.5s9.66699 -0.5 15 -0.5c22 0 42.333 2.66699 61 8s35.334 12.333 50.001 21s27.334 18 38.001 28
s19 19.667 25 29h2l18 -84zM366.997 154.002c0 -8.66699 -1.99902 -18 -5.99902 -28c-4.66699 -10.667 -11.334 -21.834 -20.001 -33.501s-19.667 -22.167 -33 -31.5s-29 -17.166 -47 -23.499s-38.667 -9.5 -62 -9.5c-28 0 -52.5 8.33301 -73.5 25s-31.5 42 -31.5 76
c0 28 8.33301 50.5 25 67.5s38 30 64 39s55.167 14.833 87.5 17.5s64.5 3.66699 96.5 3v-102z" />
    <glyph glyph-name="b" unicode="b" horiz-adv-x="613" 
d="M570 247c0 33.333 -5.50195 64.8311 -16.502 94.498s-26.5 55.667 -46.5 78s-44.167 40 -72.5 53s-60.166 19.5 -95.499 19.5c-50 0 -91.5 -10.5 -124.5 -31.5s-58.167 -47.5 -75.5 -79.5h-2v335h-49v-600c0 -19.333 -0.333008 -38.666 -1 -57.999
s-1.66699 -38.666 -3 -57.999h45l3 93h2c23.333 -38 51.5 -65 84.5 -81s70.5 -24 112.5 -24c30 0 59.167 5.5 87.5 16.5s53.833 27.333 76.5 49s40.834 48.667 54.501 81s20.5 69.833 20.5 112.5zM520.998 244.998c0 -32.667 -4.66895 -62.3311 -14.002 -88.998
s-22.5 -49.5 -39.5 -68.5s-37.667 -33.667 -62 -44s-51.833 -15.5 -82.5 -15.5c-23.333 0 -44.833 3.5 -64.5 10.5s-37.334 16.167 -53.001 27.5s-29 24.666 -40 39.999s-18.833 31.333 -23.5 48c-3.33301 13.333 -5 25.666 -5 36.999v83c0 9.33301 0.833008 17.5 2.5 24.5
s3.5 13.5 5.5 19.5c6.66699 22 16.334 41.5 29.001 58.5s27.167 31 43.5 42s34 19.333 53 25s38.5 8.5 58.5 8.5c30 0 56.833 -5.5 80.5 -16.5s43.834 -26 60.501 -45s29.334 -41 38.001 -66s13 -51.5 13 -79.5z" />
    <glyph glyph-name="c" unicode="c" horiz-adv-x="498" 
d="M462 458c-10 7.33301 -27.8311 14.833 -53.498 22.5s-56.5 11.5 -92.5 11.5c-38.667 0 -74.667 -6 -108 -18s-62.166 -29.167 -86.499 -51.5s-43.5 -49.5 -57.5 -81.5s-21 -68 -21 -108c0 -34.667 6 -67 18 -97s29.167 -56 51.5 -78s49.166 -39.167 80.499 -51.5
s66 -18.5 104 -18.5c41.333 0 75.833 4.5 103.5 13.5s46.834 16.167 57.501 21.5l-14 39c-14 -6 -32.167 -12.833 -54.5 -20.5s-50.833 -11.5 -85.5 -11.5c-30.667 0 -58.834 5 -84.501 15s-48 24.167 -67 42.5s-33.833 40.333 -44.5 66s-16 54.167 -16 85.5
c0 29.333 4.83301 56.833 14.5 82.5s23.667 48 42 67s41.166 34 68.499 45s59 16.5 95 16.5c31.333 0 57.666 -3.33301 78.999 -10s39 -14 53 -22z" />
    <glyph glyph-name="d" unicode="d" horiz-adv-x="578" 
d="M532 253c0 36 -3.83496 70.002 -11.502 102.002s-18.834 62.667 -33.501 92c-11.333 23.333 -24.833 45.666 -40.5 66.999s-33.167 41.666 -52.5 60.999c-8.66699 9.33301 -17.667 18 -27 26s-19 15.667 -29 23l-35 26c-21.333 16 -44.666 30.5 -69.999 43.5
s-50.666 24.5 -75.999 34.5l-20 -40c22 -8 43.833 -17.167 65.5 -27.5s40.5 -21.166 56.5 -32.499l37 -25c38 -25.333 69.667 -53.166 95 -83.499s47.333 -61.833 66 -94.5l-2 -3c-28.667 28.667 -56.667 47.5 -84 56.5s-55.333 13.5 -84 13.5c-30 0 -59.5 -6 -88.5 -18
s-55 -29.167 -78 -51.5s-41.5 -49.5 -55.5 -81.5s-21 -68 -21 -108c0 -35.333 5.83301 -67.833 17.5 -97.5s28 -55.5 49 -77.5s46.333 -39.167 76 -51.5s62.167 -18.5 97.5 -18.5c30 0 59.667 5 89 15s55.833 25.667 79.5 47s42.834 48.666 57.501 81.999
s22 73.666 22 120.999zM480.998 246.002c0 -35.333 -5.16504 -66.6689 -15.498 -94.002s-24.5 -50.166 -42.5 -68.499s-39 -32.166 -63 -41.499s-50 -14 -78 -14c-24 0 -47.333 4.66699 -70 14s-42.834 22.666 -60.501 39.999s-32 38.833 -43 64.5s-16.5 55.167 -16.5 88.5
c0 24.667 3.83301 49.834 11.5 75.501s19.5 49 35.5 70s36.333 38.167 61 51.5s53.667 20 87 20c34.667 0 63.667 -6 87 -18s42.666 -25.333 57.999 -40c18 -17.333 30.667 -37 38 -59s11 -51.667 11 -89z" />
    <glyph glyph-name="e" unicode="e" horiz-adv-x="537" 
d="M492 270c0 16 -2.5 36.5 -7.5 61.5s-15 49.5 -30 73.5s-36.167 44.5 -63.5 61.5s-63.333 25.5 -108 25.5c-34 0 -65.667 -6.16699 -95 -18.5s-54.666 -29.833 -75.999 -52.5s-38.166 -50.334 -50.499 -83.001s-18.5 -69.334 -18.5 -110.001
c0 -34.667 5.83301 -66.667 17.5 -96s28.167 -54.666 49.5 -75.999s47.166 -38 77.499 -50s64.166 -18 101.499 -18c12 0 23.5 0.333008 34.5 1s21.167 1.66699 30.5 3l-4 41c-16 -2 -34.667 -3 -56 -3c-28.667 0 -55.334 4.33301 -80.001 13s-46.167 21.834 -64.5 39.501
s-32.666 39.5 -42.999 65.5s-15.5 56.667 -15.5 92h399c1.33301 4 2 8 2 12v18zM441 279h-347.001c2.66699 18 8 37.167 16 57.5s19.167 39 33.5 56s32.5 31.167 54.5 42.5s48.333 17 79 17c36 0 64.833 -6.66699 86.5 -20s38.334 -29.333 50.001 -48
s19.167 -37.667 22.5 -57s5 -35.333 5 -48z" />
    <glyph glyph-name="f" unicode="f" horiz-adv-x="285" 
d="M339 710c-10.667 6.66699 -27 11.998 -49 15.998c-4.66699 0.666992 -9.5 1.16699 -14.5 1.5s-10.167 0.5 -15.5 0.5c-45.333 0 -83.333 -14.333 -114 -43c-20.667 -19.333 -35.5 -44.166 -44.5 -74.499s-13.5 -66.166 -13.5 -107.499v-23h-73l-10 -39h83v-526
c0 -14 -1.5 -28 -4.5 -42s-6.5 -26.5 -10.5 -37.5s-7.5 -19.833 -10.5 -26.5l-4.5 -10l49 -10l4.5 10.5c3 7 6.5 16.5 10.5 28.5s7.5 25.667 10.5 41s4.5 31 4.5 47v525h131l10 39h-141v24c0 24 1.66699 47.167 5 69.5s9.33301 41.833 18 58.5s20.667 30 36 40
s35.333 15 60 15c16 0 29.333 -1.5 40 -4.5s19.667 -6.5 27 -10.5z" />
    <glyph glyph-name="g" unicode="g" horiz-adv-x="378" 
d="M357 441l0.00292969 43.001l-180 -2h-2c-20.667 0 -41 -3.83301 -61 -11.5s-37.833 -18.834 -53.5 -33.501s-28.334 -32.5 -38.001 -53.5s-14.5 -44.5 -14.5 -70.5c0 -24.667 4.66699 -47.167 14 -67.5s22.333 -38.166 39 -53.499l-4 -16.5
c-2 -8.33301 -3.83301 -17.5 -5.5 -27.5s-3 -20 -4 -30s-0.833008 -17.333 0.5 -22c3.33301 -16.667 8.16602 -29 14.499 -37s14.666 -14 24.999 -18s23 -7.5 38 -10.5s33.5 -7.83301 55.5 -14.5c38 -12 66.333 -25.833 85 -41.5s28 -37.5 28 -65.5
c0 -24.667 -9.66699 -46.334 -29 -65.001s-50 -28 -92 -28c-24 0 -46.333 3.66699 -67 11s-38.334 15.666 -53.001 24.999l-18 -42c18 -10.667 38.5 -19.167 61.5 -25.5s47.167 -9.5 72.5 -9.5c27.333 0 51.666 3.5 72.999 10.5s39.5 16.667 54.5 29s26.333 27 34 44
s11.5 35.167 11.5 54.5c0 36 -10.833 64.5 -32.5 85.5s-54.5 39.167 -98.5 54.5c-18 6 -34.333 10.5 -49 13.5s-27.167 6.33301 -37.5 10s-18.5 8.83398 -24.5 15.501s-9 16.667 -9 30c0 0.666992 0.5 4 1.5 10s2 13 3 21s1.16699 13.667 0.5 17c22.667 -12 49 -18 79 -18
c18.667 0 37.834 3.16699 57.501 9.5s37.667 16.333 54 30s29.833 31 40.5 52s16 46.167 16 75.5c0.666992 26 -4.66602 50.5 -15.999 73.5s-27.333 42.167 -48 57.5zM301.003 317.001c0 -22 -3.49805 -41.001 -10.498 -57.001s-16.333 -29.333 -28 -40s-25 -18.667 -40 -24
s-30.5 -8 -46.5 -8c-14.667 0 -29.334 2.66699 -44.001 8s-28 13.333 -40 24s-21.833 23.834 -29.5 39.501s-11.5 34.167 -11.5 55.5c0 16 2.5 31.833 7.5 47.5s12.833 29.667 23.5 42s23.667 22.333 39 30s33.666 11.5 54.999 11.5c22 0 40.833 -4.16699 56.5 -12.5
s28.667 -18.833 39 -31.5s17.833 -26.5 22.5 -41.5s7 -29.5 7 -43.5z" />
    <glyph glyph-name="h" unicode="h" horiz-adv-x="591" 
d="M538 0c-0.666992 1.33301 -3.16602 7 -7.49902 17s-9.16602 23 -14.499 39s-8 30.333 -8 43v175c0 32.667 -3.5 60.834 -10.5 84.501s-16.167 43.667 -27.5 60s-24 29.333 -38 39s-28 17 -42 22s-27.167 8.33301 -39.5 10s-22.166 2.5 -29.499 2.5
c-19.333 0 -38.333 -2.83301 -57 -8.5s-35.667 -13.167 -51 -22.5c-16.667 -9.33301 -31.334 -20.833 -44.001 -34.5s-22.667 -28.167 -30 -43.5h-2v333h-49v-716h49v285c0 20.667 2.66699 37.667 8 51c6 14.667 14.167 28.834 24.5 42.501s22.666 25.667 36.999 36
s30 18.666 47 24.999s35.167 9.5 54.5 9.5c25.333 0 47.166 -4.16699 65.499 -12.5s33.5 -19.5 45.5 -33.5c14 -16.667 24.167 -36.334 30.5 -59.001s9.5 -46.667 9.5 -72v-173c0 -16 1.5 -31.167 4.5 -45.5s6.5 -27 10.5 -38s7.5 -19.667 10.5 -26l4.5 -9.5z" />
    <glyph glyph-name="i" unicode="i" horiz-adv-x="225" 
d="M153 632c0 11.333 -3.83301 21.333 -11.5 30s-17.167 13 -28.5 13s-21 -4.33301 -29 -13s-12 -18.667 -12 -30s3.66699 -21.333 11 -30s17 -13 29 -13c12.667 0 22.667 4.33301 30 13s11 18.667 11 30zM137 0v480h-49v-480h49z" />
    <glyph glyph-name="j" unicode="j" horiz-adv-x="230" 
d="M158 632c0 11.333 -3.66797 21.333 -11.001 30s-16.666 13 -27.999 13c-12 0 -22 -4.33301 -30 -13s-12 -18.667 -12 -30c0 -10.667 3.5 -20.5 10.5 -29.5s16.833 -13.5 29.5 -13.5c13.333 0 23.5 4.5 30.5 13.5s10.5 18.833 10.5 29.5zM141.999 35v445h-49v-409
c0 -34 -0.833008 -62.333 -2.5 -85s-4 -41.5 -7 -56.5s-7.16699 -27.333 -12.5 -37s-11.333 -18.167 -18 -25.5c-12 -12.667 -27.5 -22.167 -46.5 -28.5s-40.5 -9.83301 -64.5 -10.5l5 -40c8.66699 0 19 0.833008 31 2.5s24.5 4.66699 37.5 9s25.833 9.83301 38.5 16.5
s23.667 15 33 25c22.667 24 37.5 51.833 44.5 83.5s10.5 68.5 10.5 110.5z" />
    <glyph glyph-name="k" unicode="k" horiz-adv-x="458" 
d="M472 0l-245 282l214 198h-62l-187 -176c-8.66699 -8 -18 -17.333 -28 -28l-25 -27h-2v467h-49v-716h49v201l55 53l229 -274z" />
    <glyph glyph-name="l" unicode="l" horiz-adv-x="255" 
d="M268 34c-12 0 -27.166 3.33398 -45.499 10.001s-33.5 16.334 -45.5 29.001c-7.33301 7.33301 -13.5 15.833 -18.5 25.5s-9 22 -12 37s-5.33301 33.833 -7 56.5s-2.5 51 -2.5 85v439h-49v-475c0 -42 2.5 -79.833 7.5 -113.5s18.833 -62.5 41.5 -86.5
c9.33301 -10 20.166 -18.333 32.499 -25s24.5 -11.834 36.5 -15.501s23 -6.33398 33 -8.00098s18 -2.5 24 -2.5z" />
    <glyph glyph-name="m" unicode="m" horiz-adv-x="897" 
d="M845 0c-0.666992 1.33301 -3.17285 6.99707 -7.50586 16.9971s-9.16602 23 -14.499 39s-8 30.333 -8 43v169c0 50 -6.83301 89.833 -20.5 119.5s-29.834 52.167 -48.501 67.5s-37.667 25.333 -57 30s-34.666 7 -45.999 7c-30 0 -55 -4 -75 -12s-38.667 -19.667 -56 -35
c-9.33301 -8 -18.166 -17.5 -26.499 -28.5s-16.166 -23.833 -23.499 -38.5h-2c-5.33301 15.333 -12.666 29.833 -21.999 43.5s-20.333 25.834 -33 36.501s-27.167 19 -43.5 25s-33.833 9 -52.5 9c-44 0 -79.5 -10 -106.5 -30s-49.167 -45 -66.5 -75h-2l-4 93h-46
c1.33301 -19.333 2.33301 -38.666 3 -57.999s1 -38.666 1 -57.999v-364h49v292c0 8.66699 0.833008 17 2.5 25s3.83398 15.333 6.50098 22c5.33301 13.333 12.666 26.666 21.999 39.999s20.333 25.166 33 35.499s27 18.833 43 25.5s33 10 51 10
c40.667 0 72.834 -14.5 96.501 -43.5s35.5 -67.167 35.5 -114.5v-292h49v306c0 9.33301 1 17.833 3 25.5s4.33301 14.834 7 21.501c5.33301 12 12.5 23.833 21.5 35.5s19.5 22 31.5 31s25.333 16.333 40 22s30.334 8.5 47.001 8.5c46 0 81 -16.333 105 -49
c11.333 -15.333 20 -34 26 -56s9 -48 9 -78v-17c0 -11.333 0.166992 -25.5 0.5 -42.5s0.5 -35.167 0.5 -54.5v-54c0 -22 2.5 -42.333 7.5 -61s9.66699 -32.667 14 -42s6.83301 -14.666 7.5 -15.999z" />
    <glyph glyph-name="n" unicode="n" horiz-adv-x="591" 
d="M538 0c-0.666992 1.33301 -3.16602 6.99512 -7.49902 16.9951s-9.16602 23 -14.499 39s-8 30.333 -8 43v174c0 33.333 -3.66699 61.833 -11 85.5s-16.666 43.667 -27.999 60s-24 29.333 -38 39s-28 17 -42 22s-27 8.33301 -39 10s-21.667 2.5 -29 2.5
c-22 0 -42.667 -2.83301 -62 -8.5s-36.833 -13.5 -52.5 -23.5s-29.5 -21.5 -41.5 -34.5s-21.667 -26.833 -29 -41.5h-2l-4 96h-46c1.33301 -19.333 2.33301 -38.666 3 -57.999s1 -38.666 1 -57.999v-364h49v293c0 7.33301 0.833008 15 2.5 23s3.5 14.667 5.5 20
c5.33301 15.333 13.333 29.833 24 43.5s23 25.834 37 36.501s29.667 19 47 25s35.666 9 54.999 9c27.333 0 50.666 -4.83301 69.999 -14.5s35 -22.667 47 -39s20.667 -35.166 26 -56.499s8 -43.666 8 -66.999v-174c0 -22 2.66699 -42.5 8 -61.5s10.166 -33 14.499 -42
l7.5 -15.5z" />
    <glyph glyph-name="o" unicode="o" horiz-adv-x="591" 
d="M548 246c0 34 -5.83105 66 -17.498 96s-28.334 56.167 -50.001 78.5s-48 39.833 -79 52.5s-65.833 19 -104.5 19c-33.333 0 -65.333 -5.83301 -96 -17.5s-57.667 -28.667 -81 -51s-42 -49.333 -56 -81s-21 -67.5 -21 -107.5c0 -35.333 6.16699 -68.166 18.5 -98.499
s29.5 -56.5 51.5 -78.5s48.167 -39.167 78.5 -51.5s63.5 -18.5 99.5 -18.5c29.333 0 59.166 5 89.499 15s58 25.5 83 46.5s45.333 47.667 61 80s23.5 71.166 23.5 116.499zM498.002 243c0 -34.667 -5.83398 -65.334 -17.501 -92.001s-27 -49.167 -46 -67.5
s-41 -32.166 -66 -41.499s-50.833 -14 -77.5 -14c-26 0 -51 4.66699 -75 14s-45.167 23 -63.5 41s-33.166 40 -44.499 66s-17 55.667 -17 89c0 28 4.33301 54.833 13 80.5s21.5 48.5 38.5 68.5s38.333 35.833 64 47.5s55.5 17.5 89.5 17.5
c35.333 0 65.666 -6.66699 90.999 -20s46.333 -30.166 63 -50.499s28.834 -42.833 36.501 -67.5s11.5 -48.334 11.5 -71.001zM333.001 242c0 12 -3.33203 21.833 -9.99902 29.5s-15.667 11.5 -27 11.5s-20.333 -3.83301 -27 -11.5s-10.334 -17.5 -11.001 -29.5
c0 -10.667 3.33301 -20 10 -28s15.667 -12 27 -12s20.5 4 27.5 12s10.5 17.333 10.5 28z" />
    <glyph glyph-name="p" unicode="p" horiz-adv-x="613" 
d="M570 250c0 32.667 -5.49902 63.668 -16.499 93.001s-26.5 55 -46.5 77s-44.167 39.5 -72.5 52.5s-60.166 19.5 -95.499 19.5c-50 0 -91.667 -10.5 -125 -31.5s-59 -47.833 -77 -80.5h-2l-4 100h-47c1.33301 -26 2.33301 -51.833 3 -77.5s1 -51.5 1 -77.5v-28
c0 -17.333 0.166992 -41.833 0.5 -73.5s0.5 -65.834 0.5 -102.501v-113v-108c0 -16 -2.66699 -32 -8 -48s-10.333 -28.333 -15 -37s-7.33398 -13.667 -8.00098 -15l49 -10l4.5 9.5c3 6.33301 6.5 14.833 10.5 25.5s7.5 22.5 10.5 35.5s4.5 26.167 4.5 39.5v186h2
c20 -34 46.833 -58.833 80.5 -74.5s69.5 -23.5 107.5 -23.5c32.667 0 63.667 5.83301 93 17.5s55.166 28.5 77.499 50.5s40 49.333 53 82s19.5 70 19.5 112zM521.001 248.001c0 -33.333 -4.66797 -63.6641 -14.001 -90.9971s-22.5 -50.5 -39.5 -69.5
s-37.667 -33.667 -62 -44s-51.833 -15.5 -82.5 -15.5c-22.667 0 -43.834 3.5 -63.501 10.5s-37.334 16.167 -53.001 27.5s-29.167 24.666 -40.5 39.999s-19.333 31.666 -24 48.999c-3.33301 13.333 -5 26 -5 38v85c0 6.66699 1 13.667 3 21l6 21
c6.66699 22 16.334 41.167 29.001 57.5s27 30 43 41s33.5 19.333 52.5 25s38.5 8.5 58.5 8.5c30 0 56.833 -5.5 80.5 -16.5s43.834 -25.833 60.501 -44.5s29.334 -40.334 38.001 -65.001s13 -50.667 13 -78z" />
    <glyph glyph-name="q" unicode="q" horiz-adv-x="600" 
d="M518 480h-45.001l-3 -90h-2c-5.33301 11.333 -12.833 23 -22.5 35s-22 23 -37 33s-32.333 18.167 -52 24.5s-42.167 9.5 -67.5 9.5c-27.333 0 -55.5 -4.83301 -84.5 -14.5s-55.5 -25 -79.5 -46s-43.667 -48.167 -59 -81.5s-23 -73.666 -23 -120.999
c0 -30.667 5 -59.667 15 -87s23.667 -51.666 41 -72.999c20.667 -24.667 45.834 -44.334 75.501 -59.001s62.5 -22 98.5 -22c24.667 0 47.167 3 67.5 9s38.5 13.833 54.5 23.5s29.667 20.667 41 33s20.333 25.166 27 38.499h2v-292h49v564v3v17
c0 3.33301 0.166992 6.33301 0.5 9s0.5 5.66699 0.5 9v1v9c0 22 1 44.667 3 68zM464.999 191c0 -7.33301 -1.00586 -15.334 -3.00586 -24.001s-4.66699 -16.667 -8 -24c-13.333 -34 -35.333 -61.667 -66 -83s-65.667 -32 -105 -32c-25.333 0 -48.166 3.5 -68.499 10.5
s-38.166 16.833 -53.499 29.5c-23.333 20 -40.666 45 -51.999 75s-17 61 -17 93c0 32.667 4.83301 62.334 14.5 89.001s23.167 49.5 40.5 68.5s37.833 33.5 61.5 43.5s49.834 15 78.501 15c22.667 0 43.334 -3.16699 62.001 -9.5s35.334 -14.833 50.001 -25.5s27 -23 37 -37
s17.667 -29 23 -45c4 -14 6 -29.667 6 -47v-97z" />
    <glyph glyph-name="r" unicode="r" horiz-adv-x="320" 
d="M304 444l-0.000976562 45c-7.33301 2 -15 3 -23 3c-36 0 -66.5 -10.833 -91.5 -32.5s-43.5 -49.5 -55.5 -83.5h-3l-2 104h-45c1.33301 -26 2.33301 -51.833 3 -77.5s1 -51.5 1 -77.5v-325h49v260c0 16 1.66699 31.667 5 47c8 42 23.833 75.667 47.5 101s52.5 38 86.5 38
h14c4.66699 0 9.33398 -0.666992 14.001 -2z" />
    <glyph glyph-name="s" unicode="s" horiz-adv-x="408" 
d="M357 126c0 36 -10.8301 64.502 -32.4971 85.502s-54.5 39.167 -98.5 54.5c-18 6 -33.833 12 -47.5 18s-25.334 12.667 -35.001 20s-17 16 -22 26s-7.5 21.667 -7.5 35c0 23.333 8.5 43.5 25.5 60.5s42.167 25.5 75.5 25.5c28 0 50.667 -3.83301 68 -11.5
s30 -14.167 38 -19.5l19 40c-14 9.33301 -31 17 -51 23s-41.667 9 -65 9c-26 0 -48.833 -3.66699 -68.5 -11s-36.167 -17.333 -49.5 -30s-23.333 -27 -30 -43s-10 -32.333 -10 -49c0 -58.667 43.333 -102 130 -130c38 -12 66.333 -25.833 85 -41.5s28 -37.5 28 -65.5
c0 -24.667 -9.66699 -46.334 -29 -65.001s-50 -28 -92 -28c-24 0 -46.333 3.66699 -67 11s-38.334 15.666 -53.001 24.999l-18 -42c18 -10.667 38.5 -19.167 61.5 -25.5s47.167 -9.5 72.5 -9.5c27.333 0 51.666 3.5 72.999 10.5s39.5 16.667 54.5 29s26.333 27 34 44
s11.5 35.167 11.5 54.5z" />
    <glyph glyph-name="t" unicode="t" horiz-adv-x="339" 
d="M309 480l-152 0.00195312v106l-49 -15v-91h-88l-10 -39h62h36v-301c0 -22.667 2.33301 -44.334 7 -65.001s13 -37.667 25 -51c20 -24 49.667 -36 89 -36c16 0 30.167 1.33301 42.5 4s22.833 5.66699 31.5 9l-6 38c-7.33301 -2.66699 -16 -4.83398 -26 -6.50098
s-22.333 -2.5 -37 -2.5c-29.333 0 -49.5 10 -60.5 30s-16.5 44.667 -16.5 74v307h142z" />
    <glyph glyph-name="u" unicode="u" horiz-adv-x="586" 
d="M522 0c-7.33301 17.333 -13.1631 36.1699 -17.4961 56.5029s-6.5 40.166 -6.5 59.499v364h-49v-291c0 -10.667 -1.16699 -20.834 -3.5 -30.501s-5.16602 -18.167 -8.49902 -25.5c-12.667 -28 -33.334 -52 -62.001 -72s-61.334 -30 -98.001 -30
c-26.667 0 -49.167 4.66699 -67.5 14s-33.333 22.333 -45 39s-20 36.667 -25 60s-7.5 49 -7.5 77v259h-49v-269c0 -51.333 6.83301 -91.666 20.5 -120.999s30.167 -51.666 49.5 -66.999s39.166 -25 59.499 -29s37.5 -6 51.5 -6c24 0 46 3.16699 66 9.5
s37.667 14.666 53 24.999s28.666 22 39.999 35s20.666 26.167 27.999 39.5h2c0 -0.666992 0.333008 -3.83398 1 -9.50098s1.66699 -13 3 -22s2.66602 -17.167 3.99902 -24.5c2.66699 -10.667 5.83398 -21.834 9.50098 -33.501l5.5 -17.5z" />
    <glyph glyph-name="v" unicode="v" horiz-adv-x="496" 
d="M487 480h-52l-128 -296l-31.5 -71c-9.66699 -22 -18.5 -43.667 -26.5 -65h-2c-7.33301 21.333 -15.5 42.5 -24.5 63.5l-30.5 72.5l-125 296h-53l210 -480h44z" />
    <glyph glyph-name="w" unicode="w" horiz-adv-x="784" 
d="M766 480h-49.999l-96 -280l-27 -80c-8 -24 -14.667 -46.667 -20 -68h-2l-22 67.5c-8 24.333 -17.667 51.5 -29 81.5l-102 279h-49l-107 -280l-30 -80c-8.66699 -24 -16.334 -46.667 -23.001 -68h-2l-19.5 68.5l-24.5 79.5l-88 280h-51l158 -480h44l105 264l32.5 87.5
c10.333 28.333 19.5 56.5 27.5 84.5h2c7.33301 -27.333 15.833 -55 25.5 -83l31.5 -88l98 -265h44z" />
    <glyph glyph-name="x" unicode="x" horiz-adv-x="470" 
d="M451 0l-193.001 247l184 233h-55l-92 -118l-32 -40.5l-30 -40.5h-2l-29.5 40l-31.5 41l-92 118h-56l183 -234l-195 -246h57l94 122l36 47c10.667 14 21 28.667 31 44h2l33 -44.5c10.667 -15 22.334 -30.5 35.001 -46.5l96 -122h57z" />
    <glyph glyph-name="y" unicode="y" horiz-adv-x="480" 
d="M473 480h-52.999l-134 -317c-8 -19.333 -15.333 -37.833 -22 -55.5l-18 -49.5h-2c-4.66699 15.333 -10.5 32.166 -17.5 50.499s-14.167 35.166 -21.5 50.499l-143 321h-53l199 -446c4.66699 -10 7 -17.333 7 -22c0 -4 -2 -10.333 -6 -19
c-15.333 -34 -31.333 -61.333 -48 -82s-31.334 -36.334 -44.001 -47.001c-15.333 -13.333 -30.833 -23.666 -46.5 -30.999s-29.5 -12.666 -41.5 -15.999l13 -41c5.33301 1.33301 16.166 5 32.499 11s34.833 16.667 55.5 32c16 11.333 30.833 24.833 44.5 40.5
s27.334 34.334 41.001 56.001s27.5 47 41.5 76s29.333 62.5 46 100.5z" />
    <glyph glyph-name="z" unicode="z" horiz-adv-x="440" 
d="M428 0v40h-348v2l29 33l28 33l287 338l1 34h-388v-40h328v-2l-32 -35l-30 -35l-287 -338v-30h412z" />
    <glyph glyph-name="braceleft" unicode="{" horiz-adv-x="270" 
d="M255 -112l-0.00195312 37.9951h-19c-67.333 0 -101 34 -101 102c0 13.333 1 26.666 3 39.999s4.33301 26.666 7 39.999s5 26.5 7 39.5s3 26.167 3 39.5c0 23.333 -5.83301 44.5 -17.5 63.5s-27.167 31.5 -46.5 37.5v2c19.333 6 34.833 18 46.5 36s17.5 39 17.5 63
c0 13.333 -1 26.5 -3 39.5s-4.33301 26.167 -7 39.5s-5 26.5 -7 39.5s-3 26.167 -3 39.5c0 32.667 7.33301 57.667 22 75s41 26 79 26h19v38h-13c-44 0 -80.333 -10.667 -109 -32s-43 -55 -43 -101c0 -14 1 -28 3 -42s4.66699 -28 8 -42c2.66699 -14 5 -28 7 -42
s3 -28.333 3 -43c0 -10 -1 -19.833 -3 -29.5s-6.16699 -18.167 -12.5 -25.5s-15.333 -13.166 -27 -17.499s-27.167 -6.16602 -46.5 -5.49902v-36c19.333 0.666992 34.833 -1.5 46.5 -6.5s20.667 -11.5 27 -19.5s10.5 -16.667 12.5 -26s3 -18 3 -26
c0 -13.333 -0.833008 -26.666 -2.5 -39.999s-4.16699 -26.666 -7.5 -39.999c-2.66699 -13.333 -5.16699 -26.666 -7.5 -39.999s-3.5 -26.666 -3.5 -39.999c0 -26.667 3.83301 -49.167 11.5 -67.5s18.334 -33.166 32.001 -44.499s29.834 -19.5 48.501 -24.5
s38.667 -7.5 60 -7.5h13z" />
    <glyph glyph-name="bar" unicode="|" horiz-adv-x="219" 
d="M131 -250v1000h-43v-1000h43z" />
    <glyph glyph-name="braceright" unicode="}" horiz-adv-x="270" 
d="M248 270l-0.00195312 36.0049c-19.333 -0.666992 -34.833 1.16602 -46.5 5.49902s-20.667 10.166 -27 17.499s-10.5 15.833 -12.5 25.5s-3 19.5 -3 29.5c0 14.667 1 29 3 43s4.66699 28 8 42c2.66699 14 5 28 7 42s3 28 3 42c0 46 -14.333 79.667 -43 101s-65 32 -109 32
h-13v-38h19c38 0 64.333 -8.66699 79 -26s22 -42.333 22 -75c0 -13.333 -1 -26.5 -3 -39.5s-4.33301 -26.167 -7 -39.5s-5 -26.5 -7 -39.5s-3 -26.167 -3 -39.5c0 -24 5.83301 -45 17.5 -63s27.167 -30 46.5 -36v-2c-19.333 -6 -34.833 -18.5 -46.5 -37.5
s-17.5 -40.167 -17.5 -63.5c0 -13.333 1 -26.5 3 -39.5s4.33301 -26.167 7 -39.5s5 -26.666 7 -39.999s3 -26.666 3 -39.999c0 -68 -33.667 -102 -101 -102h-19v-38h13c21.333 0 41.333 2.5 60 7.5s34.834 13.167 48.501 24.5s24.334 26.166 32.001 44.499
s11.5 40.833 11.5 67.5c0 13.333 -1 26.666 -3 39.999s-4.33301 26.666 -7 39.999c-3.33301 13.333 -6 26.666 -8 39.999s-3 26.666 -3 39.999c0 8 1 16.667 3 26s6.16699 18 12.5 26s15.333 14.5 27 19.5s27.167 7.16699 46.5 6.5z" />
    <glyph glyph-name="asciitilde" unicode="~" horiz-adv-x="596" 
d="M554 351l-37.9941 -0.000976562c0 -29.333 -5.5 -51.666 -16.5 -66.999s-27.833 -23 -50.5 -23c-24 0 -47.833 4.66699 -71.5 14l-76.5 31l-52.5 22c-14.333 6 -26.833 10.833 -37.5 14.5s-20.5 6.16699 -29.5 7.5s-18.5 2 -28.5 2c-15.333 0 -29.833 -3 -43.5 -9
s-25.834 -14.833 -36.501 -26.5s-18.834 -25.834 -24.501 -42.501s-7.83398 -35.334 -6.50098 -56.001h39c0 30 6.16699 52.5 18.5 67.5s30.166 22.5 53.499 22.5c22.667 0 45 -4.83301 67 -14.5l72 -31.5c21.333 -9.33301 39.666 -16.833 54.999 -22.5s29 -10.167 41 -13.5
s22.5 -5.66602 31.5 -6.99902s17.833 -2 26.5 -2c13.333 0 26.666 2.33301 39.999 7s25.333 12.334 36 23.001s19 24.5 25 41.5s8.33301 37.833 7 62.5z" />
    <glyph glyph-name="exclamdown" unicode="&#xa1;" horiz-adv-x="215" 
d="M150 433c0 13.333 -3.83105 24.5 -11.498 33.5s-17.834 13.5 -30.501 13.5s-22.834 -4.5 -30.501 -13.5s-11.834 -20.167 -12.501 -33.5c0 -12 3.83301 -22.667 11.5 -32s17.834 -14 30.501 -14c13.333 0 23.833 4.66699 31.5 14s11.5 20 11.5 32zM138.002 -200l-10 488
h-41l-10 -488h61z" />
    <glyph glyph-name="cent" unicode="&#xa2;" 
d="M461 542c-11.333 6.66699 -28.6631 13.6611 -51.9961 20.9941s-51 11 -83 11v108h-42v-108c-32 -4 -61.667 -12.667 -89 -26s-51 -30.666 -71 -51.999s-35.667 -46.666 -47 -75.999s-17 -61.666 -17 -96.999c0 -34 5.5 -64.833 16.5 -92.5s25.167 -50.834 42.5 -69.501
c20 -21.333 42.667 -38.166 68 -50.499s57.666 -20.166 96.999 -23.499v-107h42v108c16 0.666992 31.167 2.5 45.5 5.5s27.166 6.33301 38.499 10s21.166 7.33398 29.499 11.001s14.5 6.83398 18.5 9.50098l-14 36c-12.667 -6.66699 -30.334 -13.834 -53.001 -21.501
s-52.334 -11.5 -89.001 -11.5c-27.333 0 -52.833 4.66699 -76.5 14s-44.167 22.833 -61.5 40.5s-31.166 38.834 -41.499 63.501s-15.5 52.667 -15.5 84c0 30 5.16699 57.5 15.5 82.5s24.5 46.667 42.5 65s39.5 32.666 64.5 42.999s52.167 15.5 81.5 15.5
c34 0 61.5 -3.66699 82.5 -11s37.167 -14.666 48.5 -21.999z" />
    <glyph glyph-name="sterling" unicode="&#xa3;" 
d="M488 0l-0.00292969 42.001h-342v2c20 16 37.333 34.5 52 55.5s25.334 46.167 32.001 75.5c5.33301 22 7.33301 44.167 6 66.5s-3 44.833 -5 67.5h157v39h-162c-3.33301 17.333 -6.16602 35.666 -8.49902 54.999s-3.5 41.666 -3.5 66.999c0 46.667 10.5 83.5 31.5 110.5
s53.833 40.5 98.5 40.5c25.333 0 46.333 -2.5 63 -7.5s29.667 -10.167 39 -15.5l16 38c-11.333 6.66699 -26 12.667 -44 18s-41 8 -69 8c-26.667 0 -51.167 -4.66699 -73.5 -14s-41.5 -22.5 -57.5 -39.5s-28.5 -37.167 -37.5 -60.5s-13.5 -49 -13.5 -77
c0 -22 1.33301 -43.5 4 -64.5s5.66699 -40.5 9 -58.5h-109v-39h113c2.66699 -18 4.33398 -33.5 5.00098 -46.5s1 -26.167 1 -39.5c0 -38 -8.83301 -73.167 -26.5 -105.5s-49.167 -61.166 -94.5 -86.499v-31h419z" />
    <glyph glyph-name="yen" unicode="&#xa5;" 
d="M503 650l-52 0.000976562l-147 -243c-8.66699 -14 -16.5 -27.5 -23.5 -40.5s-12.5 -25.167 -16.5 -36.5h-4c-6 13.333 -12 25.166 -18 35.499l-22 38.5l-140 246h-53l188 -320h-146v-37h165v-76h-165v-37h165v-180h47v180h165v37h-165v76h165v37h-144z" />
    <glyph glyph-name="brokenbar" unicode="&#xa6;" horiz-adv-x="219" 
d="M131 325v350h-43v-350h43zM131 -175v350h-43v-350h43z" />
    <glyph glyph-name="section" unicode="&#xa7;" 
d="M451 298c0 20 -3.66797 37.5049 -11.001 52.5049s-17.666 28.167 -30.999 39.5s-29.166 21.166 -47.499 29.499s-38.5 16.166 -60.5 23.499c-21.333 6.66699 -40.833 13.334 -58.5 20.001s-32.834 14 -45.501 22s-22.5 17.5 -29.5 28.5s-10.5 24.5 -10.5 40.5
c0 12.667 3.16699 24.667 9.5 36s14.666 21 24.999 29s22.5 14.333 36.5 19s29 7 45 7c28 0 52.5 -4 73.5 -12s37.167 -16.333 48.5 -25l21 36c-13.333 9.33301 -31.666 17.833 -54.999 25.5s-50.333 11.5 -81 11.5c-24 0 -46.333 -3.33301 -67 -10s-38.5 -16 -53.5 -28
s-26.667 -26.167 -35 -42.5s-12.5 -34.5 -12.5 -54.5c0 -15.333 3.16699 -30.333 9.5 -45s14.833 -25.667 25.5 -33c-25.333 -19.333 -42.833 -39 -52.5 -59s-14.5 -38.333 -14.5 -55c0 -38 13.833 -67.667 41.5 -89s68.5 -41 122.5 -59
c28 -9.33301 50.833 -18.333 68.5 -27s31.834 -17.834 42.501 -27.501s18 -19.834 22 -30.501s6 -23 6 -37c0 -32 -12.167 -57 -36.5 -75s-55.5 -27 -93.5 -27c-32 0 -58.333 4.5 -79 13.5s-36.334 18.167 -47.001 27.5l-22 -36
c15.333 -12.667 35.166 -22.834 59.499 -30.501s52.833 -11.5 85.5 -11.5c24.667 0 47.834 3.33301 69.501 10s40.5 16.167 56.5 28.5s28.5 27.5 37.5 45.5s13.5 38.333 13.5 61c0 19.333 -3.83301 36.833 -11.5 52.5s-15.5 27.167 -23.5 34.5
c18.667 16.667 33.167 34.667 43.5 54s15.5 41.666 15.5 66.999zM405.999 291.005c0 -35.333 -13.667 -65.665 -41 -90.998c-11.333 7.33301 -25.166 14.5 -41.499 21.5s-40.166 15.833 -71.499 26.5c-26 8.66699 -47.333 17.5 -64 26.5s-29.834 18 -39.501 27
s-16.167 18.167 -19.5 27.5s-5 18.666 -5 27.999c0 16 3.5 31.5 10.5 46.5s20.167 30.167 39.5 45.5c17.333 -10.667 36.833 -19.834 58.5 -27.501l62.5 -21.5c43.333 -14 72.666 -30.167 87.999 -48.5s23 -38.5 23 -60.5z" />
    <glyph glyph-name="dieresis" unicode="&#xa8;" horiz-adv-x="300" 
d="M278 605c0 11.333 -3.50195 21 -10.502 29s-16.167 12 -27.5 12s-20.666 -4.16699 -27.999 -12.5s-11 -17.833 -11 -28.5s3.33301 -20.167 10 -28.5s16 -12.5 28 -12.5c12.667 0 22.334 4.16699 29.001 12.5s10 17.833 10 28.5zM98.998 605
c0 11.333 -3.50195 21 -10.502 29s-16.167 12 -27.5 12s-20.666 -4.16699 -27.999 -12.5s-11 -17.833 -11 -28.5s3.33301 -20.167 10 -28.5s16 -12.5 28 -12.5c12.667 0 22.334 4.16699 29.001 12.5s10 17.833 10 28.5z" />
    <glyph glyph-name="copyright" unicode="&#xa9;" horiz-adv-x="677" 
d="M637 340c0 42.667 -7.66699 82.667 -23 120s-36.166 70 -62.499 98s-57.666 50 -93.999 66s-75.5 24 -117.5 24s-81.333 -8 -118 -24s-68.5 -38 -95.5 -66s-48.167 -60.667 -63.5 -98s-23 -77.333 -23 -120c0 -43.333 7.66699 -83.833 23 -121.5s36.5 -70.5 63.5 -98.5
s58.833 -50 95.5 -66s76 -24 118 -24s81.167 8 117.5 24s67.666 38 93.999 66s47.166 60.833 62.499 98.5s23 78.167 23 121.5zM598 340c0 -40 -6.66699 -76.999 -20 -110.999s-31.5 -63.333 -54.5 -88s-50.167 -44 -81.5 -58s-65 -21 -101 -21
c-37.333 0 -71.833 7 -103.5 21s-59 33.333 -82 58s-41.167 53.667 -54.5 87s-20 69.333 -20 108c0 40 6.66699 77 20 111s31.5 63.5 54.5 88.5s50.333 44.667 82 59s66.167 21.5 103.5 21.5c36 0 69.667 -7 101 -21s58.5 -33.5 81.5 -58.5s41.167 -54.333 54.5 -88
s20 -69.834 20 -108.501zM480 185.001l-10.0029 28.999c-12 -8.66699 -27 -15.5 -45 -20.5s-37.333 -7.5 -58 -7.5c-25.333 0 -47.5 4 -66.5 12s-34.833 18.833 -47.5 32.5s-22 29.667 -28 48s-9 37.833 -9 58.5s3 40 9 58s15 33.833 27 47.5s27.333 24.5 46 32.5
s41 12 67 12c25.333 0 46.333 -3 63 -9s28.667 -11.333 36 -16l10 31c-7.33301 6 -20.666 12 -39.999 18s-42.666 9 -69.999 9c-25.333 0 -49.333 -4.33301 -72 -13s-42.667 -21.167 -60 -37.5s-31.166 -36 -41.499 -59s-15.5 -48.5 -15.5 -76.5
c0 -25.333 4.16699 -49 12.5 -71s20.166 -41.167 35.499 -57.5s34.333 -29.166 57 -38.499s48.334 -14 77.001 -14c20.667 0 42 2.16699 64 6.5s41.667 12.833 59 25.5z" />
    <glyph glyph-name="ordfeminine" unicode="&#xaa;" horiz-adv-x="350" 
d="M300 267c-4 28 -6 54.3311 -6 78.998v95c0 16.667 -1.16699 34 -3.5 52s-7.66602 34.333 -15.999 49s-20.5 26.667 -36.5 36s-37.667 14 -65 14c-15.333 0 -33 -2.5 -53 -7.5s-38.667 -14.167 -56 -27.5l13 -30c13.333 10.667 27.333 18 42 22s29.667 6 45 6
c20 0 35.833 -3.5 47.5 -10.5s20.5 -14.833 26.5 -23.5s9.83301 -17 11.5 -25s2.5 -13.333 2.5 -16v-12c-37.333 2 -69.5 0.333008 -96.5 -5s-49.167 -13.166 -66.5 -23.499s-30.333 -22.666 -39 -36.999s-13 -29.5 -13 -45.5c0 -12 2 -23.833 6 -35.5
s10.333 -21.834 19 -30.501s19.667 -15.667 33 -21s29.333 -8 48 -8c14 0 26.667 1.83301 38 5.5s21.666 8.33398 30.999 14.001s17.5 11.667 24.5 18s12.5 12.5 16.5 18.5h2l5 -51h40zM252 370.998c0 -3.33301 -1.16699 -7.66797 -3.5 -13.001
s-6.16602 -11.333 -11.499 -18c-8 -10 -19.167 -19.5 -33.5 -28.5s-31.833 -13.5 -52.5 -13.5c-19.333 0 -35.833 5 -49.5 15s-20.5 24.667 -20.5 44c0 16.667 5 30.167 15 40.5s23 18.333 39 24s34.167 9.33398 54.5 11.001s41.166 2.16699 62.499 1.5v-63z" />
    <glyph glyph-name="guillemotleft" unicode="&#xab;" horiz-adv-x="410" 
d="M389 68l-157 184l156 184h-52l-156 -184l157 -184h52zM239 68l-157 184l156 184h-52l-156 -184l157 -184h52z" />
    <glyph glyph-name="logicalnot" unicode="&#xac;" horiz-adv-x="596" 
d="M556 131v254h-516v-40h472v-214h44z" />
    <glyph glyph-name="registered" unicode="&#xae;" horiz-adv-x="510" 
d="M476 458c0 31.333 -5.66699 60.666 -17 87.999s-27 51 -47 71s-43.333 35.833 -70 47.5s-55.334 17.5 -86.001 17.5s-59.334 -5.83301 -86.001 -17.5s-50 -27.5 -70 -47.5s-35.833 -43.667 -47.5 -71s-17.5 -56.666 -17.5 -87.999c0 -32 5.83301 -61.833 17.5 -89.5
s27.5 -51.5 47.5 -71.5s43.333 -35.833 70 -47.5s55.334 -17.5 86.001 -17.5s59.334 5.83301 86.001 17.5s50 27.5 70 47.5s35.667 43.833 47 71.5s17 57.5 17 89.5zM441 457c0 -27.333 -4.83301 -53 -14.5 -77s-22.667 -44.833 -39 -62.5s-35.666 -31.667 -57.999 -42
s-46.166 -15.5 -71.499 -15.5c-26 0 -50.333 5.16699 -73 15.5s-42.334 24.5 -59.001 42.5s-29.834 39 -39.501 63s-14.5 49.667 -14.5 77c0 26.667 4.83301 52 14.5 76s22.834 44.833 39.501 62.5s36.167 31.667 58.5 42s46.5 15.5 72.5 15.5s50.167 -5.16699 72.5 -15.5
s41.666 -24.333 57.999 -42s29.333 -38.5 39 -62.5s14.5 -49.667 14.5 -77zM353 327c-2.66699 4 -5.33398 10.499 -8.00098 19.499s-5.66699 23.167 -9 42.5c-6 36.667 -20.333 57 -43 61v2c13.333 4 24.833 11 34.5 21s14.5 23.667 14.5 41
c0 22.667 -7.66699 39.667 -23 51c-7.33301 5.33301 -17.166 9.83301 -29.499 13.5s-27.166 5.5 -44.499 5.5c-12.667 0 -23.834 -0.666992 -33.501 -2s-20.167 -2.66602 -31.5 -3.99902v-251h32v111h30c17.333 0 30.5 -3.5 39.5 -10.5s15.167 -19.167 18.5 -36.5
c6 -34 12.333 -55.333 19 -64h34zM308 508.999c0 -17.333 -6.50098 -29.5 -19.501 -36.5s-28.167 -10.5 -45.5 -10.5h-31v94c3.33301 0.666992 7.33301 1.16699 12 1.5s10.334 0.5 17.001 0.5c25.333 0 42.833 -5.16699 52.5 -15.5s14.5 -21.5 14.5 -33.5z" />
    <glyph glyph-name="macron" unicode="&#xaf;" horiz-adv-x="300" 
d="M259 592v39h-217v-39h217z" />
    <glyph glyph-name="degree" unicode="&#xb0;" horiz-adv-x="300" 
d="M270 570c0 14.667 -2.33105 28.835 -6.99805 42.502s-12 26 -22 37s-22.5 19.833 -37.5 26.5s-32.5 10 -52.5 10c-16.667 0 -32.334 -3.16699 -47.001 -9.5s-27.5 -15 -38.5 -26s-19.667 -24 -26 -39s-9.5 -31.5 -9.5 -49.5c0 -14.667 2.66699 -28.834 8 -42.501
s13.166 -25.834 23.499 -36.501s22.833 -19.167 37.5 -25.5s31 -9.5 49 -9.5c14.667 0 29.167 2.66699 43.5 8s27.333 13.333 39 24s21.167 23.5 28.5 38.5s11 32.167 11 51.5zM233.002 568.001c0 -25.333 -7.83496 -46.167 -23.502 -62.5s-35.5 -24.5 -59.5 -24.5
c-23.333 0 -42.666 7.83301 -57.999 23.5s-23 35.167 -23 58.5c0 9.33301 1.33301 19.333 4 30s7.33398 20.5 14.001 29.5s15 16.333 25 22s22.667 8.5 38 8.5c16.667 0 30.5 -3 41.5 -9s19.5 -13.333 25.5 -22s10.167 -18 12.5 -28s3.5 -18.667 3.5 -26z" />
    <glyph glyph-name="plusminus" unicode="&#xb1;" horiz-adv-x="596" 
d="M556 320v40h-236v207h-44v-207h-236v-40h236v-215h44v215h236zM556 0v40h-516v-40h516z" />
    <glyph glyph-name="twosuperior" unicode="&#xb2;" horiz-adv-x="360" 
d="M315 267l0.00292969 36.001h-198v2l34 29l66.5 59c19.667 18 36.334 35.5 50.001 52.5s24 34.167 31 51.5s10.5 36 10.5 56c0 10 -2 21.167 -6 33.5s-10.833 24.166 -20.5 35.499s-22.834 20.833 -39.501 28.5s-37.334 11.5 -62.001 11.5
c-22.667 0 -44 -4.16699 -64 -12.5s-36.333 -18.5 -49 -30.5l15 -26c9.33301 6.66699 21.5 14 36.5 22s32.167 12 51.5 12c17.333 0 31.833 -2.5 43.5 -7.5s21.167 -11.5 28.5 -19.5s12.666 -17.167 15.999 -27.5s5 -20.833 5 -31.5c0 -12 -2.33301 -24 -7 -36
s-12.334 -25 -23.001 -39s-24.5 -29.5 -41.5 -46.5s-37.833 -36.5 -62.5 -58.5l-73 -65v-29h258z" />
    <glyph glyph-name="threesuperior" unicode="&#xb3;" horiz-adv-x="340" 
d="M303 377c0 23.333 -8.16797 44.501 -24.501 63.501s-39.833 30.833 -70.5 35.5v2c24.667 9.33301 43.667 22.166 57 38.499s20 34.166 20 53.499c0 10.667 -1.83301 21.334 -5.5 32.001s-10 20.5 -19 29.5s-20.833 16.333 -35.5 22s-33 8.5 -55 8.5
c-22.667 0 -43 -3.5 -61 -10.5s-32.667 -14.167 -44 -21.5l16 -32c6.66699 5.33301 17.834 11.666 33.501 18.999s33.167 11 52.5 11c14 0 25.667 -2 35 -6s16.833 -8.83301 22.5 -14.5s9.83398 -12 12.501 -19s4 -13.5 4 -19.5c0 -14 -3.5 -26 -10.5 -36
s-15.667 -18 -26 -24s-21.666 -10.333 -33.999 -13s-23.833 -4 -34.5 -4h-34v-33h32c14 0 28.333 -1.33301 43 -4s28 -7.16699 40 -13.5s22 -14.833 30 -25.5s12 -23.667 12 -39c0 -6.66699 -1.33301 -14.667 -4 -24s-8 -18.166 -16 -26.499s-18.833 -15.5 -32.5 -21.5
s-30.834 -9 -51.501 -9c-20 0 -39.167 3.33301 -57.5 10s-31.166 12.667 -38.499 18l-16 -33c9.33301 -7.33301 23.666 -14 42.999 -20s41.666 -9 66.999 -9c26 0 48.333 3.5 67 10.5s34.167 16 46.5 27s21.5 23.333 27.5 37s9 27.167 9 40.5z" />
    <glyph glyph-name="acute" unicode="&#xb4;" horiz-adv-x="300" 
d="M283 682h-74l-91 -140h38z" />
    <glyph glyph-name="mu" unicode="&#xb5;" horiz-adv-x="586" 
d="M502 0c-1.33301 19.333 -2.33398 38.668 -3.00098 58.001s-1 38.666 -1 57.999v364h-49v-293c0 -20 -4.66699 -39.333 -14 -58s-21.833 -35.167 -37.5 -49.5s-33.667 -26 -54 -35s-41.166 -13.5 -62.499 -13.5c-28 0 -51.5 4.83301 -70.5 14.5s-34.333 22.667 -46 39
s-20 35 -25 56s-7.5 42.833 -7.5 65.5v274h-49v-680h49v268h2c10 -18 21.167 -32.333 33.5 -43s24.833 -18.667 37.5 -24s24.5 -8.83301 35.5 -10.5s20.167 -2.5 27.5 -2.5c24 0 45.667 3.16699 65 9.5s36.5 14.833 51.5 25.5s28 22.5 39 35.5s20.167 26.167 27.5 39.5h2
l3 -98h46z" />
    <glyph glyph-name="paragraph" unicode="&#xb6;" 
d="M425 -51l0.000976562 718.997c-10 2 -23.333 3.66699 -40 5s-40 2 -70 2c-56 0 -102.167 -6.66699 -138.5 -20s-65 -30.666 -86 -51.999s-35.5 -45 -43.5 -71s-12 -51.667 -12 -77c0 -33.333 6.66699 -62.166 20 -86.499s30.666 -44.666 51.999 -60.999
s45 -28.5 71 -36.5s51.667 -12 77 -12h9v-310h43v686h75v-686h43z" />
    <glyph glyph-name="periodcentered" unicode="&#xb7;" horiz-adv-x="175" 
d="M130 284c0 13.333 -3.83105 24.5 -11.498 33.5s-17.834 13.5 -30.501 13.5s-22.834 -4.5 -30.501 -13.5s-11.834 -20.167 -12.501 -33.5c0 -12 3.83301 -22.667 11.5 -32s17.834 -14 30.501 -14c13.333 0 23.833 4.66699 31.5 14s11.5 20 11.5 32z" />
    <glyph glyph-name="periodcentered" unicode="&#x2219;" horiz-adv-x="175" 
d="M130 284c0 13.333 -3.83105 24.5 -11.498 33.5s-17.834 13.5 -30.501 13.5s-22.834 -4.5 -30.501 -13.5s-11.834 -20.167 -12.501 -33.5c0 -12 3.83301 -22.667 11.5 -32s17.834 -14 30.501 -14c13.333 0 23.833 4.66699 31.5 14s11.5 20 11.5 32z" />
    <glyph glyph-name="cedilla" unicode="&#xb8;" horiz-adv-x="300" 
d="M212 -120c0 18.667 -7.00195 33.667 -21.002 45s-30.333 18.333 -49 21l38 54h-38l-53 -81c22.667 -2 41.667 -6 57 -12s23.333 -16.667 24 -32c0.666992 -13.333 -4.16602 -22.666 -14.499 -27.999s-22.166 -8 -35.499 -8c-9.33301 0 -19 1 -29 3s-19 5.33301 -27 10
l-11 -35c7.33301 -4.66699 16.833 -8.33398 28.5 -11.001s22.167 -4 31.5 -4c28 0 51.5 6 70.5 18s28.5 32 28.5 60z" />
    <glyph glyph-name="onesuperior" unicode="&#xb9;" horiz-adv-x="300" 
d="M187 267v390h-38l-79 -39l9 -33l65 32h2v-350h41z" />
    <glyph glyph-name="ordmasculine" unicode="&#xba;" horiz-adv-x="350" 
d="M343 429c0 22 -3.83105 42.833 -11.498 62.5s-18.834 37 -33.501 52s-32.334 26.833 -53.001 35.5s-44 13 -70 13c-20.667 0 -41 -3.83301 -61 -11.5s-37.833 -18.834 -53.5 -33.501s-28.334 -32.5 -38.001 -53.5s-14.5 -44.5 -14.5 -70.5
c0 -23.333 4.16699 -44.666 12.5 -63.999s20 -36.333 35 -51s32.667 -26 53 -34s42.5 -12 66.5 -12c18.667 0 37.834 3.16699 57.501 9.5s37.667 16.333 54 30s29.833 31 40.5 52s16 46.167 16 75.5zM301.002 427c0 -22 -3.49805 -41.001 -10.498 -57.001
s-16.333 -29.333 -28 -40s-25 -18.667 -40 -24s-30.5 -8 -46.5 -8c-14.667 0 -29.334 2.66699 -44.001 8s-28 13.333 -40 24s-21.833 23.834 -29.5 39.501s-11.5 34.167 -11.5 55.5c0 16 2.5 31.833 7.5 47.5s12.833 29.667 23.5 42s23.667 22.333 39 30
s33.666 11.5 54.999 11.5c22 0 40.833 -4.16699 56.5 -12.5s28.667 -18.833 39 -31.5s17.833 -26.5 22.5 -41.5s7 -29.5 7 -43.5z" />
    <glyph glyph-name="guillemotright" unicode="&#xbb;" horiz-adv-x="410" 
d="M380 252l-157 184h-52l157 -184l-156 -184h51zM230 252l-157 184h-52l157 -184l-156 -184h51z" />
    <glyph glyph-name="onequarter" unicode="&#xbc;" horiz-adv-x="760" 
d="M722 108v34h-70v253h-35l-228 -261v-26h222v-108h41v108h70zM566 662h-41l-403 -674h41zM168 267v390h-38l-79 -39l9 -33l65 32h2v-350h41zM613 345c-1.33301 -7.33301 -2 -14.999 -2 -22.999v-26v-154h-171v1l142 164l13 17.5c4.66699 6.33301 10 13.166 16 20.499h2z
" />
    <glyph glyph-name="onehalf" unicode="&#xbd;" horiz-adv-x="760" 
d="M696 0l0.00292969 36.001h-198v2l34 29l66.5 59c19.667 18 36.334 35.5 50.001 52.5s24 34.167 31 51.5s10.5 36 10.5 56c0 10 -2 21.167 -6 33.5s-10.833 24.166 -20.5 35.499s-22.834 20.833 -39.501 28.5s-37.334 11.5 -62.001 11.5c-22.667 0 -44 -4.16699 -64 -12.5
s-36.333 -18.5 -49 -30.5l15 -26c9.33301 6.66699 21.5 14 36.5 22s32.167 12 51.5 12c17.333 0 31.833 -2.5 43.5 -7.5s21.167 -11.5 28.5 -19.5s12.666 -17.167 15.999 -27.5s5 -20.833 5 -31.5c0 -12 -2.33301 -24 -7 -36s-12.334 -25 -23.001 -39
s-24.5 -29.5 -41.5 -46.5s-37.833 -36.5 -62.5 -58.5l-73 -65v-29h258zM551.003 662.001h-41l-403 -674h41zM153.003 267.001v390h-38l-79 -39l9 -33l65 32h2v-350h41z" />
    <glyph glyph-name="threequarters" unicode="&#xbe;" horiz-adv-x="760" 
d="M737 108v34h-70v253h-35l-228 -261v-26h222v-108h41v108h70zM614 662h-41l-403 -674h41zM293 377c0 23.333 -8.16406 44.5 -24.4971 63.5s-39.833 30.833 -70.5 35.5v2c24.667 9.33301 43.667 22.166 57 38.499s20 34.166 20 53.499
c0 10.667 -1.83301 21.334 -5.5 32.001s-10 20.5 -19 29.5s-21 16.333 -36 22s-33.5 8.5 -55.5 8.5c-22.667 0 -42.834 -3.66699 -60.501 -11s-32.167 -14.666 -43.5 -21.999l16 -31c6.66699 5.33301 17.667 11.666 33 18.999s32.666 11 51.999 11c14 0 25.833 -2 35.5 -6
s17.5 -8.83301 23.5 -14.5s10.167 -12 12.5 -19s3.5 -13.5 3.5 -19.5c0 -14 -3.5 -26 -10.5 -36s-15.667 -18 -26 -24s-21.666 -10.333 -33.999 -13s-23.833 -4 -34.5 -4h-34v-33h32c14 0 28.333 -1.33301 43 -4s28 -7.16699 40 -13.5s22 -14.833 30 -25.5
s12 -23.667 12 -39c0 -6.66699 -1.33301 -14.667 -4 -24s-8 -18.166 -16 -26.499s-18.833 -15.5 -32.5 -21.5s-30.834 -9 -51.501 -9c-20 0 -39.167 3.33301 -57.5 10s-31.166 12.667 -38.499 18l-16 -33c9.33301 -7.33301 23.666 -14 42.999 -20s41.666 -9 66.999 -9
c26 0 48.333 3.5 67 10.5s34.167 16 46.5 27s21.5 23.333 27.5 37s9 27.167 9 40.5zM628.003 345c-1.33301 -7.33301 -2 -15 -2 -23v-26v-154h-171v1l143 164c4 4.66699 8.16699 10.167 12.5 16.5s9.5 13.5 15.5 21.5h2z" />
    <glyph glyph-name="questiondown" unicode="&#xbf;" horiz-adv-x="410" 
d="M295 433c0 13.333 -3.83105 24.5 -11.498 33.5s-17.834 13.5 -30.501 13.5s-22.834 -4.5 -30.501 -13.5s-11.834 -20.167 -12.501 -33.5c0 -12 3.83301 -22.667 11.5 -32s17.834 -14 30.501 -14c13.333 0 23.833 4.66699 31.5 14s11.5 20 11.5 32zM379.002 -172
l-19.001 36.001c-15.333 -12 -33.166 -21.167 -53.499 -27.5s-40.5 -9.5 -60.5 -9.5c-40.667 0 -70.5 10.167 -89.5 30.5s-28.5 45.5 -28.5 75.5c0 23.333 6 46.666 18 69.999s32.667 50.666 62 81.999c28 30.667 48.167 60.834 60.5 90.501s16.833 58.167 13.5 85.5l-4 31
h-45l2 -36c1.33301 -23.333 -3.16699 -47.333 -13.5 -72s-29.166 -52 -56.499 -82c-31.333 -33.333 -54.166 -63.166 -68.499 -89.499s-21.5 -53.833 -21.5 -82.5c0 -18 3.16699 -35.833 9.5 -53.5s16.166 -33.334 29.499 -47.001s30.166 -24.834 50.499 -33.501
s44.5 -13 72.5 -13c10.667 0 22.167 1 34.5 3s24.833 4.83301 37.5 8.5s25 8.33398 37 14.001s23 12.167 33 19.5z" />
    <glyph glyph-name="Agrave" unicode="&#xc0;" horiz-adv-x="640" 
d="M363 710l-96 115h-76l132 -115h40zM620 0l-270 674h-48l-272 -674h51l93 237h300l95 -237h51zM458 278h-267l96 240c8 20 14.833 38 20.5 54s11.167 32.667 16.5 50h2l15.5 -49c5 -16 12.167 -35.333 21.5 -58z" />
    <glyph glyph-name="Aacute" unicode="&#xc1;" horiz-adv-x="640" 
d="M459 825h-76l-96 -115h40zM620 0l-270 674h-48l-272 -674h51l93 237h300l95 -237h51zM458 278h-267l96 240c8 20 14.833 38 20.5 54s11.167 32.667 16.5 50h2l15.5 -49c5 -16 12.167 -35.333 21.5 -58z" />
    <glyph glyph-name="Acircumflex" unicode="&#xc2;" horiz-adv-x="640" 
d="M459 710l-113 115h-36l-109 -115h50l76 79h2l76 -79h54zM620 0l-270 674h-48l-272 -674h51l93 237h300l95 -237h51zM458 278h-267l96 240c8 20 14.833 38 20.5 54s11.167 32.667 16.5 50h2l15.5 -49c5 -16 12.167 -35.333 21.5 -58z" />
    <glyph glyph-name="Atilde" unicode="&#xc3;" horiz-adv-x="640" 
d="M440 802h-30.998c-1.33301 -18.667 -4.5 -30.334 -9.5 -35.001s-11.833 -7 -20.5 -7c-9.33301 0 -18.333 1.5 -27 4.5s-17.334 7.16699 -26.001 12.5c-13.333 7.33301 -25 12.833 -35 16.5s-20 5.5 -30 5.5c-9.33301 0 -17.833 -2.33301 -25.5 -7s-14.167 -11 -19.5 -19
s-9.33301 -17 -12 -27s-4 -20.333 -4 -31h31c1.33301 12.667 4 23.334 8 32.001s10.667 13 20 13s18.333 -2 27 -6l30 -14c14 -7.33301 25.667 -12.5 35 -15.5s18.666 -4.5 27.999 -4.5c21.333 0 36.833 7.5 46.5 22.5s14.5 34.833 14.5 59.5zM620.002 0l-270 674h-48
l-272 -674h51l93 237h300l95 -237h51zM458.002 278h-267l96 240c8 20 14.833 38 20.5 54s11.167 32.667 16.5 50h2l15.5 -49c5 -16 12.167 -35.333 21.5 -58z" />
    <glyph glyph-name="Adieresis" unicode="&#xc4;" horiz-adv-x="640" 
d="M453 765c0 11.333 -3.50195 21 -10.502 29s-16.167 12 -27.5 12s-20.666 -4.16699 -27.999 -12.5s-11 -17.833 -11 -28.5s3.33301 -20.167 10 -28.5s16 -12.5 28 -12.5c12.667 0 22.334 4.16699 29.001 12.5s10 17.833 10 28.5zM273.998 765
c0 11.333 -3.50195 21 -10.502 29s-16.167 12 -27.5 12s-20.666 -4.16699 -27.999 -12.5s-11 -17.833 -11 -28.5s3.33301 -20.167 10 -28.5s16 -12.5 28 -12.5c12.667 0 22.334 4.16699 29.001 12.5s10 17.833 10 28.5zM619.996 0l-270 674h-48l-272 -674h51l93 237h300
l95 -237h51zM457.996 278h-267l96 240c8 20 14.833 38 20.5 54s11.167 32.667 16.5 50h2l15.5 -49c5 -16 12.167 -35.333 21.5 -58z" />
    <glyph glyph-name="Aring" unicode="&#xc5;" horiz-adv-x="640" 
d="M620 0l-262 654c20 4.66699 36.167 14 48.5 28s18.5 30.667 18.5 50c0 24.667 -8.5 45.167 -25.5 61.5s-40.167 24.5 -69.5 24.5c-30 0 -53.5 -8.5 -70.5 -25.5s-25.5 -37.167 -25.5 -60.5c0 -17.333 5.33301 -33 16 -47s25.667 -23.667 45 -29l-265 -656h51l93 237h300
l94 -237h52zM387 734c0 -14.667 -4.99902 -27.332 -14.999 -37.999s-24.333 -16 -43 -16c-18 0 -32 5.5 -42 16.5s-15 22.833 -15 35.5c0 15.333 4.66699 28.666 14 39.999s23.666 17 42.999 17c18.667 0 33 -5.33301 43 -16s15 -23.667 15 -39zM458.001 278.002h-269
l106 264c6 14.667 11.667 29.5 17 44.5s9 26.833 11 35.5h2c5.33301 -15.333 11 -32.5 17 -51.5s12 -35.833 18 -50.5z" />
    <glyph glyph-name="AE" unicode="&#xc6;" horiz-adv-x="807" 
d="M766 0v41h-259l-42 293h267v41h-273l-36 258h326v41h-399l-360 -674h51l148 279h237l40 -279h300zM421 319h-211l113 216l27.5 53.5c9 17.667 16.833 33.834 23.5 48.501h4c1.33301 -16.667 3.5 -35.834 6.5 -57.501l7.5 -53.5z" />
    <glyph glyph-name="Ccedilla" unicode="&#xc7;" horiz-adv-x="640" 
d="M605 27l-15.001 39.002c-23.333 -11.333 -50.5 -20.166 -81.5 -26.499s-63.167 -9.5 -96.5 -9.5c-53.333 0 -100 7.83301 -140 23.5s-73.667 37 -101 64s-47.833 58.833 -61.5 95.5s-20.5 75.667 -20.5 117c0 45.333 7.16699 87.333 21.5 126s35.666 72 63.999 100
s63.333 49.833 105 65.5s89.834 23.5 144.501 23.5c32 0 62.167 -3.16699 90.5 -9.5s52.5 -14.5 72.5 -24.5l16 41c-11.333 5.33301 -31.666 12.333 -60.999 21s-69.666 13 -120.999 13c-63.333 0 -118.833 -10.167 -166.5 -30.5s-87.5 -47 -119.5 -80
s-56.167 -70.5 -72.5 -112.5s-24.5 -85 -24.5 -129c0 -53.333 8.33301 -100.333 25 -141s39.167 -75.334 67.5 -104.001s61 -51 98 -67s75.833 -26.333 116.5 -31l-46 -72c22.667 -2.66699 41.667 -7.16699 57 -13.5s23 -16.833 23 -31.5c0 -11.333 -4.83301 -20 -14.5 -26
s-21.167 -9 -34.5 -9c-21.333 0 -40 4.33301 -56 13l-11 -36c7.33301 -3.33301 16.833 -6.5 28.5 -9.5s23.167 -4.5 34.5 -4.5c26.667 0 49.5 5.83301 68.5 17.5s28.5 30.5 28.5 56.5c0 18.667 -6.83301 34.167 -20.5 46.5s-30.167 20.166 -49.5 23.499l30 42
c54 0 99.667 4.16699 137 12.5s65.666 17.166 84.999 26.499z" />
    <glyph glyph-name="Egrave" unicode="&#xc8;" horiz-adv-x="511" 
d="M329 710l-96 115h-76l132 -115h40zM471 0v41h-334v294h300v41h-300v257h317v41h-366v-674h383z" />
    <glyph glyph-name="Eacute" unicode="&#xc9;" horiz-adv-x="511" 
d="M405 825h-76l-96 -115h40zM471 0v41h-334v294h300v41h-300v257h317v41h-366v-674h383z" />
    <glyph glyph-name="Ecircumflex" unicode="&#xca;" horiz-adv-x="511" 
d="M397 710l-113 115h-36l-109 -115h50l76 79h2l76 -79h54zM471 0v41h-334v294h300v41h-300v257h317v41h-366v-674h383z" />
    <glyph glyph-name="Edieresis" unicode="&#xcb;" horiz-adv-x="511" 
d="M404 765c0 11.333 -3.50195 21 -10.502 29s-16.167 12 -27.5 12s-20.666 -4.16699 -27.999 -12.5s-11 -17.833 -11 -28.5s3.33301 -20.167 10 -28.5s16 -12.5 28 -12.5c12.667 0 22.334 4.16699 29.001 12.5s10 17.833 10 28.5zM224.998 765
c0 11.333 -3.50195 21 -10.502 29s-16.167 12 -27.5 12s-20.666 -4.16699 -27.999 -12.5s-11 -17.833 -11 -28.5s3.33301 -20.167 10 -28.5s16 -12.5 28 -12.5c12.667 0 22.334 4.16699 29.001 12.5s10 17.833 10 28.5zM470.996 0v41h-334v294h300v41h-300v257h317v41h-366
v-674h383z" />
    <glyph glyph-name="Igrave" unicode="&#xcc;" horiz-adv-x="225" 
d="M155 710l-96 115h-76l132 -115h40zM137 0v674h-49v-674h49z" />
    <glyph glyph-name="Iacute" unicode="&#xcd;" horiz-adv-x="225" 
d="M246 825h-76l-96 -115h40zM137 0v674h-49v-674h49z" />
    <glyph glyph-name="Icircumflex" unicode="&#xce;" horiz-adv-x="225" 
d="M241 710l-113 115h-36l-109 -115h50l76 79h2l76 -79h54zM137 0v674h-49v-674h49z" />
    <glyph glyph-name="Idieresis" unicode="&#xcf;" horiz-adv-x="225" 
d="M240 765c0 11.333 -3.50195 21 -10.502 29s-16.167 12 -27.5 12s-20.666 -4.16699 -27.999 -12.5s-11 -17.833 -11 -28.5s3.33301 -20.167 10 -28.5s16 -12.5 28 -12.5c12.667 0 22.334 4.16699 29.001 12.5s10 17.833 10 28.5zM60.998 765
c0 11.333 -3.50195 21 -10.502 29s-16.167 12 -27.5 12s-20.666 -4.16699 -27.999 -12.5s-11 -17.833 -11 -28.5s3.33301 -20.167 10 -28.5s16 -12.5 28 -12.5c12.667 0 22.334 4.16699 29.001 12.5s10 17.833 10 28.5zM136.996 0v674h-49v-674h49z" />
    <glyph glyph-name="Eth" unicode="&#xd0;" horiz-adv-x="725" 
d="M686 352c0 45.333 -6.49902 86.166 -19.499 122.499s-33.5 69.833 -61.5 100.5c-32 34.667 -74.5 61.334 -127.5 80.001s-115.5 28 -187.5 28c-38 0 -73.667 -1.5 -107 -4.5s-65 -6.5 -95 -10.5v-311h-94v-40h94v-317c29.333 -2.66699 58.166 -4.33398 86.499 -5.00098
s57.833 -1 88.5 -1c76 0 141.833 10 197.5 30s99.834 47.333 132.501 82c35.333 38 59.666 78.833 72.999 122.5s20 84.834 20 123.501zM636.001 354c0 -44.667 -7.16602 -86.3311 -21.499 -124.998s-36.166 -72.334 -65.499 -101.001s-67 -51.334 -113 -68.001
s-101 -25 -165 -25c-27.333 0 -52.5 0.333008 -75.5 1s-42.5 2.33398 -58.5 5.00098v276h239v40h-239v272c17.333 3.33301 38.333 6.33301 63 9s53.334 4 86.001 4c61.333 0 114.166 -7.33301 158.499 -22s80.666 -34.834 108.999 -60.501s49.166 -56 62.499 -91
s20 -73.167 20 -114.5z" />
    <glyph glyph-name="Ntilde" unicode="&#xd1;" horiz-adv-x="706" 
d="M493 802h-30.998c-1.33301 -18.667 -4.5 -30.334 -9.5 -35.001s-11.833 -7 -20.5 -7c-9.33301 0 -18.333 1.5 -27 4.5s-17.334 7.16699 -26.001 12.5c-13.333 7.33301 -25 12.833 -35 16.5s-20 5.5 -30 5.5c-9.33301 0 -17.833 -2.33301 -25.5 -7s-14.167 -11 -19.5 -19
s-9.33301 -17 -12 -27s-4 -20.333 -4 -31h31c1.33301 12.667 4 23.334 8 32.001s10.667 13 20 13s18.333 -2 27 -6l30 -14c14 -7.33301 25.667 -12.5 35 -15.5s18.666 -4.5 27.999 -4.5c21.333 0 36.833 7.5 46.5 22.5s14.5 34.833 14.5 59.5zM618.002 0l0.000976562 674
h-48v-348c0 -52 0.5 -98.833 1.5 -140.5s3.16699 -82.167 6.5 -121.5l-2 -2c-17.333 30 -36.833 59.833 -58.5 89.5l-78.5 107.5l-305 415h-46v-674h48v360c0 50 -0.333008 94.333 -1 133s-2.33398 77 -5.00098 115l3 2c18 -30 39.5 -62.5 64.5 -97.5l80.5 -111.5l295 -401
h45z" />
    <glyph glyph-name="Ograve" unicode="&#xd2;" horiz-adv-x="753" 
d="M410 710l-96 115h-76l132 -115h40zM715 346c0 48.667 -8.16504 93.6699 -24.498 135.003s-39.333 77.166 -69 107.499s-65 54.166 -106 71.499s-86.167 26 -135.5 26c-48 0 -92.833 -8.66699 -134.5 -26s-77.834 -41.833 -108.501 -73.5s-54.834 -69.5 -72.501 -113.5
s-26.5 -92.333 -26.5 -145c0 -49.333 8.5 -94.833 25.5 -136.5s40.5 -77.5 70.5 -107.5s65.5 -53.5 106.5 -70.5s85.5 -25.5 133.5 -25.5c44 0 86.5 7.66699 127.5 23s77.333 38.166 109 68.499s57 67.833 76 112.5s28.5 96 28.5 154zM663.002 342.003
c0 -44.667 -6.66992 -86.167 -20.0029 -124.5s-32.5 -71.5 -57.5 -99.5s-55.5 -50 -91.5 -66s-76.333 -24 -121 -24c-44 0 -83.667 8.33301 -119 25s-65.166 38.834 -89.499 66.501s-43.166 59.667 -56.499 96s-20 74.5 -20 114.5c0 41.333 6 81.166 18 119.499
s30.167 72 54.5 101s54.5 52.167 90.5 69.5s78 26 126 26s89.833 -9 125.5 -27s65.334 -41.5 89.001 -70.5s41.5 -61.5 53.5 -97.5s18 -72.333 18 -109z" />
    <glyph glyph-name="Oacute" unicode="&#xd3;" horiz-adv-x="753" 
d="M521 825h-76l-96 -115h40zM715 346c0 48.667 -8.16504 93.6699 -24.498 135.003s-39.333 77.166 -69 107.499s-65 54.166 -106 71.499s-86.167 26 -135.5 26c-48 0 -92.833 -8.66699 -134.5 -26s-77.834 -41.833 -108.501 -73.5s-54.834 -69.5 -72.501 -113.5
s-26.5 -92.333 -26.5 -145c0 -49.333 8.5 -94.833 25.5 -136.5s40.5 -77.5 70.5 -107.5s65.5 -53.5 106.5 -70.5s85.5 -25.5 133.5 -25.5c44 0 86.5 7.66699 127.5 23s77.333 38.166 109 68.499s57 67.833 76 112.5s28.5 96 28.5 154zM663.002 342.003
c0 -44.667 -6.66992 -86.167 -20.0029 -124.5s-32.5 -71.5 -57.5 -99.5s-55.5 -50 -91.5 -66s-76.333 -24 -121 -24c-44 0 -83.667 8.33301 -119 25s-65.166 38.834 -89.499 66.501s-43.166 59.667 -56.499 96s-20 74.5 -20 114.5c0 41.333 6 81.166 18 119.499
s30.167 72 54.5 101s54.5 52.167 90.5 69.5s78 26 126 26s89.833 -9 125.5 -27s65.334 -41.5 89.001 -70.5s41.5 -61.5 53.5 -97.5s18 -72.333 18 -109z" />
    <glyph glyph-name="Ocircumflex" unicode="&#xd4;" horiz-adv-x="753" 
d="M506 710l-113 115h-36l-109 -115h50l76 79h2l76 -79h54zM715 346c0 48.667 -8.16504 93.6699 -24.498 135.003s-39.333 77.166 -69 107.499s-65 54.166 -106 71.499s-86.167 26 -135.5 26c-48 0 -92.833 -8.66699 -134.5 -26s-77.834 -41.833 -108.501 -73.5
s-54.834 -69.5 -72.501 -113.5s-26.5 -92.333 -26.5 -145c0 -49.333 8.5 -94.833 25.5 -136.5s40.5 -77.5 70.5 -107.5s65.5 -53.5 106.5 -70.5s85.5 -25.5 133.5 -25.5c44 0 86.5 7.66699 127.5 23s77.333 38.166 109 68.499s57 67.833 76 112.5s28.5 96 28.5 154z
M663.002 342.003c0 -44.667 -6.66992 -86.167 -20.0029 -124.5s-32.5 -71.5 -57.5 -99.5s-55.5 -50 -91.5 -66s-76.333 -24 -121 -24c-44 0 -83.667 8.33301 -119 25s-65.166 38.834 -89.499 66.501s-43.166 59.667 -56.499 96s-20 74.5 -20 114.5
c0 41.333 6 81.166 18 119.499s30.167 72 54.5 101s54.5 52.167 90.5 69.5s78 26 126 26s89.833 -9 125.5 -27s65.334 -41.5 89.001 -70.5s41.5 -61.5 53.5 -97.5s18 -72.333 18 -109z" />
    <glyph glyph-name="Otilde" unicode="&#xd5;" horiz-adv-x="753" 
d="M497 802h-30.998c-1.33301 -18.667 -4.5 -30.334 -9.5 -35.001s-11.833 -7 -20.5 -7c-9.33301 0 -18.333 1.5 -27 4.5s-17.334 7.16699 -26.001 12.5c-13.333 7.33301 -25 12.833 -35 16.5s-20 5.5 -30 5.5c-9.33301 0 -17.833 -2.33301 -25.5 -7s-14.167 -11 -19.5 -19
s-9.33301 -17 -12 -27s-4 -20.333 -4 -31h31c1.33301 12.667 4 23.334 8 32.001s10.667 13 20 13s18.333 -2 27 -6l30 -14c14 -7.33301 25.667 -12.5 35 -15.5s18.666 -4.5 27.999 -4.5c21.333 0 36.833 7.5 46.5 22.5s14.5 34.833 14.5 59.5zM715.002 346
c0 48.667 -8.16504 93.6699 -24.498 135.003s-39.333 77.166 -69 107.499s-65 54.166 -106 71.499s-86.167 26 -135.5 26c-48 0 -92.833 -8.66699 -134.5 -26s-77.834 -41.833 -108.501 -73.5s-54.834 -69.5 -72.501 -113.5s-26.5 -92.333 -26.5 -145
c0 -49.333 8.5 -94.833 25.5 -136.5s40.5 -77.5 70.5 -107.5s65.5 -53.5 106.5 -70.5s85.5 -25.5 133.5 -25.5c44 0 86.5 7.66699 127.5 23s77.333 38.166 109 68.499s57 67.833 76 112.5s28.5 96 28.5 154zM663.004 342.003c0 -44.667 -6.66992 -86.167 -20.0029 -124.5
s-32.5 -71.5 -57.5 -99.5s-55.5 -50 -91.5 -66s-76.333 -24 -121 -24c-44 0 -83.667 8.33301 -119 25s-65.166 38.834 -89.499 66.501s-43.166 59.667 -56.499 96s-20 74.5 -20 114.5c0 41.333 6 81.166 18 119.499s30.167 72 54.5 101s54.5 52.167 90.5 69.5s78 26 126 26
s89.833 -9 125.5 -27s65.334 -41.5 89.001 -70.5s41.5 -61.5 53.5 -97.5s18 -72.333 18 -109z" />
    <glyph glyph-name="Odieresis" unicode="&#xd6;" horiz-adv-x="753" 
d="M505 765c0 11.333 -3.50195 21 -10.502 29s-16.167 12 -27.5 12s-20.666 -4.16699 -27.999 -12.5s-11 -17.833 -11 -28.5s3.33301 -20.167 10 -28.5s16 -12.5 28 -12.5c12.667 0 22.334 4.16699 29.001 12.5s10 17.833 10 28.5zM325.998 765
c0 11.333 -3.50195 21 -10.502 29s-16.167 12 -27.5 12s-20.666 -4.16699 -27.999 -12.5s-11 -17.833 -11 -28.5s3.33301 -20.167 10 -28.5s16 -12.5 28 -12.5c12.667 0 22.334 4.16699 29.001 12.5s10 17.833 10 28.5zM714.996 346
c0 48.667 -8.16504 93.6699 -24.498 135.003s-39.333 77.166 -69 107.499s-65 54.166 -106 71.499s-86.167 26 -135.5 26c-48 0 -92.833 -8.66699 -134.5 -26s-77.834 -41.833 -108.501 -73.5s-54.834 -69.5 -72.501 -113.5s-26.5 -92.333 -26.5 -145
c0 -49.333 8.5 -94.833 25.5 -136.5s40.5 -77.5 70.5 -107.5s65.5 -53.5 106.5 -70.5s85.5 -25.5 133.5 -25.5c44 0 86.5 7.66699 127.5 23s77.333 38.166 109 68.499s57 67.833 76 112.5s28.5 96 28.5 154zM662.998 342.003c0 -44.667 -6.66992 -86.167 -20.0029 -124.5
s-32.5 -71.5 -57.5 -99.5s-55.5 -50 -91.5 -66s-76.333 -24 -121 -24c-44 0 -83.667 8.33301 -119 25s-65.166 38.834 -89.499 66.501s-43.166 59.667 -56.499 96s-20 74.5 -20 114.5c0 41.333 6 81.166 18 119.499s30.167 72 54.5 101s54.5 52.167 90.5 69.5s78 26 126 26
s89.833 -9 125.5 -27s65.334 -41.5 89.001 -70.5s41.5 -61.5 53.5 -97.5s18 -72.333 18 -109z" />
    <glyph glyph-name="multiply" unicode="&#xd7;" horiz-adv-x="596" 
d="M556 30l-227 233l227 232l-32 31l-226 -231l-226 231l-32 -31l227 -232l-227 -233l32 -30l226 231l226 -231z" />
    <glyph glyph-name="Oslash" unicode="&#xd8;" horiz-adv-x="753" 
d="M715 346c0 48 -8.50195 93.1641 -25.502 135.497s-41.167 78.5 -72.5 108.5l74 87l-32 25l-72 -85c-59.333 46 -127.666 69 -204.999 69c-47.333 0 -92 -8.5 -134 -25.5s-78.5 -41.167 -109.5 -72.5s-55.5 -68.833 -73.5 -112.5s-27 -92.167 -27 -145.5
c0 -48 8.66699 -93.167 26 -135.5s41.333 -78.833 72 -109.5l-74 -87l29 -26l74 87c29.333 -22.667 62 -40.167 98 -52.5s74.667 -18.5 116 -18.5c40.667 0 81.167 7.33301 121.5 22s76.333 36.834 108 66.501s57.334 66.834 77.001 111.501s29.5 97.334 29.5 158.001z
M663.998 341.997c0 -43.333 -6.5 -83.998 -19.5 -121.998s-32 -71.167 -57 -99.5s-55.333 -50.833 -91 -67.5s-75.834 -25 -120.501 -25c-41.333 0 -76 5.66699 -104 17s-54 27 -78 47l392 463h3c0.666992 -0.666992 1.16699 -1.33398 1.5 -2.00098
s0.833008 -1.33398 1.5 -2.00098c26.667 -33.333 45.334 -67.5 56.001 -102.5s16 -70.5 16 -106.5zM558.998 582.999l-392.001 -462.001l-2 -2c-21.333 27.333 -39.333 57.833 -54 91.5s-22 76.167 -22 127.5c0 38 6.16699 75.5 18.5 112.5s30.5 70 54.5 99
s54.167 52.333 90.5 70s78.5 26.5 126.5 26.5c36.667 0 69.834 -5.66699 99.501 -17s56.5 -26.666 80.5 -45.999z" />
    <glyph glyph-name="Ugrave" unicode="&#xd9;" horiz-adv-x="691" 
d="M389 710l-96 115h-76l132 -115h40zM603 289l0.000976562 385.001h-49v-389c0 -44.667 -5.33301 -83 -16 -115s-25.5 -58.5 -44.5 -79.5s-41.5 -36.5 -67.5 -46.5s-54.667 -15 -86 -15c-28 0 -54.333 4.83301 -79 14.5s-46.167 24.667 -64.5 45
s-32.833 46.666 -43.5 78.999s-16 71.5 -16 117.5v389h-49v-390c0 -55.333 6.83301 -101.833 20.5 -139.5s32 -68 55 -91s49.5 -39.667 79.5 -50s61.333 -15.5 94 -15.5c36 0 70 5.5 102 16.5s60.167 28.5 84.5 52.5s43.666 55.167 57.999 93.5s21.5 84.5 21.5 138.5z" />
    <glyph glyph-name="Uacute" unicode="&#xda;" horiz-adv-x="691" 
d="M485 825h-76l-96 -115h40zM603 289l0.000976562 385.001h-49v-389c0 -44.667 -5.33301 -83 -16 -115s-25.5 -58.5 -44.5 -79.5s-41.5 -36.5 -67.5 -46.5s-54.667 -15 -86 -15c-28 0 -54.333 4.83301 -79 14.5s-46.167 24.667 -64.5 45s-32.833 46.666 -43.5 78.999
s-16 71.5 -16 117.5v389h-49v-390c0 -55.333 6.83301 -101.833 20.5 -139.5s32 -68 55 -91s49.5 -39.667 79.5 -50s61.333 -15.5 94 -15.5c36 0 70 5.5 102 16.5s60.167 28.5 84.5 52.5s43.666 55.167 57.999 93.5s21.5 84.5 21.5 138.5z" />
    <glyph glyph-name="Ucircumflex" unicode="&#xdb;" horiz-adv-x="691" 
d="M480 710l-113 115h-36l-109 -115h50l76 79h2l76 -79h54zM603 289l0.000976562 385.001h-49v-389c0 -44.667 -5.33301 -83 -16 -115s-25.5 -58.5 -44.5 -79.5s-41.5 -36.5 -67.5 -46.5s-54.667 -15 -86 -15c-28 0 -54.333 4.83301 -79 14.5s-46.167 24.667 -64.5 45
s-32.833 46.666 -43.5 78.999s-16 71.5 -16 117.5v389h-49v-390c0 -55.333 6.83301 -101.833 20.5 -139.5s32 -68 55 -91s49.5 -39.667 79.5 -50s61.333 -15.5 94 -15.5c36 0 70 5.5 102 16.5s60.167 28.5 84.5 52.5s43.666 55.167 57.999 93.5s21.5 84.5 21.5 138.5z" />
    <glyph glyph-name="Udieresis" unicode="&#xdc;" horiz-adv-x="691" 
d="M474 765c0 11.333 -3.50195 21 -10.502 29s-16.167 12 -27.5 12s-20.666 -4.16699 -27.999 -12.5s-11 -17.833 -11 -28.5s3.33301 -20.167 10 -28.5s16 -12.5 28 -12.5c12.667 0 22.334 4.16699 29.001 12.5s10 17.833 10 28.5zM294.998 765
c0 11.333 -3.50195 21 -10.502 29s-16.167 12 -27.5 12s-20.666 -4.16699 -27.999 -12.5s-11 -17.833 -11 -28.5s3.33301 -20.167 10 -28.5s16 -12.5 28 -12.5c12.667 0 22.334 4.16699 29.001 12.5s10 17.833 10 28.5zM602.996 289l0.000976562 385.001h-49v-389
c0 -44.667 -5.33301 -83 -16 -115s-25.5 -58.5 -44.5 -79.5s-41.5 -36.5 -67.5 -46.5s-54.667 -15 -86 -15c-28 0 -54.333 4.83301 -79 14.5s-46.167 24.667 -64.5 45s-32.833 46.666 -43.5 78.999s-16 71.5 -16 117.5v389h-49v-390c0 -55.333 6.83301 -101.833 20.5 -139.5
s32 -68 55 -91s49.5 -39.667 79.5 -50s61.333 -15.5 94 -15.5c36 0 70 5.5 102 16.5s60.167 28.5 84.5 52.5s43.666 55.167 57.999 93.5s21.5 84.5 21.5 138.5z" />
    <glyph glyph-name="Yacute" unicode="&#xdd;" horiz-adv-x="541" 
d="M420 825h-76l-96 -115h40zM548 674h-56l-131 -210l-46 -74.5c-14 -23 -26.667 -45.167 -38 -66.5h-2c-12.667 23.333 -25.5 45.833 -38.5 67.5l-43.5 73.5l-125 210h-56l236 -386v-288h49v286z" />
    <glyph glyph-name="Thorn" unicode="&#xde;" horiz-adv-x="548" 
d="M497 371c0 23.333 -4.66797 45.333 -14.001 66s-22 38.667 -38 54c-20.667 19.333 -46.5 33.833 -77.5 43.5s-68.167 14.5 -111.5 14.5c-17.333 0 -36.833 -0.833008 -58.5 -2.5s-42.167 -4.5 -61.5 -8.5v136h-48v-674h48v169
c14.667 -2.66699 30.334 -4.33398 47.001 -5.00098s32.667 -1 48 -1c40 0 76.333 4.66699 109 14s60.667 23 84 41s41.333 39.833 54 65.5s19 54.834 19 87.501zM447.999 362c0 -48.667 -18.498 -87.166 -55.498 -115.499s-89.833 -42.5 -158.5 -42.5
c-15.333 0 -31.333 0.5 -48 1.5s-33.334 3.16699 -50.001 6.5v284c10.667 3.33301 26.667 6.16602 48 8.49902s45.333 3.5 72 3.5c25.333 0 49.666 -2.33301 72.999 -7s43.833 -12.667 61.5 -24s31.667 -26.333 42 -45s15.5 -42 15.5 -70z" />
    <glyph glyph-name="germandbls" unicode="&#xdf;" horiz-adv-x="558" 
d="M506 143c0 18 -2.49805 34.335 -7.49805 49.002s-11.5 28 -19.5 40s-17.167 23.167 -27.5 33.5l-32.5 31.5c-19.333 18 -34.833 33.833 -46.5 47.5s-17.5 31.167 -17.5 52.5c0 19.333 7.33301 36.166 22 50.499s34.334 26.5 59.001 36.5
c4.66699 7.33301 9.5 17.833 14.5 31.5s7.5 30.167 7.5 49.5c0 26 -4.33301 49.167 -13 69.5s-20.5 37.333 -35.5 51s-32.5 24.167 -52.5 31.5s-41.333 11 -64 11c-27.333 0 -52 -3.5 -74 -10.5s-42.333 -18.833 -61 -35.5c-10.667 -9.33301 -20.334 -20.333 -29.001 -33
s-16 -27.667 -22 -45s-10.667 -37.333 -14 -60s-5 -48.667 -5 -78v-546c0 -22.667 -2.66699 -43.5 -8 -62.5s-10.166 -33.167 -14.499 -42.5s-6.83301 -14.666 -7.5 -15.999l49 -10c0.666992 1.33301 3.16699 7.16602 7.5 17.499s9.16602 25.833 14.499 46.5s8 43 8 67v548
c0 76 11.667 131.5 35 166.5s60.333 52.5 111 52.5c42 0 73.833 -11.833 95.5 -35.5s32.5 -54.834 32.5 -93.501c0 -10.667 -0.833008 -19.834 -2.5 -27.501s-3.5 -14.167 -5.5 -19.5c-64 -31.333 -96 -72 -96 -122c0 -24 7.16699 -45.833 21.5 -65.5
s35.166 -41.167 62.499 -64.5c23.333 -20 40.5 -39.333 51.5 -58s16.5 -40.667 16.5 -66c0 -14 -2.5 -27.5 -7.5 -40.5s-12.667 -24.5 -23 -34.5s-23.166 -17.833 -38.499 -23.5s-33.333 -8.5 -54 -8.5c-17.333 0 -34.333 2.33301 -51 7s-34 11.334 -52 20.001l-14 -41
c18 -9.33301 36.833 -16 56.5 -20s39.5 -6 59.5 -6c27.333 0 51.666 4 72.999 12s39.166 19 53.499 33s25.333 30.333 33 49s11.5 39 11.5 61z" />
    <glyph glyph-name="agrave" unicode="&#xe0;" horiz-adv-x="496" 
d="M272 542l-91 140h-74l127 -140h38zM434 0c-3.33301 19.333 -7.16895 38.668 -11.502 58.001s-6.5 38.666 -6.5 57.999v174c0 18.667 -1.83301 39.834 -5.5 63.501s-11.667 45.667 -24 66s-30.5 37.5 -54.5 51.5s-56.333 21 -97 21c-13.333 0 -27 -1 -41 -3l1.5 -8.5
c1 -5.66699 2.5 -16.167 4.5 -31.5c5.33301 0.666992 10.5 1.16699 15.5 1.5s10.167 0.5 15.5 0.5c32 0 57 -5.66699 75 -17s31.5 -24.833 40.5 -40.5s14.667 -31.667 17 -48s3.5 -28.833 3.5 -37.5v-11c-112 1.33301 -194.167 -14.167 -246.5 -46.5
s-78.5 -75.833 -78.5 -130.5c0 -18 4.16699 -36.333 12.5 -55s21.833 -34.667 40.5 -48c9.33301 -6.66699 19.666 -12.334 30.999 -17.001s24 -8 38 -10h2c4.66699 -0.666992 9.33398 -1.16699 14.001 -1.5s9.66699 -0.5 15 -0.5c22 0 42.333 2.66699 61 8
s35.334 12.333 50.001 21s27.334 18 38.001 28s19 19.667 25 29h2l18 -84zM366.997 154.002c0 -8.66699 -1.99902 -18 -5.99902 -28c-4.66699 -10.667 -11.334 -21.834 -20.001 -33.501s-19.667 -22.167 -33 -31.5s-29 -17.166 -47 -23.499s-38.667 -9.5 -62 -9.5
c-28 0 -52.5 8.33301 -73.5 25s-31.5 42 -31.5 76c0 28 8.33301 50.5 25 67.5s38 30 64 39s55.167 14.833 87.5 17.5s64.5 3.66699 96.5 3v-102z" />
    <glyph glyph-name="aacute" unicode="&#xe1;" horiz-adv-x="496" 
d="M366 682h-74l-91 -140h38zM434 0c-3.33301 19.333 -7.16895 38.668 -11.502 58.001s-6.5 38.666 -6.5 57.999v174c0 18.667 -1.83301 39.834 -5.5 63.501s-11.667 45.667 -24 66s-30.5 37.5 -54.5 51.5s-56.333 21 -97 21c-13.333 0 -27 -1 -41 -3l1.5 -8.5
c1 -5.66699 2.5 -16.167 4.5 -31.5c5.33301 0.666992 10.5 1.16699 15.5 1.5s10.167 0.5 15.5 0.5c32 0 57 -5.66699 75 -17s31.5 -24.833 40.5 -40.5s14.667 -31.667 17 -48s3.5 -28.833 3.5 -37.5v-11c-112 1.33301 -194.167 -14.167 -246.5 -46.5
s-78.5 -75.833 -78.5 -130.5c0 -18 4.16699 -36.333 12.5 -55s21.833 -34.667 40.5 -48c9.33301 -6.66699 19.666 -12.334 30.999 -17.001s24 -8 38 -10h2c4.66699 -0.666992 9.33398 -1.16699 14.001 -1.5s9.66699 -0.5 15 -0.5c22 0 42.333 2.66699 61 8
s35.334 12.333 50.001 21s27.334 18 38.001 28s19 19.667 25 29h2l18 -84zM366.997 154.002c0 -8.66699 -1.99902 -18 -5.99902 -28c-4.66699 -10.667 -11.334 -21.834 -20.001 -33.501s-19.667 -22.167 -33 -31.5s-29 -17.166 -47 -23.499s-38.667 -9.5 -62 -9.5
c-28 0 -52.5 8.33301 -73.5 25s-31.5 42 -31.5 76c0 28 8.33301 50.5 25 67.5s38 30 64 39s55.167 14.833 87.5 17.5s64.5 3.66699 96.5 3v-102z" />
    <glyph glyph-name="acircumflex" unicode="&#xe2;" horiz-adv-x="496" 
d="M360 542l-100 140h-38l-96 -140h47l67 102h2l67 -102h51zM434 0c-3.33301 19.333 -7.16895 38.668 -11.502 58.001s-6.5 38.666 -6.5 57.999v174c0 18.667 -1.83301 39.834 -5.5 63.501s-11.667 45.667 -24 66s-30.5 37.5 -54.5 51.5s-56.333 21 -97 21
c-13.333 0 -27 -1 -41 -3l1.5 -8.5c1 -5.66699 2.5 -16.167 4.5 -31.5c5.33301 0.666992 10.5 1.16699 15.5 1.5s10.167 0.5 15.5 0.5c32 0 57 -5.66699 75 -17s31.5 -24.833 40.5 -40.5s14.667 -31.667 17 -48s3.5 -28.833 3.5 -37.5v-11
c-112 1.33301 -194.167 -14.167 -246.5 -46.5s-78.5 -75.833 -78.5 -130.5c0 -18 4.16699 -36.333 12.5 -55s21.833 -34.667 40.5 -48c9.33301 -6.66699 19.666 -12.334 30.999 -17.001s24 -8 38 -10h2c4.66699 -0.666992 9.33398 -1.16699 14.001 -1.5
s9.66699 -0.5 15 -0.5c22 0 42.333 2.66699 61 8s35.334 12.333 50.001 21s27.334 18 38.001 28s19 19.667 25 29h2l18 -84zM366.997 154.002c0 -8.66699 -1.99902 -18 -5.99902 -28c-4.66699 -10.667 -11.334 -21.834 -20.001 -33.501s-19.667 -22.167 -33 -31.5
s-29 -17.166 -47 -23.499s-38.667 -9.5 -62 -9.5c-28 0 -52.5 8.33301 -73.5 25s-31.5 42 -31.5 76c0 28 8.33301 50.5 25 67.5s38 30 64 39s55.167 14.833 87.5 17.5s64.5 3.66699 96.5 3v-102z" />
    <glyph glyph-name="atilde" unicode="&#xe3;" horiz-adv-x="496" 
d="M364 657h-29.999c-1.33301 -17.333 -4.16602 -28.833 -8.49902 -34.5s-9.83301 -8.5 -16.5 -8.5c-9.33301 0 -17.833 1.5 -25.5 4.5s-15.5 6.5 -23.5 10.5l-37.5 18c-9.66699 4.66699 -20.167 7 -31.5 7c-19.333 0 -34 -8.83301 -44 -26.5s-14.667 -37.5 -14 -59.5h31
c1.33301 13.333 4.16602 24.333 8.49902 33s10.833 13 19.5 13c7.33301 0 14.833 -1.5 22.5 -4.5s17.5 -7.83301 29.5 -14.5c11.333 -6 21.833 -11 31.5 -15s19.167 -6 28.5 -6c21.333 0 36.666 7.5 45.999 22.5s14 35.167 14 60.5zM434.001 0
c-3.33301 19.333 -7.16895 38.668 -11.502 58.001s-6.5 38.666 -6.5 57.999v174c0 18.667 -1.83301 39.834 -5.5 63.501s-11.667 45.667 -24 66s-30.5 37.5 -54.5 51.5s-56.333 21 -97 21c-13.333 0 -27 -1 -41 -3l1.5 -8.5c1 -5.66699 2.5 -16.167 4.5 -31.5
c5.33301 0.666992 10.5 1.16699 15.5 1.5s10.167 0.5 15.5 0.5c32 0 57 -5.66699 75 -17s31.5 -24.833 40.5 -40.5s14.667 -31.667 17 -48s3.5 -28.833 3.5 -37.5v-11c-112 1.33301 -194.167 -14.167 -246.5 -46.5s-78.5 -75.833 -78.5 -130.5
c0 -18 4.16699 -36.333 12.5 -55s21.833 -34.667 40.5 -48c9.33301 -6.66699 19.666 -12.334 30.999 -17.001s24 -8 38 -10h2c4.66699 -0.666992 9.33398 -1.16699 14.001 -1.5s9.66699 -0.5 15 -0.5c22 0 42.333 2.66699 61 8s35.334 12.333 50.001 21s27.334 18 38.001 28
s19 19.667 25 29h2l18 -84zM366.998 154.002c0 -8.66699 -1.99902 -18 -5.99902 -28c-4.66699 -10.667 -11.334 -21.834 -20.001 -33.501s-19.667 -22.167 -33 -31.5s-29 -17.166 -47 -23.499s-38.667 -9.5 -62 -9.5c-28 0 -52.5 8.33301 -73.5 25s-31.5 42 -31.5 76
c0 28 8.33301 50.5 25 67.5s38 30 64 39s55.167 14.833 87.5 17.5s64.5 3.66699 96.5 3v-102z" />
    <glyph glyph-name="adieresis" unicode="&#xe4;" horiz-adv-x="496" 
d="M376 605c0 11.333 -3.50195 21 -10.502 29s-16.167 12 -27.5 12s-20.666 -4.16699 -27.999 -12.5s-11 -17.833 -11 -28.5s3.33301 -20.167 10 -28.5s16 -12.5 28 -12.5c12.667 0 22.334 4.16699 29.001 12.5s10 17.833 10 28.5zM196.998 605
c0 11.333 -3.50195 21 -10.502 29s-16.167 12 -27.5 12s-20.666 -4.16699 -27.999 -12.5s-11 -17.833 -11 -28.5s3.33301 -20.167 10 -28.5s16 -12.5 28 -12.5c12.667 0 22.334 4.16699 29.001 12.5s10 17.833 10 28.5zM433.996 0
c-3.33301 19.333 -7.16895 38.668 -11.502 58.001s-6.5 38.666 -6.5 57.999v174c0 18.667 -1.83301 39.834 -5.5 63.501s-11.667 45.667 -24 66s-30.5 37.5 -54.5 51.5s-56.333 21 -97 21c-13.333 0 -27 -1 -41 -3l1.5 -8.5c1 -5.66699 2.5 -16.167 4.5 -31.5
c5.33301 0.666992 10.5 1.16699 15.5 1.5s10.167 0.5 15.5 0.5c32 0 57 -5.66699 75 -17s31.5 -24.833 40.5 -40.5s14.667 -31.667 17 -48s3.5 -28.833 3.5 -37.5v-11c-112 1.33301 -194.167 -14.167 -246.5 -46.5s-78.5 -75.833 -78.5 -130.5
c0 -18 4.16699 -36.333 12.5 -55s21.833 -34.667 40.5 -48c9.33301 -6.66699 19.666 -12.334 30.999 -17.001s24 -8 38 -10h2c4.66699 -0.666992 9.33398 -1.16699 14.001 -1.5s9.66699 -0.5 15 -0.5c22 0 42.333 2.66699 61 8s35.334 12.333 50.001 21s27.334 18 38.001 28
s19 19.667 25 29h2l18 -84zM366.993 154.002c0 -8.66699 -1.99902 -18 -5.99902 -28c-4.66699 -10.667 -11.334 -21.834 -20.001 -33.501s-19.667 -22.167 -33 -31.5s-29 -17.166 -47 -23.499s-38.667 -9.5 -62 -9.5c-28 0 -52.5 8.33301 -73.5 25s-31.5 42 -31.5 76
c0 28 8.33301 50.5 25 67.5s38 30 64 39s55.167 14.833 87.5 17.5s64.5 3.66699 96.5 3v-102z" />
    <glyph glyph-name="aring" unicode="&#xe5;" horiz-adv-x="496" 
d="M339 623c0 26 -8.83203 47.832 -26.499 65.499s-39.834 26.5 -66.501 26.5c-27.333 0 -50 -9 -68 -27s-27 -39.667 -27 -65s9 -46.666 27 -63.999s40.667 -26 68 -26c12 0 23.667 2.33301 35 7s21.333 11 30 19s15.5 17.5 20.5 28.5s7.5 22.833 7.5 35.5z
M434.001 -0.000976562c-3.33301 19.333 -7.16895 38.668 -11.502 58.001s-6.5 38.666 -6.5 57.999v174c0 18.667 -1.83301 39.834 -5.5 63.501s-11.667 45.667 -24 66s-30.5 37.5 -54.5 51.5s-56.333 21 -97 21c-13.333 0 -27 -1 -41 -3l1.5 -8.5
c1 -5.66699 2.5 -16.167 4.5 -31.5c5.33301 0.666992 10.5 1.16699 15.5 1.5s10.167 0.5 15.5 0.5c32 0 57 -5.66699 75 -17s31.5 -24.833 40.5 -40.5s14.667 -31.667 17 -48s3.5 -28.833 3.5 -37.5v-11c-112 1.33301 -194.167 -14.167 -246.5 -46.5
s-78.5 -75.833 -78.5 -130.5c0 -18 4.16699 -36.333 12.5 -55s21.833 -34.667 40.5 -48c9.33301 -6.66699 19.666 -12.334 30.999 -17.001s24 -8 38 -10h2c4.66699 -0.666992 9.33398 -1.16699 14.001 -1.5s9.66699 -0.5 15 -0.5c22 0 42.333 2.66699 61 8
s35.334 12.333 50.001 21s27.334 18 38.001 28s19 19.667 25 29h2l18 -84zM300.998 624.001c0 -16.667 -5.16895 -30.999 -15.502 -42.999s-23.833 -18 -40.5 -18c-15.333 0 -28.166 6.16699 -38.499 18.5s-15.5 26.166 -15.5 41.499c0 17.333 4.83301 32 14.5 44
s22.834 18 39.501 18s30.167 -5.83301 40.5 -17.5s15.5 -26.167 15.5 -43.5zM366.996 154.002c0 -8.66699 -1.99902 -18 -5.99902 -28c-4.66699 -10.667 -11.334 -21.834 -20.001 -33.501s-19.667 -22.167 -33 -31.5s-29 -17.166 -47 -23.499s-38.667 -9.5 -62 -9.5
c-28 0 -52.5 8.33301 -73.5 25s-31.5 42 -31.5 76c0 28 8.33301 50.5 25 67.5s38 30 64 39s55.167 14.833 87.5 17.5s64.5 3.66699 96.5 3v-102z" />
    <glyph glyph-name="ae" unicode="&#xe6;" horiz-adv-x="835" 
d="M819 270c0 16 -2.49316 36.502 -7.49316 61.502s-15 49.5 -30 73.5s-36.167 44.5 -63.5 61.5s-63.333 25.5 -108 25.5c-46 0 -87.167 -10.667 -123.5 -32s-64.833 -52 -85.5 -92h-1c-4 17.333 -10 33.5 -18 48.5s-18.833 28.167 -32.5 39.5
s-30.334 20.166 -50.001 26.499s-42.834 9.5 -69.501 9.5c-16 0 -38.167 -2.83301 -66.5 -8.5s-57.166 -18.167 -86.499 -37.5l16 -35c15.333 12 36 21.667 62 29s51 11 75 11c32 0 57.167 -6.66699 75.5 -20s32.166 -28.333 41.499 -45s15.166 -32.834 17.499 -48.501
s3.5 -25.5 3.5 -29.5v-20c-56 1.33301 -104.5 -2 -145.5 -10s-74.833 -19.667 -101.5 -35s-46.334 -34 -59.001 -56s-19 -46 -19 -72c0 -14 2.66699 -28.333 8 -43s14 -28.334 26 -41.001s27.667 -23 47 -31s42.666 -12 69.999 -12c45.333 0 86.166 10.667 122.499 32
s62.166 53 77.499 95h1c19.333 -38.667 48 -69.5 86 -92.5s83 -34.5 135 -34.5c12 0 23.5 0.333008 34.5 1s21.167 1.66699 30.5 3l-4 41c-16 -2 -34.667 -3 -56 -3c-28.667 0 -55.334 4.33301 -80.001 13s-46.167 21.834 -64.5 39.501s-32.666 39.5 -42.999 65.5
s-15.5 56.667 -15.5 92h399c1.33301 4 2 8 2 12v18zM768.007 279.002h-347.001c2.66699 18 8 37.167 16 57.5s19.167 39 33.5 56s32.5 31.167 54.5 42.5s48.333 17 79 17c36 0 64.833 -6.66699 86.5 -20s38.334 -29.333 50.001 -48s19.167 -37.667 22.5 -57s5 -35.333 5 -48
zM368.006 174.002c0 -14 -1.99805 -27.3311 -5.99805 -39.998c-4.66699 -13.333 -11.334 -26.5 -20.001 -39.5s-19.834 -24.5 -33.501 -34.5s-29.5 -17.833 -47.5 -23.5s-38.667 -8.5 -62 -8.5c-30 0 -55.167 8.33301 -75.5 25s-30.5 39 -30.5 67
c0 29.333 8.66699 52.666 26 69.999s39.5 30.5 66.5 39.5s56.667 14.667 89 17s63.5 3.16602 93.5 2.49902v-75z" />
    <glyph glyph-name="ccedilla" unicode="&#xe7;" horiz-adv-x="498" 
d="M462 458c-10 7.33301 -27.8311 14.834 -53.498 22.501s-56.5 11.5 -92.5 11.5c-38.667 0 -74.667 -6 -108 -18s-62.166 -29.167 -86.499 -51.5s-43.5 -49.5 -57.5 -81.5s-21 -68 -21 -108c0 -32 5.33301 -62.167 16 -90.5s25.667 -53.333 45 -75
s42.833 -39.334 70.5 -53.001s58.167 -21.834 91.5 -24.501l-47 -71c22.667 -2 41.667 -6 57 -12s23.333 -16.667 24 -32c0.666992 -13.333 -4.33301 -22.666 -15 -27.999s-22.667 -8 -36 -8c-22 0 -40.333 4.33301 -55 13l-11 -35c7.33301 -4.66699 17 -8.33398 29 -11.001
s22.333 -4 31 -4c28 0 51.5 6 70.5 18s28.5 32 28.5 60c0 18.667 -7 33.667 -21 45s-30.333 18.333 -49 21l30 42c40 0.666992 73.5 5.33398 100.5 14.001s45.5 15.667 55.5 21l-14 39c-14 -6 -32.167 -12.833 -54.5 -20.5s-50.833 -11.5 -85.5 -11.5
c-30.667 0 -58.834 5 -84.501 15s-48 24.167 -67 42.5s-33.833 40.333 -44.5 66s-16 54.167 -16 85.5c0 29.333 4.83301 56.833 14.5 82.5s23.667 48 42 67s41.166 34 68.499 45s59 16.5 95 16.5c31.333 0 57.666 -3.33301 78.999 -10s39 -14 53 -22z" />
    <glyph glyph-name="egrave" unicode="&#xe8;" horiz-adv-x="537" 
d="M338 542l-91 140h-74l127 -140h38zM492 270c0 16 -2.5 36.5 -7.5 61.5s-15 49.5 -30 73.5s-36.167 44.5 -63.5 61.5s-63.333 25.5 -108 25.5c-34 0 -65.667 -6.16699 -95 -18.5s-54.666 -29.833 -75.999 -52.5s-38.166 -50.334 -50.499 -83.001
s-18.5 -69.334 -18.5 -110.001c0 -34.667 5.83301 -66.667 17.5 -96s28.167 -54.666 49.5 -75.999s47.166 -38 77.499 -50s64.166 -18 101.499 -18c12 0 23.5 0.333008 34.5 1s21.167 1.66699 30.5 3l-4 41c-16 -2 -34.667 -3 -56 -3c-28.667 0 -55.334 4.33301 -80.001 13
s-46.167 21.834 -64.5 39.501s-32.666 39.5 -42.999 65.5s-15.5 56.667 -15.5 92h399c1.33301 4 2 8 2 12v18zM441 279h-347.001c2.66699 18 8 37.167 16 57.5s19.167 39 33.5 56s32.5 31.167 54.5 42.5s48.333 17 79 17c36 0 64.833 -6.66699 86.5 -20
s38.334 -29.333 50.001 -48s19.167 -37.667 22.5 -57s5 -35.333 5 -48z" />
    <glyph glyph-name="eacute" unicode="&#xe9;" horiz-adv-x="537" 
d="M407 682h-74l-91 -140h38zM492 270c0 16 -2.5 36.5 -7.5 61.5s-15 49.5 -30 73.5s-36.167 44.5 -63.5 61.5s-63.333 25.5 -108 25.5c-34 0 -65.667 -6.16699 -95 -18.5s-54.666 -29.833 -75.999 -52.5s-38.166 -50.334 -50.499 -83.001s-18.5 -69.334 -18.5 -110.001
c0 -34.667 5.83301 -66.667 17.5 -96s28.167 -54.666 49.5 -75.999s47.166 -38 77.499 -50s64.166 -18 101.499 -18c12 0 23.5 0.333008 34.5 1s21.167 1.66699 30.5 3l-4 41c-16 -2 -34.667 -3 -56 -3c-28.667 0 -55.334 4.33301 -80.001 13s-46.167 21.834 -64.5 39.501
s-32.666 39.5 -42.999 65.5s-15.5 56.667 -15.5 92h399c1.33301 4 2 8 2 12v18zM441 279h-347.001c2.66699 18 8 37.167 16 57.5s19.167 39 33.5 56s32.5 31.167 54.5 42.5s48.333 17 79 17c36 0 64.833 -6.66699 86.5 -20s38.334 -29.333 50.001 -48
s19.167 -37.667 22.5 -57s5 -35.333 5 -48z" />
    <glyph glyph-name="ecircumflex" unicode="&#xea;" horiz-adv-x="537" 
d="M400 542l-100 140h-38l-96 -140h47l67 102h2l67 -102h51zM492 270c0 16 -2.5 36.5 -7.5 61.5s-15 49.5 -30 73.5s-36.167 44.5 -63.5 61.5s-63.333 25.5 -108 25.5c-34 0 -65.667 -6.16699 -95 -18.5s-54.666 -29.833 -75.999 -52.5s-38.166 -50.334 -50.499 -83.001
s-18.5 -69.334 -18.5 -110.001c0 -34.667 5.83301 -66.667 17.5 -96s28.167 -54.666 49.5 -75.999s47.166 -38 77.499 -50s64.166 -18 101.499 -18c12 0 23.5 0.333008 34.5 1s21.167 1.66699 30.5 3l-4 41c-16 -2 -34.667 -3 -56 -3c-28.667 0 -55.334 4.33301 -80.001 13
s-46.167 21.834 -64.5 39.501s-32.666 39.5 -42.999 65.5s-15.5 56.667 -15.5 92h399c1.33301 4 2 8 2 12v18zM441 279h-347.001c2.66699 18 8 37.167 16 57.5s19.167 39 33.5 56s32.5 31.167 54.5 42.5s48.333 17 79 17c36 0 64.833 -6.66699 86.5 -20
s38.334 -29.333 50.001 -48s19.167 -37.667 22.5 -57s5 -35.333 5 -48z" />
    <glyph glyph-name="edieresis" unicode="&#xeb;" horiz-adv-x="537" 
d="M417 605c0 11.333 -3.50195 21 -10.502 29s-16.167 12 -27.5 12s-20.666 -4.16699 -27.999 -12.5s-11 -17.833 -11 -28.5s3.33301 -20.167 10 -28.5s16 -12.5 28 -12.5c12.667 0 22.334 4.16699 29.001 12.5s10 17.833 10 28.5zM237.998 605
c0 11.333 -3.50195 21 -10.502 29s-16.167 12 -27.5 12s-20.666 -4.16699 -27.999 -12.5s-11 -17.833 -11 -28.5s3.33301 -20.167 10 -28.5s16 -12.5 28 -12.5c12.667 0 22.334 4.16699 29.001 12.5s10 17.833 10 28.5zM491.996 270c0 16 -2.5 36.5 -7.5 61.5
s-15 49.5 -30 73.5s-36.167 44.5 -63.5 61.5s-63.333 25.5 -108 25.5c-34 0 -65.667 -6.16699 -95 -18.5s-54.666 -29.833 -75.999 -52.5s-38.166 -50.334 -50.499 -83.001s-18.5 -69.334 -18.5 -110.001c0 -34.667 5.83301 -66.667 17.5 -96s28.167 -54.666 49.5 -75.999
s47.166 -38 77.499 -50s64.166 -18 101.499 -18c12 0 23.5 0.333008 34.5 1s21.167 1.66699 30.5 3l-4 41c-16 -2 -34.667 -3 -56 -3c-28.667 0 -55.334 4.33301 -80.001 13s-46.167 21.834 -64.5 39.501s-32.666 39.5 -42.999 65.5s-15.5 56.667 -15.5 92h399
c1.33301 4 2 8 2 12v18zM440.996 279h-347.001c2.66699 18 8 37.167 16 57.5s19.167 39 33.5 56s32.5 31.167 54.5 42.5s48.333 17 79 17c36 0 64.833 -6.66699 86.5 -20s38.334 -29.333 50.001 -48s19.167 -37.667 22.5 -57s5 -35.333 5 -48z" />
    <glyph glyph-name="igrave" unicode="&#xec;" horiz-adv-x="225" 
d="M141 542l-91 140h-74l127 -140h38zM137 0v480h-49v-480h49z" />
    <glyph glyph-name="iacute" unicode="&#xed;" horiz-adv-x="225" 
d="M246 682h-74l-91 -140h38zM137 0v480h-49v-480h49z" />
    <glyph glyph-name="icircumflex" unicode="&#xee;" horiz-adv-x="225" 
d="M230 542l-100 140h-38l-96 -140h47l67 102h2l67 -102h51zM137 0v480h-49v-480h49z" />
    <glyph glyph-name="idieresis" unicode="&#xef;" horiz-adv-x="225" 
d="M241 605c0 11.333 -3.50195 21 -10.502 29s-16.167 12 -27.5 12s-20.666 -4.16699 -27.999 -12.5s-11 -17.833 -11 -28.5s3.33301 -20.167 10 -28.5s16 -12.5 28 -12.5c12.667 0 22.334 4.16699 29.001 12.5s10 17.833 10 28.5zM61.998 605
c0 11.333 -3.50195 21 -10.502 29s-16.167 12 -27.5 12s-20.666 -4.16699 -27.999 -12.5s-11 -17.833 -11 -28.5s3.33301 -20.167 10 -28.5s16 -12.5 28 -12.5c12.667 0 22.334 4.16699 29.001 12.5s10 17.833 10 28.5zM136.996 0v480h-49v-480h49z" />
    <glyph glyph-name="eth" unicode="&#xf0;" horiz-adv-x="578" 
d="M532 253c0 36 -3.83301 70 -11.5 102s-18.834 62.667 -33.501 92c-17.333 34.667 -38.5 66.834 -63.5 96.501s-53.5 56.5 -85.5 80.5l113 53l-16 37l-132 -64c-22 15.333 -45.5 29.666 -70.5 42.999s-50.167 25 -75.5 35l-20 -40c22 -8 43.833 -17.167 65.5 -27.5
s40.5 -21.166 56.5 -32.499l-135 -63l14 -35l158 73c36.667 -27.333 68 -55.666 94 -84.999s48.333 -60.333 67 -93l-2 -3c-28.667 28.667 -56.667 47.5 -84 56.5s-55.333 13.5 -84 13.5c-30 0 -59.5 -6 -88.5 -18s-55 -29.167 -78 -51.5s-41.5 -49.5 -55.5 -81.5
s-21 -68 -21 -108c0 -35.333 5.83301 -67.833 17.5 -97.5s28 -55.5 49 -77.5s46.333 -39.167 76 -51.5s62.167 -18.5 97.5 -18.5c30 0 59.667 5 89 15s55.833 25.667 79.5 47s42.834 48.666 57.501 81.999s22 73.666 22 120.999zM481 246
c0 -35.333 -5.16504 -66.6689 -15.498 -94.002s-24.5 -50.166 -42.5 -68.499s-39 -32.166 -63 -41.499s-50 -14 -78 -14c-24 0 -47.333 4.66699 -70 14s-42.834 22.666 -60.501 39.999s-32 38.833 -43 64.5s-16.5 55.167 -16.5 88.5c0 24.667 3.83301 49.834 11.5 75.501
s19.5 49 35.5 70s36.333 38.167 61 51.5s53.667 20 87 20c34.667 0 63.667 -6 87 -18s42.666 -25.333 57.999 -40c18 -17.333 30.667 -37 38 -59s11 -51.667 11 -89z" />
    <glyph glyph-name="ntilde" unicode="&#xf1;" horiz-adv-x="591" 
d="M412 657h-29.999c-1.33301 -17.333 -4.16602 -28.833 -8.49902 -34.5s-9.83301 -8.5 -16.5 -8.5c-9.33301 0 -17.833 1.5 -25.5 4.5s-15.5 6.5 -23.5 10.5l-37.5 18c-9.66699 4.66699 -20.167 7 -31.5 7c-19.333 0 -34 -8.83301 -44 -26.5s-14.667 -37.5 -14 -59.5h31
c1.33301 13.333 4.16602 24.333 8.49902 33s10.833 13 19.5 13c7.33301 0 14.833 -1.5 22.5 -4.5s17.5 -7.83301 29.5 -14.5c11.333 -6 21.833 -11 31.5 -15s19.167 -6 28.5 -6c21.333 0 36.666 7.5 45.999 22.5s14 35.167 14 60.5zM538.001 0
c-0.666992 1.33301 -3.16602 6.99512 -7.49902 16.9951s-9.16602 23 -14.499 39s-8 30.333 -8 43v174c0 33.333 -3.66699 61.833 -11 85.5s-16.666 43.667 -27.999 60s-24 29.333 -38 39s-28 17 -42 22s-27 8.33301 -39 10s-21.667 2.5 -29 2.5
c-22 0 -42.667 -2.83301 -62 -8.5s-36.833 -13.5 -52.5 -23.5s-29.5 -21.5 -41.5 -34.5s-21.667 -26.833 -29 -41.5h-2l-4 96h-46c1.33301 -19.333 2.33301 -38.666 3 -57.999s1 -38.666 1 -57.999v-364h49v293c0 7.33301 0.833008 15 2.5 23s3.5 14.667 5.5 20
c5.33301 15.333 13.333 29.833 24 43.5s23 25.834 37 36.501s29.667 19 47 25s35.666 9 54.999 9c27.333 0 50.666 -4.83301 69.999 -14.5s35 -22.667 47 -39s20.667 -35.166 26 -56.499s8 -43.666 8 -66.999v-174c0 -22 2.66699 -42.5 8 -61.5s10.166 -33 14.499 -42
l7.5 -15.5z" />
    <glyph glyph-name="ograve" unicode="&#xf2;" horiz-adv-x="591" 
d="M345 542l-91 140h-74l127 -140h38zM548 246c0 34 -5.83105 66 -17.498 96s-28.334 56.167 -50.001 78.5s-48 39.833 -79 52.5s-65.833 19 -104.5 19c-33.333 0 -65.333 -5.83301 -96 -17.5s-57.667 -28.667 -81 -51s-42 -49.333 -56 -81s-21 -67.5 -21 -107.5
c0 -35.333 6.16699 -68.166 18.5 -98.499s29.5 -56.5 51.5 -78.5s48.167 -39.167 78.5 -51.5s63.5 -18.5 99.5 -18.5c29.333 0 59.166 5 89.499 15s58 25.5 83 46.5s45.333 47.667 61 80s23.5 71.166 23.5 116.499zM498.002 243c0 -34.667 -5.83398 -65.334 -17.501 -92.001
s-27 -49.167 -46 -67.5s-41 -32.166 -66 -41.499s-50.833 -14 -77.5 -14c-26 0 -51 4.66699 -75 14s-45.167 23 -63.5 41s-33.166 40 -44.499 66s-17 55.667 -17 89c0 28 4.33301 54.833 13 80.5s21.5 48.5 38.5 68.5s38.333 35.833 64 47.5s55.5 17.5 89.5 17.5
c35.333 0 65.666 -6.66699 90.999 -20s46.333 -30.166 63 -50.499s28.834 -42.833 36.501 -67.5s11.5 -48.334 11.5 -71.001z" />
    <glyph glyph-name="oacute" unicode="&#xf3;" horiz-adv-x="591" 
d="M414 682h-74l-91 -140h38zM548 246c0 34 -5.83105 66 -17.498 96s-28.334 56.167 -50.001 78.5s-48 39.833 -79 52.5s-65.833 19 -104.5 19c-33.333 0 -65.333 -5.83301 -96 -17.5s-57.667 -28.667 -81 -51s-42 -49.333 -56 -81s-21 -67.5 -21 -107.5
c0 -35.333 6.16699 -68.166 18.5 -98.499s29.5 -56.5 51.5 -78.5s48.167 -39.167 78.5 -51.5s63.5 -18.5 99.5 -18.5c29.333 0 59.166 5 89.499 15s58 25.5 83 46.5s45.333 47.667 61 80s23.5 71.166 23.5 116.499zM498.002 243c0 -34.667 -5.83398 -65.334 -17.501 -92.001
s-27 -49.167 -46 -67.5s-41 -32.166 -66 -41.499s-50.833 -14 -77.5 -14c-26 0 -51 4.66699 -75 14s-45.167 23 -63.5 41s-33.166 40 -44.499 66s-17 55.667 -17 89c0 28 4.33301 54.833 13 80.5s21.5 48.5 38.5 68.5s38.333 35.833 64 47.5s55.5 17.5 89.5 17.5
c35.333 0 65.666 -6.66699 90.999 -20s46.333 -30.166 63 -50.499s28.834 -42.833 36.501 -67.5s11.5 -48.334 11.5 -71.001z" />
    <glyph glyph-name="ocircumflex" unicode="&#xf4;" horiz-adv-x="591" 
d="M413 542l-100 140h-38l-96 -140h47l67 102h2l67 -102h51zM548 246c0 34 -5.83105 66 -17.498 96s-28.334 56.167 -50.001 78.5s-48 39.833 -79 52.5s-65.833 19 -104.5 19c-33.333 0 -65.333 -5.83301 -96 -17.5s-57.667 -28.667 -81 -51s-42 -49.333 -56 -81
s-21 -67.5 -21 -107.5c0 -35.333 6.16699 -68.166 18.5 -98.499s29.5 -56.5 51.5 -78.5s48.167 -39.167 78.5 -51.5s63.5 -18.5 99.5 -18.5c29.333 0 59.166 5 89.499 15s58 25.5 83 46.5s45.333 47.667 61 80s23.5 71.166 23.5 116.499zM498.002 243
c0 -34.667 -5.83398 -65.334 -17.501 -92.001s-27 -49.167 -46 -67.5s-41 -32.166 -66 -41.499s-50.833 -14 -77.5 -14c-26 0 -51 4.66699 -75 14s-45.167 23 -63.5 41s-33.166 40 -44.499 66s-17 55.667 -17 89c0 28 4.33301 54.833 13 80.5s21.5 48.5 38.5 68.5
s38.333 35.833 64 47.5s55.5 17.5 89.5 17.5c35.333 0 65.666 -6.66699 90.999 -20s46.333 -30.166 63 -50.499s28.834 -42.833 36.501 -67.5s11.5 -48.334 11.5 -71.001z" />
    <glyph glyph-name="otilde" unicode="&#xf5;" horiz-adv-x="591" 
d="M412 657h-29.999c-1.33301 -17.333 -4.16602 -28.833 -8.49902 -34.5s-9.83301 -8.5 -16.5 -8.5c-9.33301 0 -17.833 1.5 -25.5 4.5s-15.5 6.5 -23.5 10.5l-37.5 18c-9.66699 4.66699 -20.167 7 -31.5 7c-19.333 0 -34 -8.83301 -44 -26.5s-14.667 -37.5 -14 -59.5h31
c1.33301 13.333 4.16602 24.333 8.49902 33s10.833 13 19.5 13c7.33301 0 14.833 -1.5 22.5 -4.5s17.5 -7.83301 29.5 -14.5c11.333 -6 21.833 -11 31.5 -15s19.167 -6 28.5 -6c21.333 0 36.666 7.5 45.999 22.5s14 35.167 14 60.5zM548.001 246
c0 34 -5.83105 66 -17.498 96s-28.334 56.167 -50.001 78.5s-48 39.833 -79 52.5s-65.833 19 -104.5 19c-33.333 0 -65.333 -5.83301 -96 -17.5s-57.667 -28.667 -81 -51s-42 -49.333 -56 -81s-21 -67.5 -21 -107.5c0 -35.333 6.16699 -68.166 18.5 -98.499
s29.5 -56.5 51.5 -78.5s48.167 -39.167 78.5 -51.5s63.5 -18.5 99.5 -18.5c29.333 0 59.166 5 89.499 15s58 25.5 83 46.5s45.333 47.667 61 80s23.5 71.166 23.5 116.499zM498.003 243c0 -34.667 -5.83398 -65.334 -17.501 -92.001s-27 -49.167 -46 -67.5
s-41 -32.166 -66 -41.499s-50.833 -14 -77.5 -14c-26 0 -51 4.66699 -75 14s-45.167 23 -63.5 41s-33.166 40 -44.499 66s-17 55.667 -17 89c0 28 4.33301 54.833 13 80.5s21.5 48.5 38.5 68.5s38.333 35.833 64 47.5s55.5 17.5 89.5 17.5
c35.333 0 65.666 -6.66699 90.999 -20s46.333 -30.166 63 -50.499s28.834 -42.833 36.501 -67.5s11.5 -48.334 11.5 -71.001z" />
    <glyph glyph-name="odieresis" unicode="&#xf6;" horiz-adv-x="591" 
d="M424 605c0 11.333 -3.50195 21 -10.502 29s-16.167 12 -27.5 12s-20.666 -4.16699 -27.999 -12.5s-11 -17.833 -11 -28.5s3.33301 -20.167 10 -28.5s16 -12.5 28 -12.5c12.667 0 22.334 4.16699 29.001 12.5s10 17.833 10 28.5zM244.998 605
c0 11.333 -3.50195 21 -10.502 29s-16.167 12 -27.5 12s-20.666 -4.16699 -27.999 -12.5s-11 -17.833 -11 -28.5s3.33301 -20.167 10 -28.5s16 -12.5 28 -12.5c12.667 0 22.334 4.16699 29.001 12.5s10 17.833 10 28.5zM547.996 246c0 34 -5.83105 66 -17.498 96
s-28.334 56.167 -50.001 78.5s-48 39.833 -79 52.5s-65.833 19 -104.5 19c-33.333 0 -65.333 -5.83301 -96 -17.5s-57.667 -28.667 -81 -51s-42 -49.333 -56 -81s-21 -67.5 -21 -107.5c0 -35.333 6.16699 -68.166 18.5 -98.499s29.5 -56.5 51.5 -78.5
s48.167 -39.167 78.5 -51.5s63.5 -18.5 99.5 -18.5c29.333 0 59.166 5 89.499 15s58 25.5 83 46.5s45.333 47.667 61 80s23.5 71.166 23.5 116.499zM497.998 243c0 -34.667 -5.83398 -65.334 -17.501 -92.001s-27 -49.167 -46 -67.5s-41 -32.166 -66 -41.499
s-50.833 -14 -77.5 -14c-26 0 -51 4.66699 -75 14s-45.167 23 -63.5 41s-33.166 40 -44.499 66s-17 55.667 -17 89c0 28 4.33301 54.833 13 80.5s21.5 48.5 38.5 68.5s38.333 35.833 64 47.5s55.5 17.5 89.5 17.5c35.333 0 65.666 -6.66699 90.999 -20
s46.333 -30.166 63 -50.499s28.834 -42.833 36.501 -67.5s11.5 -48.334 11.5 -71.001z" />
    <glyph glyph-name="divide" unicode="&#xf7;" horiz-adv-x="596" 
d="M341 440c0 13.333 -3.83105 24.5 -11.498 33.5s-17.834 13.5 -30.501 13.5s-22.834 -4.5 -30.501 -13.5s-11.834 -20.167 -12.501 -33.5c0 -12 3.83301 -22.667 11.5 -32s17.834 -14 30.501 -14c13.333 0 23.833 4.66699 31.5 14s11.5 20 11.5 32zM555.002 247v40h-516
v-40h516zM340.002 93c0 13.333 -3.83105 24.5 -11.498 33.5s-17.834 13.5 -30.501 13.5s-22.834 -4.5 -30.501 -13.5s-11.834 -20.167 -12.501 -33.5c0 -12 3.83301 -22.667 11.5 -32s17.834 -14 30.501 -14c13.333 0 23.833 4.66699 31.5 14s11.5 20 11.5 32z" />
    <glyph glyph-name="oslash" unicode="&#xf8;" horiz-adv-x="591" 
d="M548 247c0 34 -6.49805 66.5039 -19.498 97.5039s-32.167 58.5 -57.5 82.5l45 57l-31 23l-45 -56c-20.667 13.333 -43.167 23.5 -67.5 30.5s-49.166 10.5 -74.499 10.5c-34 0 -66.333 -5.83301 -97 -17.5s-57.834 -28.667 -81.501 -51s-42.334 -49.333 -56.001 -81
s-20.5 -67.5 -20.5 -107.5c0 -36.667 6.83301 -70.334 20.5 -101.001s32.5 -57.334 56.5 -80.001l-45 -55l28 -26l47 57c20 -14 42.5 -24.5 67.5 -31.5s50.833 -10.5 77.5 -10.5c29.333 0 59 5 89 15s57.167 25.667 81.5 47s44.166 48.166 59.499 80.499
s23 71.166 23 116.499zM500.002 244.004c0 -34 -5.5 -64.334 -16.5 -91.001s-25.833 -49.167 -44.5 -67.5s-40.5 -32.5 -65.5 -42.5s-51.5 -15 -79.5 -15h-3c-20 0 -39.5 2.5 -58.5 7.5s-37.167 14.167 -54.5 27.5l264 328h2c21.333 -23.333 36 -48.666 44 -75.999
s12 -51 12 -71zM415.002 416.003l-265.002 -328.002h-2c-19.333 20.667 -33.333 43.834 -42 69.501s-13 52.5 -13 80.5c0 26.667 4 52.834 12 78.501s20.333 48.5 37 68.5s37.834 36.167 63.501 48.5s55.834 18.5 90.501 18.5h4c46 -1.33301 84.333 -13.333 115 -36z" />
    <glyph glyph-name="ugrave" unicode="&#xf9;" horiz-adv-x="586" 
d="M347 542l-91 140h-74l127 -140h38zM522 0c-7.33301 17.333 -13.1631 36.1699 -17.4961 56.5029s-6.5 40.166 -6.5 59.499v364h-49v-291c0 -10.667 -1.16699 -20.834 -3.5 -30.501s-5.16602 -18.167 -8.49902 -25.5c-12.667 -28 -33.334 -52 -62.001 -72
s-61.334 -30 -98.001 -30c-26.667 0 -49.167 4.66699 -67.5 14s-33.333 22.333 -45 39s-20 36.667 -25 60s-7.5 49 -7.5 77v259h-49v-269c0 -51.333 6.83301 -91.666 20.5 -120.999s30.167 -51.666 49.5 -66.999s39.166 -25 59.499 -29s37.5 -6 51.5 -6
c24 0 46 3.16699 66 9.5s37.667 14.666 53 24.999s28.666 22 39.999 35s20.666 26.167 27.999 39.5h2c0 -0.666992 0.333008 -3.83398 1 -9.50098s1.66699 -13 3 -22s2.66602 -17.167 3.99902 -24.5c2.66699 -10.667 5.83398 -21.834 9.50098 -33.501l5.5 -17.5z" />
    <glyph glyph-name="uacute" unicode="&#xfa;" horiz-adv-x="586" 
d="M426 682h-74l-91 -140h38zM522 0c-7.33301 17.333 -13.1631 36.1699 -17.4961 56.5029s-6.5 40.166 -6.5 59.499v364h-49v-291c0 -10.667 -1.16699 -20.834 -3.5 -30.501s-5.16602 -18.167 -8.49902 -25.5c-12.667 -28 -33.334 -52 -62.001 -72s-61.334 -30 -98.001 -30
c-26.667 0 -49.167 4.66699 -67.5 14s-33.333 22.333 -45 39s-20 36.667 -25 60s-7.5 49 -7.5 77v259h-49v-269c0 -51.333 6.83301 -91.666 20.5 -120.999s30.167 -51.666 49.5 -66.999s39.166 -25 59.499 -29s37.5 -6 51.5 -6c24 0 46 3.16699 66 9.5
s37.667 14.666 53 24.999s28.666 22 39.999 35s20.666 26.167 27.999 39.5h2c0 -0.666992 0.333008 -3.83398 1 -9.50098s1.66699 -13 3 -22s2.66602 -17.167 3.99902 -24.5c2.66699 -10.667 5.83398 -21.834 9.50098 -33.501l5.5 -17.5z" />
    <glyph glyph-name="ucircumflex" unicode="&#xfb;" horiz-adv-x="586" 
d="M410 542l-100 140h-38l-96 -140h47l67 102h2l67 -102h51zM522 0c-7.33301 17.333 -13.1631 36.1699 -17.4961 56.5029s-6.5 40.166 -6.5 59.499v364h-49v-291c0 -10.667 -1.16699 -20.834 -3.5 -30.501s-5.16602 -18.167 -8.49902 -25.5
c-12.667 -28 -33.334 -52 -62.001 -72s-61.334 -30 -98.001 -30c-26.667 0 -49.167 4.66699 -67.5 14s-33.333 22.333 -45 39s-20 36.667 -25 60s-7.5 49 -7.5 77v259h-49v-269c0 -51.333 6.83301 -91.666 20.5 -120.999s30.167 -51.666 49.5 -66.999s39.166 -25 59.499 -29
s37.5 -6 51.5 -6c24 0 46 3.16699 66 9.5s37.667 14.666 53 24.999s28.666 22 39.999 35s20.666 26.167 27.999 39.5h2c0 -0.666992 0.333008 -3.83398 1 -9.50098s1.66699 -13 3 -22s2.66602 -17.167 3.99902 -24.5c2.66699 -10.667 5.83398 -21.834 9.50098 -33.501
l5.5 -17.5z" />
    <glyph glyph-name="udieresis" unicode="&#xfc;" horiz-adv-x="586" 
d="M424 605c0 11.333 -3.50195 21 -10.502 29s-16.167 12 -27.5 12s-20.666 -4.16699 -27.999 -12.5s-11 -17.833 -11 -28.5s3.33301 -20.167 10 -28.5s16 -12.5 28 -12.5c12.667 0 22.334 4.16699 29.001 12.5s10 17.833 10 28.5zM244.998 605
c0 11.333 -3.50195 21 -10.502 29s-16.167 12 -27.5 12s-20.666 -4.16699 -27.999 -12.5s-11 -17.833 -11 -28.5s3.33301 -20.167 10 -28.5s16 -12.5 28 -12.5c12.667 0 22.334 4.16699 29.001 12.5s10 17.833 10 28.5zM521.996 0
c-7.33301 17.333 -13.1631 36.1699 -17.4961 56.5029s-6.5 40.166 -6.5 59.499v364h-49v-291c0 -10.667 -1.16699 -20.834 -3.5 -30.501s-5.16602 -18.167 -8.49902 -25.5c-12.667 -28 -33.334 -52 -62.001 -72s-61.334 -30 -98.001 -30c-26.667 0 -49.167 4.66699 -67.5 14
s-33.333 22.333 -45 39s-20 36.667 -25 60s-7.5 49 -7.5 77v259h-49v-269c0 -51.333 6.83301 -91.666 20.5 -120.999s30.167 -51.666 49.5 -66.999s39.166 -25 59.499 -29s37.5 -6 51.5 -6c24 0 46 3.16699 66 9.5s37.667 14.666 53 24.999s28.666 22 39.999 35
s20.666 26.167 27.999 39.5h2c0 -0.666992 0.333008 -3.83398 1 -9.50098s1.66699 -13 3 -22s2.66602 -17.167 3.99902 -24.5c2.66699 -10.667 5.83398 -21.834 9.50098 -33.501l5.5 -17.5z" />
    <glyph glyph-name="yacute" unicode="&#xfd;" horiz-adv-x="480" 
d="M373 682h-74l-91 -140h38zM473 480h-52.999l-134 -317c-8 -19.333 -15.333 -37.833 -22 -55.5l-18 -49.5h-2c-4.66699 15.333 -10.5 32.166 -17.5 50.499s-14.167 35.166 -21.5 50.499l-143 321h-53l199 -446c4.66699 -10 7 -17.333 7 -22c0 -4 -2 -10.333 -6 -19
c-15.333 -34 -31.333 -61.333 -48 -82s-31.334 -36.334 -44.001 -47.001c-15.333 -13.333 -30.833 -23.666 -46.5 -30.999s-29.5 -12.666 -41.5 -15.999l13 -41c5.33301 1.33301 16.166 5 32.499 11s34.833 16.667 55.5 32c16 11.333 30.833 24.833 44.5 40.5
s27.334 34.334 41.001 56.001s27.5 47 41.5 76s29.333 62.5 46 100.5z" />
    <glyph glyph-name="thorn" unicode="&#xfe;" horiz-adv-x="613" 
d="M570 250c0 32.667 -5.50293 63.667 -16.5029 93s-26.667 55 -47 77s-44.666 39.5 -72.999 52.5s-59.833 19.5 -94.5 19.5c-50.667 0 -92 -10.333 -124 -31s-57.333 -46 -76 -76h-2v281h-49v-866h49v285h2c21.333 -34 48.5 -58.667 81.5 -74s67.5 -23 103.5 -23
c32.667 0 63.834 5.5 93.501 16.5s55.834 27.5 78.501 49.5s40.667 49.333 54 82s20 70.667 20 114zM520.997 249c0 -35.333 -4.99902 -66.8291 -14.999 -94.4961s-23.667 -50.834 -41 -69.501s-37.666 -32.834 -60.999 -42.501s-48.666 -14.5 -75.999 -14.5
c-22.667 0 -43.834 3.16699 -63.501 9.5s-37.334 14.666 -53.001 24.999s-29.167 22.666 -40.5 36.999s-20 29.5 -26 45.5c-5.33301 14 -8 28.667 -8 44v84c0 9.33301 1.16699 19.333 3.5 30s5.16602 20.334 8.49902 29.001c15.333 39.333 39.666 69.166 72.999 89.499
s69 30.5 107 30.5c29.333 0 55.833 -5.5 79.5 -16.5s43.834 -25.667 60.501 -44s29.5 -39.833 38.5 -64.5s13.5 -50.667 13.5 -78z" />
    <glyph glyph-name="ydieresis" unicode="&#xff;" horiz-adv-x="480" 
d="M382 605c0 11.333 -3.50195 21 -10.502 29s-16.167 12 -27.5 12s-20.666 -4.16699 -27.999 -12.5s-11 -17.833 -11 -28.5s3.33301 -20.167 10 -28.5s16 -12.5 28 -12.5c12.667 0 22.334 4.16699 29.001 12.5s10 17.833 10 28.5zM202.998 605
c0 11.333 -3.50195 21 -10.502 29s-16.167 12 -27.5 12s-20.666 -4.16699 -27.999 -12.5s-11 -17.833 -11 -28.5s3.33301 -20.167 10 -28.5s16 -12.5 28 -12.5c12.667 0 22.334 4.16699 29.001 12.5s10 17.833 10 28.5zM472.996 480h-52.999l-134 -317
c-8 -19.333 -15.333 -37.833 -22 -55.5l-18 -49.5h-2c-4.66699 15.333 -10.5 32.166 -17.5 50.499s-14.167 35.166 -21.5 50.499l-143 321h-53l199 -446c4.66699 -10 7 -17.333 7 -22c0 -4 -2 -10.333 -6 -19c-15.333 -34 -31.333 -61.333 -48 -82
s-31.334 -36.334 -44.001 -47.001c-15.333 -13.333 -30.833 -23.666 -46.5 -30.999s-29.5 -12.666 -41.5 -15.999l13 -41c5.33301 1.33301 16.166 5 32.499 11s34.833 16.667 55.5 32c16 11.333 30.833 24.833 44.5 40.5s27.334 34.334 41.001 56.001s27.5 47 41.5 76
s29.333 62.5 46 100.5z" />
    <glyph glyph-name="OE" unicode="&#x152;" horiz-adv-x="962" 
d="M921 0l0.000976562 41h-334v293h300v41h-300v258h317v41h-329c-11.333 0 -23.166 0.666992 -35.499 2s-25.833 2.66602 -40.5 3.99902s-30.334 2.66602 -47.001 3.99902s-35.334 2 -56.001 2c-54 0 -103 -8.5 -147 -25.5s-81.667 -41 -113 -72
s-55.5 -68.167 -72.5 -111.5s-25.5 -91.333 -25.5 -144c0 -51.333 8.66699 -98.166 26 -140.499s41.5 -78.666 72.5 -108.999s68 -53.833 111 -70.5s90.5 -25 142.5 -25c19.333 0 37 0.666992 53 2l47 4l42 4c13.333 1.33301 26 2 38 2h351zM538.001 45
c-15.333 -5.33301 -35.1699 -9.49902 -59.5029 -12.499s-49.833 -4.5 -76.5 -4.5c-51.333 0 -96.5 8.33301 -135.5 25s-71.667 39 -98 67s-46.166 60.667 -59.499 98s-20 76.666 -20 117.999c0 38.667 5.83301 76.667 17.5 114s29.834 70.5 54.501 99.5
s56.334 52.333 95.001 70s84.667 26.5 138 26.5c34 0 62 -1.66699 84 -5s42 -7.33301 60 -12v-584z" />
    <glyph glyph-name="oe" unicode="&#x153;" horiz-adv-x="955" 
d="M929 270c0 16 -2.50098 36.501 -7.50098 61.501s-15 49.5 -30 73.5s-36.167 44.5 -63.5 61.5s-63.333 25.5 -108 25.5c-49.333 0 -93 -12.333 -131 -37s-66.667 -59.667 -86 -105v1h-2c-16 44 -42.5 78.5 -79.5 103.5s-81.5 37.5 -133.5 37.5
c-33.333 0 -64.833 -6.16699 -94.5 -18.5s-55.667 -29.666 -78 -51.999s-40 -49.333 -53 -81s-19.5 -66.834 -19.5 -105.501c0 -35.333 5.83301 -68 17.5 -98s28.167 -56 49.5 -78s46.833 -39.333 76.5 -52s62.167 -19 97.5 -19c20.667 0 41.834 2.66699 63.501 8
s42 13.666 61 24.999s36.333 25.666 52 42.999s28.167 38 37.5 62h2c18 -42 46.5 -75.5 85.5 -100.5s85.833 -37.5 140.5 -37.5c12 0 23.5 0.333008 34.5 1s21.167 1.66699 30.5 3l-4 41c-16 -2 -34.667 -3 -56 -3c-28.667 0 -55.334 4.33301 -80.001 13
s-46.167 21.834 -64.5 39.501s-32.666 39.5 -42.999 65.5s-15.5 56.667 -15.5 92h399c1.33301 4 2 8 2 12v18zM877.999 279.001h-347.001c2.66699 18 8 37.167 16 57.5s19.167 39 33.5 56s32.5 31.167 54.5 42.5s48.333 17 79 17c36 0 64.833 -6.66699 86.5 -20
s38.334 -29.333 50.001 -48s19.167 -37.667 22.5 -57s5 -35.333 5 -48zM478.998 240.001c0 -30 -3.99805 -57 -11.998 -81c-4.66699 -14 -10.334 -26.833 -17.001 -38.5s-14.334 -22.167 -23.001 -31.5c-18 -20 -39.167 -35.167 -63.5 -45.5s-50.5 -15.5 -78.5 -15.5
c-24 0 -47.667 4.66699 -71 14s-44 23 -62 41s-32.5 40 -43.5 66s-16.5 55.667 -16.5 89c0 24.667 3.66699 49.667 11 75s18.833 48.333 34.5 69s35.667 37.5 60 50.5s53.5 19.5 87.5 19.5c32.667 0 61.167 -6 85.5 -18s44.5 -28 60.5 -48s28 -42.667 36 -68
s12 -51.333 12 -78z" />
    <glyph glyph-name="Scaron" unicode="&#x160;" horiz-adv-x="505" 
d="M392 825h-50l-75 -78h-2l-77 78h-54l113 -115h36zM455 175c0 27.333 -3.99902 50.9951 -11.999 70.9951s-20 37.667 -36 53s-35.833 28.833 -59.5 40.5s-50.834 22.5 -81.501 32.5c-54.667 17.333 -93.667 37.333 -117 60s-35 52 -35 88c0 13.333 2.66699 27.333 8 42
s14.166 28.334 26.499 41.001s28.666 23 48.999 31s45.5 12 75.5 12c33.333 0 61.5 -4.16699 84.5 -12.5s39.167 -15.833 48.5 -22.5l19 41c-13.333 8.66699 -32.666 16.5 -57.999 23.5s-56 10.5 -92 10.5c-31.333 0 -59.666 -4.33301 -84.999 -13
s-47.333 -20.834 -66 -36.501s-33 -34 -43 -55s-15 -43.833 -15 -68.5c0 -44 14.667 -80.667 44 -110s77.666 -54.666 144.999 -75.999c28 -9.33301 51.667 -19 71 -29s35 -21.333 47 -34s20.667 -26.667 26 -42s8 -32.666 8 -51.999c0 -42 -15.5 -76 -46.5 -102
s-73.833 -39 -128.5 -39c-32.667 0 -63.167 4.5 -91.5 13.5s-53.5 21.167 -75.5 36.5l-19 -41c10 -7.33301 22 -14.166 36 -20.499s29 -11.666 45 -15.999s32.5 -7.66602 49.5 -9.99902s33.5 -3.5 49.5 -3.5c40 0 74.5 5.33301 103.5 16s52.833 24.834 71.5 42.501
s32.334 37.667 41.001 60s13 45.166 13 68.499z" />
    <glyph glyph-name="scaron" unicode="&#x161;" horiz-adv-x="408" 
d="M328 682h-47l-69 -103h-2l-69 103h-51l102 -140h38zM357 126c0 36 -10.8301 64.502 -32.4971 85.502s-54.5 39.167 -98.5 54.5c-18 6 -33.833 12 -47.5 18s-25.334 12.667 -35.001 20s-17 16 -22 26s-7.5 21.667 -7.5 35c0 23.333 8.5 43.5 25.5 60.5
s42.167 25.5 75.5 25.5c28 0 50.667 -3.83301 68 -11.5s30 -14.167 38 -19.5l19 40c-14 9.33301 -31 17 -51 23s-41.667 9 -65 9c-26 0 -48.833 -3.66699 -68.5 -11s-36.167 -17.333 -49.5 -30s-23.333 -27 -30 -43s-10 -32.333 -10 -49c0 -58.667 43.333 -102 130 -130
c38 -12 66.333 -25.833 85 -41.5s28 -37.5 28 -65.5c0 -24.667 -9.66699 -46.334 -29 -65.001s-50 -28 -92 -28c-24 0 -46.333 3.66699 -67 11s-38.334 15.666 -53.001 24.999l-18 -42c18 -10.667 38.5 -19.167 61.5 -25.5s47.167 -9.5 72.5 -9.5
c27.333 0 51.666 3.5 72.999 10.5s39.5 16.667 54.5 29s26.333 27 34 44s11.5 35.167 11.5 54.5z" />
    <glyph glyph-name="Ydieresis" unicode="&#x178;" horiz-adv-x="541" 
d="M399 765c0 11.333 -3.50195 21 -10.502 29s-16.167 12 -27.5 12s-20.666 -4.16699 -27.999 -12.5s-11 -17.833 -11 -28.5s3.33301 -20.167 10 -28.5s16 -12.5 28 -12.5c12.667 0 22.334 4.16699 29.001 12.5s10 17.833 10 28.5zM219.998 765
c0 11.333 -3.50195 21 -10.502 29s-16.167 12 -27.5 12s-20.666 -4.16699 -27.999 -12.5s-11 -17.833 -11 -28.5s3.33301 -20.167 10 -28.5s16 -12.5 28 -12.5c12.667 0 22.334 4.16699 29.001 12.5s10 17.833 10 28.5zM547.996 674h-56l-131 -210l-46 -74.5
c-14 -23 -26.667 -45.167 -38 -66.5h-2c-12.667 23.333 -25.5 45.833 -38.5 67.5l-43.5 73.5l-125 210h-56l236 -386v-288h49v286z" />
    <glyph glyph-name="florin" unicode="&#x192;" 
d="M487 647c-5.33301 3.33301 -13.333 6.66406 -24 9.99707s-23.667 5 -39 5c-28.667 0.666992 -53.834 -4.33301 -75.501 -15s-40.167 -25.834 -55.5 -45.501s-27.666 -43 -36.999 -70s-16 -56.5 -20 -88.5l-6 -52h-110v-39h105l-25 -231
c-2 -20.667 -5.5 -40.667 -10.5 -60s-12 -36.5 -21 -51.5s-20.167 -27 -33.5 -36s-29.333 -13.5 -48 -13.5c-12.667 0 -24 0.833008 -34 2.5s-20.333 5.16699 -31 10.5l-12 -37c19.333 -10.667 43.333 -16 72 -16c26.667 0 49.834 5.16699 69.501 15.5
s36.167 25.333 49.5 45s23.833 43.334 31.5 71.001s13.5 58.5 17.5 92.5l23 208h150v39h-145l5 51c2 22.667 6 44.834 12 66.501s14.333 40.834 25 57.501s23.834 30 39.501 40s34.5 15 56.5 15c11.333 0 21.666 -1.16699 30.999 -3.5s18.666 -5.16602 27.999 -8.49902z" />
    <glyph glyph-name="circumflex" unicode="&#x2c6;" horiz-adv-x="300" 
d="M267 542l-100 140h-38l-96 -140h47l67 102h2l67 -102h51z" />
    <glyph glyph-name="tilde" unicode="&#x2dc;" horiz-adv-x="300" 
d="M266 657h-29.999c-1.33301 -17.333 -4.16602 -28.833 -8.49902 -34.5s-9.83301 -8.5 -16.5 -8.5c-9.33301 0 -17.833 1.5 -25.5 4.5s-15.5 6.5 -23.5 10.5l-37.5 18c-9.66699 4.66699 -20.167 7 -31.5 7c-19.333 0 -34 -8.83301 -44 -26.5s-14.667 -37.5 -14 -59.5h31
c1.33301 13.333 4.16602 24.333 8.49902 33s10.833 13 19.5 13c7.33301 0 14.833 -1.5 22.5 -4.5s17.5 -7.83301 29.5 -14.5c11.333 -6 21.833 -11 31.5 -15s19.167 -6 28.5 -6c21.333 0 36.666 7.5 45.999 22.5s14 35.167 14 60.5z" />
    <glyph glyph-name="endash" unicode="&#x2013;" horiz-adv-x="500" 
d="M470 232v40h-440v-40h440z" />
    <glyph glyph-name="emdash" unicode="&#x2014;" horiz-adv-x="1000" 
d="M970 232v40h-940v-40h940z" />
    <glyph glyph-name="quoteleft" unicode="&#x2018;" horiz-adv-x="175" 
d="M154 695l-34 -5.00195c-4 -7.33301 -9.5 -19.166 -16.5 -35.499s-14.167 -34.833 -21.5 -55.5s-14.5 -42.167 -21.5 -64.5s-12.833 -42.833 -17.5 -61.5l59 10c2 15.333 5.16699 33 9.5 53s9 40 14 60s10 38.833 15 56.5s9.5 31.834 13.5 42.501z" />
    <glyph glyph-name="quoteright" unicode="&#x2019;" horiz-adv-x="175" 
d="M154 695l-59 -10.002c-2 -15.333 -5.16699 -33.166 -9.5 -53.499s-9 -40.5 -14 -60.5s-10 -38.667 -15 -56s-9.5 -31.333 -13.5 -42l34 5c4 6.66699 9.33301 18.334 16 35.001l21.5 56c7.66699 20.667 15 42.167 22 64.5s12.833 42.833 17.5 61.5z" />
    <glyph glyph-name="quotesinglbase" unicode="&#x201a;" horiz-adv-x="231" 
d="M339 710c-10.667 6.66699 -27 11.998 -49 15.998c-4.66699 0.666992 -9.5 1.16699 -14.5 1.5s-10.167 0.5 -15.5 0.5c-45.333 0 -83.333 -14.333 -114 -43c-20.667 -19.333 -35.5 -44.166 -44.5 -74.499s-13.5 -66.166 -13.5 -107.499v-588c0 -14 -1.5 -28 -4.5 -42
s-6.5 -26.5 -10.5 -37.5s-7.5 -19.833 -10.5 -26.5l-4.5 -10l49 -10l4.5 10.5c3 7 6.5 16.5 10.5 28.5s7.5 25.667 10.5 41s4.5 31 4.5 47v588c0 24 1.66699 47.167 5 69.5s9.33301 41.833 18 58.5s20.667 30 36 40s35.333 15 60 15c16 0 29.333 -1.5 40 -4.5
s19.667 -6.5 27 -10.5z" />
    <glyph glyph-name="quotedblleft" unicode="&#x201c;" horiz-adv-x="294" 
d="M273 695l-34 -5.00195c-4 -7.33301 -9.5 -19.166 -16.5 -35.499s-14.167 -34.833 -21.5 -55.5s-14.5 -42.167 -21.5 -64.5s-12.833 -42.833 -17.5 -61.5l59 10c2 15.333 5.16699 33 9.5 53s9 40 14 60s10 38.833 15 56.5s9.5 31.834 13.5 42.501zM154 694.998
l-34 -5.00195c-4 -7.33301 -9.5 -19.166 -16.5 -35.499s-14.167 -34.833 -21.5 -55.5s-14.5 -42.167 -21.5 -64.5s-12.833 -42.833 -17.5 -61.5l59 10c2 15.333 5.16699 33 9.5 53s9 40 14 60s10 38.833 15 56.5s9.5 31.834 13.5 42.501z" />
    <glyph glyph-name="quotedblright" unicode="&#x201d;" horiz-adv-x="294" 
d="M273 695l-59 -10.002c-2 -15.333 -5.16699 -33.166 -9.5 -53.499s-9 -40.5 -14 -60.5s-10 -38.667 -15 -56s-9.5 -31.333 -13.5 -42l34 5c4 6.66699 9.33301 18.334 16 35.001l21.5 56c7.66699 20.667 15 42.167 22 64.5s12.833 42.833 17.5 61.5zM154 694.998
l-59 -10.002c-2 -15.333 -5.16699 -33.166 -9.5 -53.499s-9 -40.5 -14 -60.5s-10 -38.667 -15 -56s-9.5 -31.333 -13.5 -42l34 5c4 6.66699 9.33301 18.334 16 35.001l21.5 56c7.66699 20.667 15 42.167 22 64.5s12.833 42.833 17.5 61.5z" />
    <glyph glyph-name="quotedblbase" unicode="&#x201e;" horiz-adv-x="294" 
d="M251 96l-59 -10.002c-2 -15.333 -5.16699 -33.166 -9.5 -53.499s-9 -40.5 -14 -60.5s-10 -38.667 -15 -56s-9.5 -31.333 -13.5 -42l34 5c4 6.66699 9.33301 18.334 16 35.001l21.5 56c7.66699 20.667 15 42.167 22 64.5s12.833 42.833 17.5 61.5zM132 95.998l-59 -10.002
c-2 -15.333 -5.16699 -33.166 -9.5 -53.499s-9 -40.5 -14 -60.5s-10 -38.667 -15 -56s-9.5 -31.333 -13.5 -42l34 5c4 6.66699 9.33301 18.334 16 35.001l21.5 56c7.66699 20.667 15 42.167 22 64.5s12.833 42.833 17.5 61.5z" />
    <glyph glyph-name="dagger" unicode="&#x2020;" 
d="M475 412v44l-190 -4l4 222h-48l4 -222l-190 4v-44l190 4l-4 -466h48l-4 466z" />
    <glyph glyph-name="daggerdbl" unicode="&#x2021;" 
d="M475 158v44l-190 -4v228l190 -4v44l-190 -4l4 212h-48l4 -212l-190 4v-44l190 4v-228l-190 4v-44l189 4l-3 -212h48l-4 212z" />
    <glyph glyph-name="bullet" unicode="&#x2022;" horiz-adv-x="235" 
d="M197 345c0 21.333 -7.66504 39.6689 -22.998 55.002s-34 23 -56 23c-10.667 0 -20.834 -2 -30.501 -6s-18 -9.5 -25 -16.5s-12.5 -15.333 -16.5 -25s-6 -19.834 -6 -30.501c0 -22 7.66699 -40.5 23 -55.5s33.666 -22.5 54.999 -22.5c22 0 40.667 7.66699 56 23
s23 33.666 23 54.999z" />
    <glyph glyph-name="ellipsis" unicode="&#x2026;" horiz-adv-x="1000" 
d="M874 34c0 13.333 -3.83105 24.5 -11.498 33.5s-17.834 13.5 -30.501 13.5s-22.834 -4.5 -30.501 -13.5s-11.834 -20.167 -12.501 -33.5c0 -12 3.83301 -22.667 11.5 -32s17.834 -14 30.501 -14c13.333 0 23.833 4.66699 31.5 14s11.5 20 11.5 32zM542.002 34
c0 13.333 -3.83105 24.5 -11.498 33.5s-17.834 13.5 -30.501 13.5s-22.834 -4.5 -30.501 -13.5s-11.834 -20.167 -12.501 -33.5c0 -12 3.83301 -22.667 11.5 -32s17.834 -14 30.501 -14c13.333 0 23.833 4.66699 31.5 14s11.5 20 11.5 32zM210.004 34
c0 13.333 -3.83105 24.5 -11.498 33.5s-17.834 13.5 -30.501 13.5s-22.834 -4.5 -30.501 -13.5s-11.834 -20.167 -12.501 -33.5c0 -12 3.83301 -22.667 11.5 -32s17.834 -14 30.501 -14c13.333 0 23.833 4.66699 31.5 14s11.5 20 11.5 32z" />
    <glyph glyph-name="perthousand" unicode="&#x2030;" horiz-adv-x="1130" 
d="M1100 202c0 65.333 -13.001 113.833 -39.001 145.5s-60 47.5 -102 47.5c-18.667 0 -37 -4.16699 -55 -12.5s-34.167 -20.833 -48.5 -37.5s-25.666 -38 -33.999 -64s-12.5 -56.333 -12.5 -91c0 -34 4 -63.167 12 -87.5s18.667 -44.5 32 -60.5s28.5 -27.833 45.5 -35.5
s34.833 -11.5 53.5 -11.5c20.667 0 40 4.33301 58 13s33.667 21.5 47 38.5s23.833 38.5 31.5 64.5s11.5 56.333 11.5 91zM739.999 202c0 65.333 -13.001 113.833 -39.001 145.5s-60 47.5 -102 47.5c-18.667 0 -37 -4.16699 -55 -12.5s-34.167 -20.833 -48.5 -37.5
s-25.666 -38 -33.999 -64s-12.5 -56.333 -12.5 -91c0 -34 4 -63.167 12 -87.5s18.667 -44.5 32 -60.5s28.5 -27.833 45.5 -35.5s34.833 -11.5 53.5 -11.5c20.667 0 40 4.33301 58 13s33.667 21.5 47 38.5s23.833 38.5 31.5 64.5s11.5 56.333 11.5 91zM605.998 662h-41
l-403 -674h41zM320.998 469c0 65.333 -13.001 113.833 -39.001 145.5s-60 47.5 -102 47.5c-18.667 0 -37 -4.16699 -55 -12.5s-34.167 -20.833 -48.5 -37.5s-25.666 -38 -33.999 -64s-12.5 -56.333 -12.5 -91c0 -34 4 -63.167 12 -87.5s18.667 -44.5 32 -60.5
s28.5 -27.833 45.5 -35.5s34.833 -11.5 53.5 -11.5c20.667 0 40 4.33301 58 13s33.667 21.5 47 38.5s23.833 38.5 31.5 64.5s11.5 56.333 11.5 91zM1058 198c0 -52.667 -8.5 -94 -25.5 -124s-42.833 -45 -77.5 -45c-30.667 0 -55.667 14.667 -75 44s-28.333 70 -27 122
c0.666992 52 10.5 92.667 29.5 122s43.5 44 73.5 44c36 0 62 -14.833 78 -44.5s24 -69.167 24 -118.5zM697.997 198c0 -52.667 -8.5 -94 -25.5 -124s-42.833 -45 -77.5 -45c-30.667 0 -55.667 14.667 -75 44s-28.333 70 -27 122c0.666992 52 10.5 92.667 29.5 122
s43.5 44 73.5 44c36 0 62 -14.833 78 -44.5s24 -69.167 24 -118.5zM278.997 465c0 -52.667 -8.5 -94 -25.5 -124s-42.833 -45 -77.5 -45c-30.667 0 -55.667 14.667 -75 44s-28.333 70 -27 122c0.666992 52 10.5 92.667 29.5 122s43.5 44 73.5 44c36 0 62 -14.833 78 -44.5
s24 -69.167 24 -118.5z" />
    <glyph glyph-name="guilsinglleft" unicode="&#x2039;" horiz-adv-x="260" 
d="M239 68l-157 184l156 184h-52l-156 -184l157 -184h52z" />
    <glyph glyph-name="guilsinglright" unicode="&#x203a;" horiz-adv-x="260" 
d="M230 252l-157 184h-52l157 -184l-156 -184h51z" />
    <glyph glyph-name="currency" unicode="&#x20ac;" horiz-adv-x="671" 
d="M655 27l-14.998 38.999c-23.333 -11.333 -50.5 -20.166 -81.5 -26.499s-63.167 -9.5 -96.5 -9.5c-40 0 -76.333 4.5 -109 13.5s-61.667 21.667 -87 38s-47 35.833 -65 58.5s-32 47.667 -42 75h377v40h-389c-5.33301 25.333 -8 50.333 -8 75c0 27.333 2.33301 52.333 7 75
h390v40h-379c20 60 56.667 108.333 110 145s122.333 55 207 55c32 0 62.167 -3.16699 90.5 -9.5s52.5 -14.5 72.5 -24.5l16 41c-11.333 5.33301 -31.666 12.333 -60.999 21s-69.666 13 -120.999 13c-50 0 -95 -6.33301 -135 -19s-75.333 -30 -106 -52
s-56.334 -47.667 -77.001 -77s-36.334 -60.333 -47.001 -93h-86v-40h75c-2.66699 -11.333 -4.5 -23 -5.5 -35s-1.5 -24 -1.5 -36c0 -29.333 2.33301 -55.666 7 -78.999h-75v-40h85c12 -38.667 29.5 -72.167 52.5 -100.5s49.5 -51.833 79.5 -70.5s62.667 -32.667 98 -42
s71.666 -14 108.999 -14c48.667 0 91.167 4.16699 127.5 12.5s64.166 17.166 83.499 26.499z" />
    <glyph glyph-name="trademark" unicode="&#x2122;" horiz-adv-x="792" 
d="M761 276l-35.001 397.999h-49l-101 -255c-5.33301 -12.667 -10.166 -27 -14.499 -43s-8.83301 -33.667 -13.5 -53h-2l-14.5 52.5c-4.33301 15.667 -9.16602 29.834 -14.499 42.501l-103 256h-48l-34 -398h39l20 270c1.33301 16 1.83301 31.333 1.5 46
s-0.166016 30 0.500977 46h3c4 -15.333 8.66699 -31.666 14 -48.999s10.666 -32.333 15.999 -45l102 -263h32l101 255c6 15.333 11.833 32.166 17.5 50.499l16.5 51.5h3c0.666992 -15.333 0.666992 -31.5 0 -48.5s-0.333984 -31.5 0.999023 -43.5l22 -270h40z
M325.999 639.999v34h-316v-34h139v-364h38v364h139z" />
    <glyph glyph-name="minus" unicode="&#xe000;" horiz-adv-x="596" 
d="M556 247v40h-516v-40h516z" />
    <glyph glyph-name="notequal" unicode="&#xe001;" horiz-adv-x="1035" 
d="M1033 284l-139 140l-40 -41l70 -70h-174l-181 180l-169 -169l-166 167l-200 -187l39 -40l157 149l171 -170l168 170l156 -157h201l-72 -71l40 -41z" />
    <glyph glyph-name="infinity" unicode="&#xe002;" horiz-adv-x="701" 
d="M676 285l-154.997 154.998l-43 -45l80 -67c-9.33301 -9.33301 -20.666 -16.333 -33.999 -21s-27 -7 -41 -7s-27.5 2.33301 -40.5 7s-23.833 12 -32.5 22c-7.33301 8.66699 -10.333 16.834 -9 24.501s4.66602 15.5 9.99902 23.5s11.5 16.333 18.5 25
s11.833 18.167 14.5 28.5s2.33398 21.5 -0.999023 33.5s-12.333 25.333 -27 40c-12 11.333 -24 17.666 -36 18.999s-24 0 -36 -4s-23.667 -9.66699 -35 -17s-22.333 -13.666 -33 -18.999s-20.834 -8.5 -30.501 -9.5s-18.5 2.5 -26.5 10.5s-12.333 16.333 -13 25
s0.333008 17.667 3 27s6 19 10 29s6.66699 20.5 8 31.5s0.333008 22.5 -3 34.5s-11 25 -23 39c-6 7.33301 -14.833 13.5 -26.5 18.5s-24.834 7.5 -39.501 7.5c-14 0 -29 -3 -45 -9s-31.333 -16.667 -46 -32l19 -19c18 18.667 38.667 30.167 62 34.5
s44.333 -2.83398 63 -21.501c8 -8 12 -16.667 12 -26c0 -8.66699 -1.83301 -18 -5.5 -28s-8 -20.333 -13 -31s-8.66699 -21.667 -11 -33s-2 -23 1 -35s10.833 -24.333 23.5 -37c12.667 -13.333 25.167 -21 37.5 -23s24.166 -1.33301 35.499 2s22.166 8.5 32.499 15.5
s20.5 13 30.5 18s19.333 8 28 9s17 -2.83301 25 -11.5c7.33301 -8 10.333 -16.167 9 -24.5s-5 -17.166 -11 -26.499s-12.667 -19 -20 -29s-13 -20.333 -17 -31s-5.16699 -22 -3.5 -34s9.16699 -24.667 22.5 -38c12.667 -13.333 28.5 -23.5 47.5 -30.5s38.667 -11.333 59 -13
s40.5 -0.666992 60.5 3s37.667 9.83398 53 18.501l-106 -89l43 -45z" />
    <glyph glyph-name="lessequal" unicode="&#xe003;" horiz-adv-x="1000" 
d="M971 281l-136 134.999l-20 -20l101 -101h-100l-127 65l-19.5 -10l-43.5 -22l-43.5 -21.5c-13 -6.33301 -19.5 -9.16602 -19.5 -8.49902l-125 62l-125 -62l-125 62l-132 -66l13 -25l18.5 9.5l41 20.5l41 20l18.5 9l126 -62l19.5 10l42.5 21.5l42.5 21l19.5 9.5l126 -62
l19.5 10l42.5 21.5l42.5 21l19.5 9.5l121 -59l107 -1l-101 -102l20 -20z" />
    <glyph glyph-name="greaterequal" unicode="&#xe004;" horiz-adv-x="794" 
d="M750 280l-185 223v-112h-65l-77 39l-75 -37l-73 37l-75 -37l-74 37l-78 -40l8 -16l70 36l75 -37l73 37l75 -37l74 37l71 -36l71 -1v-55h-65l-77 37l-75 -36l-73 36l-75 -36l-74 36l-78 -39l8 -16l70 35l75 -37l73 37l75 -37l74 37l71 -35l71 -1v-56h-65l-77 38l-75 -36
l-73 36l-75 -36l-74 36l-78 -38l8 -17l70 35l75 -37l73 37l75 -37l74 37l71 -35l71 -1v-56h-65l-77 39l-75 -37l-73 37l-75 -37l-74 37l-78 -40l8 -17l70 37l75 -38l73 38l75 -38l74 38l71 -37l71 -1v-91z" />
    <glyph glyph-name="partialdiff" unicode="&#xe005;" horiz-adv-x="760" 
d="M696 0l0.00292969 36.001h-198v2l34 29l66.5 59c19.667 18 36.334 35.5 50.001 52.5s24 34.167 31 51.5s10.5 36 10.5 56c0 10 -2 21.167 -6 33.5s-10.833 24.166 -20.5 35.499s-22.834 20.833 -39.501 28.5s-37.334 11.5 -62.001 11.5c-22.667 0 -44 -4.16699 -64 -12.5
s-36.333 -18.5 -49 -30.5l15 -26c9.33301 6.66699 21.5 14 36.5 22s32.167 12 51.5 12c17.333 0 31.833 -2.5 43.5 -7.5s21.167 -11.5 28.5 -19.5s12.666 -17.167 15.999 -27.5s5 -20.833 5 -31.5c0 -12 -2.33301 -24 -7 -36s-12.334 -25 -23.001 -39
s-24.5 -29.5 -41.5 -46.5s-37.833 -36.5 -62.5 -58.5l-73 -65v-29h258zM551.003 662.001h-41l-403 -674h41zM153.003 267.001v390h-38l-79 -39l9 -33l65 32h2v-350h41z" />
    <glyph glyph-name="summation" unicode="&#xe006;" horiz-adv-x="760" 
d="M722 108v34h-70v253h-35l-228 -261v-26h222v-108h41v108h70zM566 662h-41l-403 -674h41zM168 267v390h-38l-79 -39l9 -33l65 32h2v-350h41zM613 345c-1.33301 -7.33301 -2 -14.999 -2 -22.999v-26v-154h-171v1l142 164l13 17.5c4.66699 6.33301 10 13.166 16 20.499h2z
" />
    <glyph glyph-name="product" unicode="&#xe007;" horiz-adv-x="300" 
d="M187 267v390h-38l-79 -39l9 -33l65 32h2v-350h41z" />
    <glyph glyph-name="pi" unicode="&#xe008;" horiz-adv-x="760" 
d="M737 108v34h-70v253h-35l-228 -261v-26h222v-108h41v108h70zM614 662h-41l-403 -674h41zM293 377c0 23.333 -8.16406 44.5 -24.4971 63.5s-39.833 30.833 -70.5 35.5v2c24.667 9.33301 43.667 22.166 57 38.499s20 34.166 20 53.499
c0 10.667 -1.83301 21.334 -5.5 32.001s-10 20.5 -19 29.5s-21 16.333 -36 22s-33.5 8.5 -55.5 8.5c-22.667 0 -42.834 -3.66699 -60.501 -11s-32.167 -14.666 -43.5 -21.999l16 -31c6.66699 5.33301 17.667 11.666 33 18.999s32.666 11 51.999 11c14 0 25.833 -2 35.5 -6
s17.5 -8.83301 23.5 -14.5s10.167 -12 12.5 -19s3.5 -13.5 3.5 -19.5c0 -14 -3.5 -26 -10.5 -36s-15.667 -18 -26 -24s-21.666 -10.333 -33.999 -13s-23.833 -4 -34.5 -4h-34v-33h32c14 0 28.333 -1.33301 43 -4s28 -7.16699 40 -13.5s22 -14.833 30 -25.5
s12 -23.667 12 -39c0 -6.66699 -1.33301 -14.667 -4 -24s-8 -18.166 -16 -26.499s-18.833 -15.5 -32.5 -21.5s-30.834 -9 -51.501 -9c-20 0 -39.167 3.33301 -57.5 10s-31.166 12.667 -38.499 18l-16 -33c9.33301 -7.33301 23.666 -14 42.999 -20s41.666 -9 66.999 -9
c26 0 48.333 3.5 67 10.5s34.167 16 46.5 27s21.5 23.333 27.5 37s9 27.167 9 40.5zM628.003 345c-1.33301 -7.33301 -2 -15 -2 -23v-26v-154h-171v1l143 164c4 4.66699 8.16699 10.167 12.5 16.5s9.5 13.5 15.5 21.5h2z" />
    <glyph glyph-name="integral" unicode="&#xe009;" horiz-adv-x="340" 
d="M303 377c0 23.333 -8.16797 44.501 -24.501 63.501s-39.833 30.833 -70.5 35.5v2c24.667 9.33301 43.667 22.166 57 38.499s20 34.166 20 53.499c0 10.667 -1.83301 21.334 -5.5 32.001s-10 20.5 -19 29.5s-20.833 16.333 -35.5 22s-33 8.5 -55 8.5
c-22.667 0 -43 -3.5 -61 -10.5s-32.667 -14.167 -44 -21.5l16 -32c6.66699 5.33301 17.834 11.666 33.501 18.999s33.167 11 52.5 11c14 0 25.667 -2 35 -6s16.833 -8.83301 22.5 -14.5s9.83398 -12 12.501 -19s4 -13.5 4 -19.5c0 -14 -3.5 -26 -10.5 -36
s-15.667 -18 -26 -24s-21.666 -10.333 -33.999 -13s-23.833 -4 -34.5 -4h-34v-33h32c14 0 28.333 -1.33301 43 -4s28 -7.16699 40 -13.5s22 -14.833 30 -25.5s12 -23.667 12 -39c0 -6.66699 -1.33301 -14.667 -4 -24s-8 -18.166 -16 -26.499s-18.833 -15.5 -32.5 -21.5
s-30.834 -9 -51.501 -9c-20 0 -39.167 3.33301 -57.5 10s-31.166 12.667 -38.499 18l-16 -33c9.33301 -7.33301 23.666 -14 42.999 -20s41.666 -9 66.999 -9c26 0 48.333 3.5 67 10.5s34.167 16 46.5 27s21.5 23.333 27.5 37s9 27.167 9 40.5z" />
    <glyph glyph-name="Omega" unicode="&#xe00a;" horiz-adv-x="360" 
d="M315 267l0.00292969 36.001h-198v2l34 29l66.5 59c19.667 18 36.334 35.5 50.001 52.5s24 34.167 31 51.5s10.5 36 10.5 56c0 10 -2 21.167 -6 33.5s-10.833 24.166 -20.5 35.499s-22.834 20.833 -39.501 28.5s-37.334 11.5 -62.001 11.5
c-22.667 0 -44 -4.16699 -64 -12.5s-36.333 -18.5 -49 -30.5l15 -26c9.33301 6.66699 21.5 14 36.5 22s32.167 12 51.5 12c17.333 0 31.833 -2.5 43.5 -7.5s21.167 -11.5 28.5 -19.5s12.666 -17.167 15.999 -27.5s5 -20.833 5 -31.5c0 -12 -2.33301 -24 -7 -36
s-12.334 -25 -23.001 -39s-24.5 -29.5 -41.5 -46.5s-37.833 -36.5 -62.5 -58.5l-73 -65v-29h258z" />
    <glyph glyph-name="radical" unicode="&#xe00b;" horiz-adv-x="528" 
d="M471 684l-37.999 0.000976562c-1.33301 -8 -3.66602 -16.667 -6.99902 -26s-8.33301 -17.666 -15 -24.999s-15 -13.5 -25 -18.5s-22 -7.5 -36 -7.5c-22.667 0 -41.167 7.5 -55.5 22.5s-23.5 33.167 -27.5 54.5h-38c0 -12.667 2.16699 -25.834 6.5 -39.501
s11.166 -26.334 20.499 -38.001s21.666 -21.167 36.999 -28.5s34.333 -11 57 -11c34 0 62.5 10.5 85.5 31.5s34.833 49.5 35.5 85.5zM268.001 34.001c-12 0 -27.166 3.33398 -45.499 10.001s-33.5 16.334 -45.5 29.001c-7.33301 7.33301 -13.5 15.833 -18.5 25.5
s-9 22 -12 37s-5.33301 33.833 -7 56.5s-2.5 51 -2.5 85v439h-49v-475c0 -42 2.5 -79.833 7.5 -113.5s18.833 -62.5 41.5 -86.5c9.33301 -10 20.166 -18.333 32.499 -25s24.5 -11.834 36.5 -15.501s23 -6.33398 33 -8.00098s18 -2.5 24 -2.5zM471.002 -115.998
l-37.999 0.000976562c-1.33301 -8 -3.66602 -16.667 -6.99902 -26s-8.33301 -17.666 -15 -24.999s-15 -13.5 -25 -18.5s-22 -7.5 -36 -7.5c-22.667 0 -41.167 7.5 -55.5 22.5s-23.5 33.167 -27.5 54.5h-38c0 -12.667 2.16699 -25.834 6.5 -39.501
s11.166 -26.334 20.499 -38.001s21.666 -21.167 36.999 -28.5s34.333 -11 57 -11c34 0 62.5 10.5 85.5 31.5s34.833 49.5 35.5 85.5zM471.003 684.003c-0.666992 -36 -12.501 -64.501 -35.501 -85.501s-51.5 -31.5 -85.5 -31.5c-22.667 0 -41.667 3.66699 -57 11
s-27.666 16.833 -36.999 28.5s-16.166 24.334 -20.499 38.001s-6.5 26.834 -6.5 39.501h38c4 -21.333 13.167 -39.5 27.5 -54.5s32.833 -22.5 55.5 -22.5c14 0 26 2.5 36 7.5s18.333 11.167 25 18.5s11.667 15.666 15 24.999s5.66602 18 6.99902 26h38z" />
    <glyph glyph-name="approxequal" unicode="&#xe00c;" horiz-adv-x="803" 
d="M688 275l-188 350.001v-289c-58.667 -0.666992 -113.834 -12.334 -165.501 -35.001s-96.667 -53.334 -135 -92.001s-68.666 -84 -90.999 -136s-33.5 -107.667 -33.5 -167h110c0 44 8.16699 85.333 24.5 124s38.833 72.5 67.5 101.5s62 51.833 100 68.5
s79 25.334 123 26.001v-289z" />
    <glyph glyph-name="Delta" unicode="&#xe00d;" horiz-adv-x="1000" 
d="M931 283l-250 500l4.5 -34.5l11 -86l14 -112l14 -112c4.33301 -34.333 7.83301 -63 10.5 -86l4 -34.5l-74 121l-619 19l400 -82l-400 -6l400 -56l-400 -31l400 -32l-400 -56l400 -6l-400 -81l619 18l75 124l-59 -465z" />
    <glyph glyph-name="nonbreakingspace" unicode="&#xe00e;" horiz-adv-x="240" 
 />
    <glyph glyph-name="lozenge" unicode="&#xe00f;" horiz-adv-x="1134" 
d="M1125 313l-187 250v-502zM941 308l-6.99805 9.99707c-15.333 -12 -30 -21.833 -44 -29.5s-28.167 -14 -42.5 -19s-29.5 -8.5 -45.5 -10.5s-33.333 -3 -52 -3c-19.333 0 -36.333 3.33301 -51 10s-28.834 13.834 -42.501 21.501s-27.834 14.834 -42.501 21.501
s-31.667 10 -51 10s-36.333 -3.33301 -51 -10s-29 -13.834 -43 -21.501s-28.333 -14.834 -43 -21.501s-31.667 -10 -51 -10s-36.333 3.33301 -51 10s-28.834 13.834 -42.501 21.501s-27.834 14.834 -42.501 21.501s-31.667 10 -51 10c-39.333 0 -73.833 -4.66699 -103.5 -14
s-60.5 -26 -92.5 -50l8 -10c15.333 11.333 30.166 20.833 44.499 28.5s28.833 13.834 43.5 18.501s30.167 8 46.5 10s34.166 3 53.499 3s36.333 -3.16699 51 -9.5s28.834 -13.5 42.501 -21.5s27.834 -15.167 42.501 -21.5s31.667 -9.5 51 -9.5s36.333 3.16699 51 9.5
s29 13.5 43 21.5s28.333 15.167 43 21.5s31.667 9.5 51 9.5s36.333 -3.16699 51 -9.5s28.834 -13.5 42.501 -21.5s27.834 -15.167 42.501 -21.5s31.667 -9.5 51 -9.5c20 0 38.167 1.16699 54.5 3.5s32 6 47 11s29.667 11.667 44 20s29.5 18.5 45.5 30.5z" />
    <glyph glyph-name="apple" unicode="&#xe010;" horiz-adv-x="802" 
d="M776 15l-301.005 370.002l272 275c1.33301 1.33301 1.83301 3 1.5 5s-2.16602 3.33301 -5.49902 4l-45 10c-1.33301 0 -2.5 -0.333008 -3.5 -1s-1.83301 -1 -2.5 -1l-265 -268h1c-5.33301 -5.33301 -8.5 -8.66602 -9.5 -9.99902l-1.5 -2c-2.66699 -4 -5 -6.66699 -7 -8
c-6 -5.33301 -12.333 -11.666 -19 -18.999l-26 -28v321c0 4 -2 6 -6 6h-47c-4 0 -6 -2 -6 -6v-243l-19 8.5c-5.33301 2.33301 -9.66602 5.16602 -12.999 8.49902l-38 38c-11.333 11.333 -21.666 18.666 -30.999 21.999s-17.666 4.66602 -24.999 3.99902
s-13.666 -2.66699 -18.999 -6s-9 -6 -11 -8c-10 -10 -15.667 -20 -17 -30s-0.333008 -22.667 3 -38c-27.333 8.66699 -48 6.33398 -62 -6.99902c-8 -8.66699 -13 -17.667 -15 -27s-1.66699 -22.333 1 -39l-24 21l-8 -7c4.66699 -4 9 -8 13 -12l12 -12l81 -81l8 8l-64 65
c-9.33301 9.33301 -14 21.666 -14 36.999s4.66699 27.666 14 36.999c10 10 21.167 14.167 33.5 12.5s23.833 -7.83398 34.5 -18.501l65 -64l7 8l-67 67c-2.66699 2.66699 -5 6.33398 -7 11.001l-13 31l7 -8c0 6 1 12.167 3 18.5s5.66699 12.166 11 17.499
c10.667 10.667 23 15 37 13c12.667 -2 25.667 -9.66699 39 -23c0.666992 -0.666992 3 -2.83398 7 -6.50098s9 -8.66699 15 -15l16 -16.5c6.66699 -6 13.167 -10.5 19.5 -13.5s10.5 -4.83301 12.5 -5.5l1.5 1c1 0.666992 3.16699 2 6.5 4v-403c0 -4 2 -6 6 -6h47c4 0 6 2 6 6
v268l70 68l282 -359c2.66699 -1.33301 5 -1.66602 7 -0.999023l49 19c2.66699 0.666992 4.16699 1.83398 4.5 3.50098s-0.166992 3.16699 -1.5 4.5z" />
    </font>
</defs>
</svg>
